<?xml version="1.0" encoding="UTF-8" standalone="no"?><svg xmlns="http://www.w3.org/2000/svg" xmlns:xlink="http://www.w3.org/1999/xlink" contentScriptType="application/ecmascript" contentStyleType="text/css" height="1648.75px" preserveAspectRatio="none" style="width:995px;height:1648px;" version="1.1" viewBox="0 0 995 1648" width="995px" zoomAndPan="magnify"><defs><filter height="300%" id="ftb8wmnzel0sz" width="300%" x="-1" y="-1"><feGaussianBlur result="blurOut" stdDeviation="2.5"/><feColorMatrix in="blurOut" result="blurOut2" type="matrix" values="0 0 0 0 0 0 0 0 0 0 0 0 0 0 0 0 0 0 .4 0"/><feOffset dx="5.0" dy="5.0" in="blurOut2" result="blurOut3"/><feBlend in="SourceGraphic" in2="blurOut3" mode="normal"/></filter></defs><g><text fill="#000000" font-family="sans-serif" font-size="22.5" lengthAdjust="spacing" text-decoration="underline" textLength="445" x="266.875" y="23.3569">CLUSTERINGALGORITHM's Class Diagram</text><text fill="#000000" font-family="sans-serif" font-size="22.5" lengthAdjust="spacing" textLength="0" x="492.5" y="51.6577"/><!--MD5=[b2031b1a8a393d7e2b81067e5168f2f9]
cluster MainCode--><polygon fill="#FFFFFF" filter="url(#ftb8wmnzel0sz)" points="20,64.1016,116.25,64.1016,125,93.6133,746.25,93.6133,746.25,1571.6016,20,1571.6016,20,64.1016" style="stroke:#000000;stroke-width:1.875;"/><line style="stroke:#000000;stroke-width:1.875;" x1="20" x2="125" y1="93.6133" y2="93.6133"/><text fill="#000000" font-family="sans-serif" font-size="17.5" font-weight="bold" lengthAdjust="spacing" textLength="88.75" x="25" y="84.7681">MainCode</text><!--MD5=[3f105b170190e3af24ae83e15e622de5]
cluster MainCode.ClusteringAlgorithm--><polygon fill="#FFFFFF" filter="url(#ftb8wmnzel0sz)" points="50,119.1016,232.5,119.1016,241.25,148.6133,716.25,148.6133,716.25,1541.6016,50,1541.6016,50,119.1016" style="stroke:#000000;stroke-width:1.875;"/><line style="stroke:#000000;stroke-width:1.875;" x1="50" x2="241.25" y1="148.6133" y2="148.6133"/><text fill="#000000" font-family="sans-serif" font-size="17.5" font-weight="bold" lengthAdjust="spacing" textLength="175" x="55" y="139.7681">ClusteringAlgorithm</text><!--MD5=[efacd1637c727b3c7211f21bf1598582]
cluster MainCode.InSetData--><polygon fill="#FFFFFF" filter="url(#ftb8wmnzel0sz)" points="776.25,1243.4766,961.25,1243.4766,970,1272.9883,973.75,1272.9883,973.75,1368.4766,776.25,1368.4766,776.25,1243.4766" style="stroke:#000000;stroke-width:1.875;"/><line style="stroke:#000000;stroke-width:1.875;" x1="776.25" x2="970" y1="1272.9883" y2="1272.9883"/><text fill="#000000" font-family="sans-serif" font-size="17.5" font-weight="bold" lengthAdjust="spacing" textLength="177.5" x="781.25" y="1264.1431">MainCode.InSetData</text><!--MD5=[3fc2dca49e3b3dd8ed7cd711ed5c50e9]
class MainCode.ClusteringAlgorithm.AbstractClustering--><rect codeLine="6" fill="#FEFECE" filter="url(#ftb8wmnzel0sz)" height="492.373" id="MainCode.ClusteringAlgorithm.AbstractClustering" style="stroke:#A80036;stroke-width:1.875;" width="323.75" x="234.375" y="164.1016"/><ellipse cx="327.8125" cy="184.1016" fill="#A9DCDF" rx="13.75" ry="13.75" style="stroke:#A80036;stroke-width:1.25;"/><path d="M330,185.9766 L325.8789,185.9766 L325.332,187.2266 L325.332,187.2266 L325.918,187.2266 L326.5625,188.0078 L326.5625,188.4766 L326.5625,188.9453 L325.918,189.7266 L325.332,189.7266 L322.9688,189.7266 L322.207,189.7266 L321.5625,188.9453 L321.5625,188.4766 L321.5625,188.0078 L322.207,187.2266 L322.9688,187.2266 L325.8594,179.7266 L324.7656,179.7266 L323.457,179.7266 L322.8125,178.9453 L322.8125,178.4766 L322.8125,178.0078 L323.457,177.2266 L324.7656,177.2266 L329.3555,177.2266 L332.7148,187.2266 L333.418,187.2266 L333.418,187.2266 L334.0625,188.0078 L334.0625,188.4766 L334.0625,188.9453 L333.418,189.7266 L332.7148,189.7266 L330.3516,189.7266 L329.707,189.7266 L329.0625,188.9453 L329.0625,188.4766 L329.0625,188.0078 L329.707,187.2266 L330.3516,187.2266 L330.3516,187.2266 L330,185.9766 Z M329.3164,183.4766 L327.8125,179.0039 L326.5234,183.4766 L329.3164,183.4766 Z " fill="#000000"/><text fill="#000000" font-family="sans-serif" font-size="15" font-style="italic" lengthAdjust="spacing" textLength="126.25" x="353.4375" y="190.2393">AbstractClustering</text><line style="stroke:#A80036;stroke-width:1.875;" x1="235.625" x2="556.875" y1="204.1016" y2="204.1016"/><ellipse cx="248.125" cy="217.8516" fill="none" rx="3.75" ry="3.75" style="stroke:#038048;stroke-width:1.25;"/><text fill="#000000" font-family="sans-serif" font-size="13.75" lengthAdjust="spacing" textLength="131.25" x="259.375" y="223.3752">FINAL_COLOR : Color</text><ellipse cx="248.125" cy="235.1465" fill="none" rx="3.75" ry="3.75" style="stroke:#038048;stroke-width:1.25;"/><text fill="#000000" font-family="sans-serif" font-size="13.75" lengthAdjust="spacing" text-decoration="underline" textLength="207.5" x="259.375" y="240.6702">KM_CENTRAL_NODE_RADIUS : int</text><ellipse cx="248.125" cy="252.4414" fill="none" rx="3.75" ry="3.75" style="stroke:#038048;stroke-width:1.25;"/><text fill="#000000" font-family="sans-serif" font-size="13.75" lengthAdjust="spacing" text-decoration="underline" textLength="215" x="259.375" y="257.9651">KNN_CENTRAL_NODE_RADIUS : int</text><ellipse cx="248.125" cy="269.7363" fill="none" rx="3.75" ry="3.75" style="stroke:#038048;stroke-width:1.25;"/><text fill="#000000" font-family="sans-serif" font-size="13.75" lengthAdjust="spacing" text-decoration="underline" textLength="207.5" x="259.375" y="275.26">MS_CENTRAL_NODE_RADIUS : int</text><ellipse cx="248.125" cy="287.0313" fill="none" rx="3.75" ry="3.75" style="stroke:#038048;stroke-width:1.25;"/><text fill="#000000" font-family="sans-serif" font-size="13.75" lengthAdjust="spacing" text-decoration="underline" textLength="291.25" x="259.375" y="292.5549">MS_CIRCLE_AROUND_CENTROIDS_RADIUS : int</text><ellipse cx="248.125" cy="304.3262" fill="none" rx="3.75" ry="3.75" style="stroke:#038048;stroke-width:1.25;"/><text fill="#000000" font-family="sans-serif" font-size="13.75" lengthAdjust="spacing" text-decoration="underline" textLength="177.5" x="259.375" y="309.8499">NORMAL_NODE_RADIUS : int</text><polygon fill="none" points="248.125,315.3711,253.125,320.3711,248.125,325.3711,243.125,320.3711" style="stroke:#B38D22;stroke-width:1.25;"/><text fill="#000000" font-family="sans-serif" font-size="13.75" lengthAdjust="spacing" text-decoration="underline" textLength="87.5" x="259.375" y="327.1448">MAX_RUN : int</text><polygon fill="none" points="248.125,332.666,253.125,337.666,248.125,342.666,243.125,337.666" style="stroke:#B38D22;stroke-width:1.25;"/><text fill="#000000" font-family="sans-serif" font-size="13.75" lengthAdjust="spacing" textLength="31.25" x="259.375" y="344.4397">k : int</text><polygon fill="none" points="248.125,349.9609,253.125,354.9609,248.125,359.9609,243.125,354.9609" style="stroke:#B38D22;stroke-width:1.25;"/><text fill="#000000" font-family="sans-serif" font-size="13.75" lengthAdjust="spacing" textLength="183.75" x="259.375" y="361.7346">listOfNodes : ArrayList&lt;Node&gt;</text><polygon fill="none" points="248.125,367.2559,253.125,372.2559,248.125,377.2559,243.125,372.2559" style="stroke:#B38D22;stroke-width:1.25;"/><text fill="#000000" font-family="sans-serif" font-size="13.75" lengthAdjust="spacing" textLength="215" x="259.375" y="379.0295">st : ArrayList&lt;SequentialTransition&gt;</text><rect fill="none" height="7.5" style="stroke:#C82930;stroke-width:1.25;" width="7.5" x="244.375" y="387.0508"/><text fill="#000000" font-family="sans-serif" font-size="13.75" lengthAdjust="spacing" textLength="90" x="259.375" y="396.3245">f : FillTransition</text><rect fill="none" height="7.5" style="stroke:#C82930;stroke-width:1.25;" width="7.5" x="244.375" y="404.3457"/><text fill="#000000" font-family="sans-serif" font-size="13.75" lengthAdjust="spacing" textLength="120" x="259.375" y="413.6194">p : ParallelTransition</text><line style="stroke:#A80036;stroke-width:1.875;" x1="235.625" x2="556.875" y1="421.6406" y2="421.6406"/><ellipse cx="248.125" cy="435.3906" fill="#84BE84" rx="3.75" ry="3.75" style="stroke:#038048;stroke-width:1.25;"/><text fill="#000000" font-family="sans-serif" font-size="13.75" lengthAdjust="spacing" textLength="163.75" x="259.375" y="440.9143">addANodeToListOfNodes()</text><ellipse cx="248.125" cy="452.6855" fill="#84BE84" rx="3.75" ry="3.75" style="stroke:#038048;stroke-width:1.25;"/><text fill="#000000" font-family="sans-serif" font-size="13.75" lengthAdjust="spacing" textLength="161.25" x="259.375" y="458.2092">addNodesToListOfNodes()</text><ellipse cx="248.125" cy="469.9805" fill="#84BE84" rx="3.75" ry="3.75" style="stroke:#038048;stroke-width:1.25;"/><text fill="#000000" font-family="sans-serif" font-size="13.75" font-style="italic" lengthAdjust="spacing" textLength="186.25" x="259.375" y="475.5042">addSomeNodeToListOfNode()</text><ellipse cx="248.125" cy="487.2754" fill="#84BE84" rx="3.75" ry="3.75" style="stroke:#038048;stroke-width:1.25;"/><text fill="#000000" font-family="sans-serif" font-size="13.75" lengthAdjust="spacing" textLength="103.75" x="259.375" y="492.7991">getListOfNodes()</text><ellipse cx="248.125" cy="504.5703" fill="#84BE84" rx="3.75" ry="3.75" style="stroke:#038048;stroke-width:1.25;"/><text fill="#000000" font-family="sans-serif" font-size="13.75" font-style="italic" lengthAdjust="spacing" textLength="106.25" x="259.375" y="510.094">initListOfNodes()</text><ellipse cx="248.125" cy="521.8652" fill="#84BE84" rx="3.75" ry="3.75" style="stroke:#038048;stroke-width:1.25;"/><text fill="#000000" font-family="sans-serif" font-size="13.75" lengthAdjust="spacing" textLength="135" x="259.375" y="527.3889">overrideListOfNodes()</text><ellipse cx="248.125" cy="539.1602" fill="#84BE84" rx="3.75" ry="3.75" style="stroke:#038048;stroke-width:1.25;"/><text fill="#000000" font-family="sans-serif" font-size="13.75" lengthAdjust="spacing" textLength="111.25" x="259.375" y="544.6838">printListOfNodes()</text><ellipse cx="248.125" cy="556.4551" fill="#84BE84" rx="3.75" ry="3.75" style="stroke:#038048;stroke-width:1.25;"/><text fill="#000000" font-family="sans-serif" font-size="13.75" lengthAdjust="spacing" textLength="197.5" x="259.375" y="561.9788">removeSomeNodeInListOfNode()</text><ellipse cx="248.125" cy="573.75" fill="#84BE84" rx="3.75" ry="3.75" style="stroke:#038048;stroke-width:1.25;"/><text fill="#000000" font-family="sans-serif" font-size="13.75" font-style="italic" lengthAdjust="spacing" textLength="62.5" x="259.375" y="579.2737">startSort()</text><polygon fill="#FFFF44" points="248.125,584.7949,253.125,589.7949,248.125,594.7949,243.125,589.7949" style="stroke:#B38D22;stroke-width:1.25;"/><text fill="#000000" font-family="sans-serif" font-size="13.75" lengthAdjust="spacing" textLength="142.5" x="259.375" y="596.5686">distanceOfTwoNodes()</text><polygon fill="#FFFF44" points="248.125,602.0898,253.125,607.0898,248.125,612.0898,243.125,607.0898" style="stroke:#B38D22;stroke-width:1.25;"/><text fill="#000000" font-family="sans-serif" font-size="13.75" lengthAdjust="spacing" textLength="113.75" x="259.375" y="613.8635">fillTransionShape()</text><polygon fill="#FFFF44" points="248.125,619.3848,253.125,624.3848,248.125,629.3848,243.125,624.3848" style="stroke:#B38D22;stroke-width:1.25;"/><text fill="#000000" font-family="sans-serif" font-size="13.75" lengthAdjust="spacing" textLength="35" x="259.375" y="631.1584">initK()</text><polygon fill="#4177AF" points="248.125,637.9297,243.125,645.4297,253.125,645.4297" style="stroke:#1963A0;stroke-width:1.25;"/><text fill="#000000" font-family="sans-serif" font-size="13.75" lengthAdjust="spacing" textLength="78.75" x="259.375" y="648.4534">colorShape()</text><!--MD5=[16b620ebc4200ee5ee41e1728191622a]
class MainCode.ClusteringAlgorithm.KMAndMSGeneral--><rect codeLine="39" fill="#FEFECE" filter="url(#ftb8wmnzel0sz)" height="250.2441" id="MainCode.ClusteringAlgorithm.KMAndMSGeneral" style="stroke:#A80036;stroke-width:1.875;" width="202.5" x="157.5" y="750.3516"/><ellipse cx="193.125" cy="770.3516" fill="#A9DCDF" rx="13.75" ry="13.75" style="stroke:#A80036;stroke-width:1.25;"/><path d="M195.3125,772.2266 L191.1914,772.2266 L190.6445,773.4766 L190.6445,773.4766 L191.2305,773.4766 L191.875,774.2578 L191.875,774.7266 L191.875,775.1953 L191.2305,775.9766 L190.6445,775.9766 L188.2813,775.9766 L187.5195,775.9766 L186.875,775.1953 L186.875,774.7266 L186.875,774.2578 L187.5195,773.4766 L188.2813,773.4766 L191.1719,765.9766 L190.0781,765.9766 L188.7695,765.9766 L188.125,765.1953 L188.125,764.7266 L188.125,764.2578 L188.7695,763.4766 L190.0781,763.4766 L194.668,763.4766 L198.0273,773.4766 L198.7305,773.4766 L198.7305,773.4766 L199.375,774.2578 L199.375,774.7266 L199.375,775.1953 L198.7305,775.9766 L198.0273,775.9766 L195.6641,775.9766 L195.0195,775.9766 L194.375,775.1953 L194.375,774.7266 L194.375,774.2578 L195.0195,773.4766 L195.6641,773.4766 L195.6641,773.4766 L195.3125,772.2266 Z M194.6289,769.7266 L193.125,765.2539 L191.8359,769.7266 L194.6289,769.7266 Z " fill="#000000"/><text fill="#000000" font-family="sans-serif" font-size="15" font-style="italic" lengthAdjust="spacing" textLength="125" x="214.375" y="776.4893">KMAndMSGeneral</text><line style="stroke:#A80036;stroke-width:1.875;" x1="158.75" x2="358.75" y1="790.3516" y2="790.3516"/><polygon fill="none" points="171.25,797.8516,176.25,802.8516,171.25,807.8516,166.25,802.8516" style="stroke:#B38D22;stroke-width:1.25;"/><text fill="#000000" font-family="sans-serif" font-size="13.75" lengthAdjust="spacing" textLength="138.75" x="182.5" y="809.6252">centroidVisual : Circle[]</text><polygon fill="none" points="171.25,815.1465,176.25,820.1465,171.25,825.1465,166.25,820.1465" style="stroke:#B38D22;stroke-width:1.25;"/><text fill="#000000" font-family="sans-serif" font-size="13.75" lengthAdjust="spacing" textLength="106.25" x="182.5" y="826.9202">centroids : Node[]</text><polygon fill="none" points="171.25,832.4414,176.25,837.4414,171.25,842.4414,166.25,837.4414" style="stroke:#B38D22;stroke-width:1.25;"/><text fill="#000000" font-family="sans-serif" font-size="13.75" lengthAdjust="spacing" textLength="168.75" x="182.5" y="844.2151">currentXForVisual : double[]</text><polygon fill="none" points="171.25,849.7363,176.25,854.7363,171.25,859.7363,166.25,854.7363" style="stroke:#B38D22;stroke-width:1.25;"/><text fill="#000000" font-family="sans-serif" font-size="13.75" lengthAdjust="spacing" textLength="170" x="182.5" y="861.51">currentYForVisual : double[]</text><polygon fill="none" points="171.25,867.0313,176.25,872.0313,171.25,877.0313,166.25,872.0313" style="stroke:#B38D22;stroke-width:1.25;"/><text fill="#000000" font-family="sans-serif" font-size="13.75" lengthAdjust="spacing" textLength="151.25" x="182.5" y="878.8049">nextXForVisual : double[]</text><polygon fill="none" points="171.25,884.3262,176.25,889.3262,171.25,894.3262,166.25,889.3262" style="stroke:#B38D22;stroke-width:1.25;"/><text fill="#000000" font-family="sans-serif" font-size="13.75" lengthAdjust="spacing" textLength="152.5" x="182.5" y="896.0999">nextYForVisual : double[]</text><line style="stroke:#A80036;stroke-width:1.875;" x1="158.75" x2="358.75" y1="904.1211" y2="904.1211"/><ellipse cx="171.25" cy="917.8711" fill="#84BE84" rx="3.75" ry="3.75" style="stroke:#038048;stroke-width:1.25;"/><text fill="#000000" font-family="sans-serif" font-size="13.75" lengthAdjust="spacing" textLength="101.25" x="182.5" y="923.3948">initListOfNodes()</text><ellipse cx="171.25" cy="935.166" fill="#84BE84" rx="3.75" ry="3.75" style="stroke:#038048;stroke-width:1.25;"/><text fill="#000000" font-family="sans-serif" font-size="13.75" font-style="italic" lengthAdjust="spacing" textLength="62.5" x="182.5" y="940.6897">startSort()</text><polygon fill="#FFFF44" points="171.25,946.2109,176.25,951.2109,171.25,956.2109,166.25,951.2109" style="stroke:#B38D22;stroke-width:1.25;"/><text fill="#000000" font-family="sans-serif" font-size="13.75" lengthAdjust="spacing" textLength="128.75" x="182.5" y="957.9846">checkStopCondition()</text><polygon fill="#FFFF44" points="171.25,963.5059,176.25,968.5059,171.25,973.5059,166.25,968.5059" style="stroke:#B38D22;stroke-width:1.25;"/><text fill="#000000" font-family="sans-serif" font-size="13.75" lengthAdjust="spacing" textLength="100" x="182.5" y="975.2795">drawCentroids()</text><polygon fill="#FFFF44" points="171.25,980.8008,176.25,985.8008,171.25,990.8008,166.25,985.8008" style="stroke:#B38D22;stroke-width:1.25;"/><text fill="#000000" font-family="sans-serif" font-size="13.75" lengthAdjust="spacing" textLength="102.5" x="182.5" y="992.5745">initXYForVisual()</text><!--MD5=[74b59eb449cc10b2a6c2b39a7fb2a78a]
class MainCode.ClusteringAlgorithm.KMeans--><rect codeLine="58" fill="#FEFECE" filter="url(#ftb8wmnzel0sz)" height="405.8984" id="MainCode.ClusteringAlgorithm.KMeans" style="stroke:#A80036;stroke-width:1.875;" width="307.5" x="70" y="1115.3516"/><ellipse cx="190.3125" cy="1135.3516" fill="#ADD1B2" rx="13.75" ry="13.75" style="stroke:#A80036;stroke-width:1.25;"/><path d="M192.8125,1130.9766 Q193.0664,1130.3516 193.3594,1130.0391 Q193.6523,1129.7266 193.9844,1129.7266 Q194.5703,1129.7266 194.9414,1130.0781 Q195.3125,1130.4297 195.3125,1131.25 L195.3125,1133.2031 Q195.3125,1134.0234 194.9609,1134.375 Q194.6094,1134.7266 194.0625,1134.7266 Q193.5742,1134.7266 193.2617,1134.5117 Q192.9492,1134.2969 192.8125,1133.7305 Q192.7539,1133.3398 192.5391,1133.125 Q192.1484,1132.7148 191.4453,1132.4805 Q190.7422,1132.2266 190.0391,1132.2266 Q189.1602,1132.2266 188.418,1132.5781 Q187.6953,1132.9297 187.1289,1133.7109 Q186.5625,1134.4922 186.5625,1135.5664 L186.5625,1136.7188 Q186.5625,1138.0078 187.6172,1138.8672 Q188.6719,1139.7266 190.5469,1139.7266 Q191.6602,1139.7266 192.4414,1139.4727 Q192.8906,1139.3359 193.3984,1138.8867 Q193.7305,1138.6328 193.9063,1138.5547 Q194.082,1138.4766 194.2969,1138.4766 Q194.707,1138.4766 195,1138.8086 Q195.3125,1139.1211 195.3125,1139.5703 Q195.3125,1140 194.8828,1140.5078 Q194.2578,1141.25 193.2617,1141.6602 Q191.9531,1142.2266 190.3516,1142.2266 Q188.4766,1142.2266 186.9727,1141.4844 Q185.7617,1140.8984 184.9023,1139.6289 Q184.0625,1138.3594 184.0625,1136.8555 L184.0625,1135.4883 Q184.0625,1133.9258 184.8047,1132.5586 Q185.5664,1131.1914 186.875,1130.4688 Q188.2031,1129.7266 189.6875,1129.7266 Q190.5859,1129.7266 191.3672,1130.0391 Q192.1484,1130.3516 192.8125,1130.9766 Z " fill="#000000"/><text fill="#000000" font-family="sans-serif" font-size="15" lengthAdjust="spacing" textLength="56.25" x="215.9375" y="1141.4893">KMeans</text><line style="stroke:#A80036;stroke-width:1.875;" x1="71.25" x2="376.25" y1="1155.3516" y2="1155.3516"/><polygon fill="none" points="83.75,1164.1016,78.75,1171.6016,88.75,1171.6016" style="stroke:#1963A0;stroke-width:1.25;"/><text fill="#000000" font-family="sans-serif" font-size="13.75" lengthAdjust="spacing" textLength="170" x="95" y="1174.6252">bestClustered : List&lt;Node&gt;[]</text><polygon fill="none" points="83.75,1181.3965,78.75,1188.8965,88.75,1188.8965" style="stroke:#1963A0;stroke-width:1.25;"/><text fill="#000000" font-family="sans-serif" font-size="13.75" lengthAdjust="spacing" textLength="181.25" x="95" y="1191.9202">clusteredNodes : List&lt;Node&gt;[]</text><line style="stroke:#A80036;stroke-width:1.875;" x1="71.25" x2="376.25" y1="1199.9414" y2="1199.9414"/><ellipse cx="83.75" cy="1213.6914" fill="#84BE84" rx="3.75" ry="3.75" style="stroke:#038048;stroke-width:1.25;"/><text fill="#000000" font-family="sans-serif" font-size="13.75" lengthAdjust="spacing" textLength="180" x="95" y="1219.2151">addSomeNodeToListOfNode()</text><ellipse cx="83.75" cy="1230.9863" fill="#84BE84" rx="3.75" ry="3.75" style="stroke:#038048;stroke-width:1.25;"/><text fill="#000000" font-family="sans-serif" font-size="13.75" lengthAdjust="spacing" textLength="101.25" x="95" y="1236.51">initListOfNodes()</text><ellipse cx="83.75" cy="1248.2813" fill="#84BE84" rx="3.75" ry="3.75" style="stroke:#038048;stroke-width:1.25;"/><text fill="#000000" font-family="sans-serif" font-size="13.75" lengthAdjust="spacing" textLength="62.5" x="95" y="1253.8049">startSort()</text><polygon fill="#FFFF44" points="83.75,1259.3262,88.75,1264.3262,83.75,1269.3262,78.75,1264.3262" style="stroke:#B38D22;stroke-width:1.25;"/><text fill="#000000" font-family="sans-serif" font-size="13.75" lengthAdjust="spacing" textLength="163.75" x="95" y="1271.0999">repositionCentroidsVisual()</text><rect fill="#F24D5C" height="7.5" style="stroke:#C82930;stroke-width:1.25;" width="7.5" x="80" y="1279.1211"/><text fill="#000000" font-family="sans-serif" font-size="13.75" lengthAdjust="spacing" textLength="128.75" x="95" y="1288.3948">addNodesToCluster()</text><rect fill="#F24D5C" height="7.5" style="stroke:#C82930;stroke-width:1.25;" width="7.5" x="80" y="1296.416"/><text fill="#000000" font-family="sans-serif" font-size="13.75" lengthAdjust="spacing" textLength="136.25" x="95" y="1305.6897">clearClusteredNodes()</text><rect fill="#F24D5C" height="7.5" style="stroke:#C82930;stroke-width:1.25;" width="7.5" x="80" y="1313.7109"/><text fill="#000000" font-family="sans-serif" font-size="13.75" lengthAdjust="spacing" textLength="275" x="95" y="1322.9846">copyClusteredNodesToBestClusteredNodes()</text><rect fill="#F24D5C" height="7.5" style="stroke:#C82930;stroke-width:1.25;" width="7.5" x="80" y="1331.0059"/><text fill="#000000" font-family="sans-serif" font-size="13.75" lengthAdjust="spacing" textLength="92.5" x="95" y="1340.2795">hideCentroids()</text><rect fill="#F24D5C" height="7.5" style="stroke:#C82930;stroke-width:1.25;" width="7.5" x="80" y="1348.3008"/><text fill="#000000" font-family="sans-serif" font-size="13.75" lengthAdjust="spacing" textLength="96.25" x="95" y="1357.5745">initBestCluster()</text><rect fill="#F24D5C" height="7.5" style="stroke:#C82930;stroke-width:1.25;" width="7.5" x="80" y="1365.5957"/><text fill="#000000" font-family="sans-serif" font-size="13.75" lengthAdjust="spacing" textLength="83.75" x="95" y="1374.8694">initCentroids()</text><rect fill="#F24D5C" height="7.5" style="stroke:#C82930;stroke-width:1.25;" width="7.5" x="80" y="1382.8906"/><text fill="#000000" font-family="sans-serif" font-size="13.75" lengthAdjust="spacing" textLength="68.75" x="95" y="1392.1643">initCluster()</text><rect fill="#F24D5C" height="7.5" style="stroke:#C82930;stroke-width:1.25;" width="7.5" x="80" y="1400.1855"/><text fill="#000000" font-family="sans-serif" font-size="13.75" lengthAdjust="spacing" textLength="100" x="95" y="1409.4592">moveCentroids()</text><rect fill="#F24D5C" height="7.5" style="stroke:#C82930;stroke-width:1.25;" width="7.5" x="80" y="1417.4805"/><text fill="#000000" font-family="sans-serif" font-size="13.75" lengthAdjust="spacing" textLength="163.75" x="95" y="1426.7542">recolorNodeInBestCluster()</text><rect fill="#F24D5C" height="7.5" style="stroke:#C82930;stroke-width:1.25;" width="7.5" x="80" y="1434.7754"/><text fill="#000000" font-family="sans-serif" font-size="13.75" lengthAdjust="spacing" textLength="136.25" x="95" y="1444.0491">recolorNodeInCluster()</text><rect fill="#F24D5C" height="7.5" style="stroke:#C82930;stroke-width:1.25;" width="7.5" x="80" y="1452.0703"/><text fill="#000000" font-family="sans-serif" font-size="13.75" lengthAdjust="spacing" textLength="131.25" x="95" y="1461.344">recolorNodeToBlack()</text><rect fill="#F24D5C" height="7.5" style="stroke:#C82930;stroke-width:1.25;" width="7.5" x="80" y="1469.3652"/><text fill="#000000" font-family="sans-serif" font-size="13.75" lengthAdjust="spacing" textLength="118.75" x="95" y="1478.6389">repositionCentroid()</text><rect fill="#F24D5C" height="7.5" style="stroke:#C82930;stroke-width:1.25;" width="7.5" x="80" y="1486.6602"/><text fill="#000000" font-family="sans-serif" font-size="13.75" lengthAdjust="spacing" textLength="162.5" x="95" y="1495.9338">setXYForVisualCentroids()</text><rect fill="#F24D5C" height="7.5" style="stroke:#C82930;stroke-width:1.25;" width="7.5" x="80" y="1503.9551"/><text fill="#000000" font-family="sans-serif" font-size="13.75" lengthAdjust="spacing" textLength="146.25" x="95" y="1513.2288">totalVariationOfCluster()</text><!--MD5=[16fb17108ced37403df2c566d0a08015]
class MainCode.ClusteringAlgorithm.KNearestNeighbor--><rect codeLine="86" fill="#FEFECE" filter="url(#ftb8wmnzel0sz)" height="284.834" id="MainCode.ClusteringAlgorithm.KNearestNeighbor" style="stroke:#A80036;stroke-width:1.875;" width="292.5" x="403.75" y="732.8516"/><ellipse cx="480.3125" cy="752.8516" fill="#ADD1B2" rx="13.75" ry="13.75" style="stroke:#A80036;stroke-width:1.25;"/><path d="M482.8125,748.4766 Q483.0664,747.8516 483.3594,747.5391 Q483.6523,747.2266 483.9844,747.2266 Q484.5703,747.2266 484.9414,747.5781 Q485.3125,747.9297 485.3125,748.75 L485.3125,750.7031 Q485.3125,751.5234 484.9609,751.875 Q484.6094,752.2266 484.0625,752.2266 Q483.5742,752.2266 483.2617,752.0117 Q482.9492,751.7969 482.8125,751.2305 Q482.7539,750.8398 482.5391,750.625 Q482.1484,750.2148 481.4453,749.9805 Q480.7422,749.7266 480.0391,749.7266 Q479.1602,749.7266 478.418,750.0781 Q477.6953,750.4297 477.1289,751.2109 Q476.5625,751.9922 476.5625,753.0664 L476.5625,754.2188 Q476.5625,755.5078 477.6172,756.3672 Q478.6719,757.2266 480.5469,757.2266 Q481.6602,757.2266 482.4414,756.9727 Q482.8906,756.8359 483.3984,756.3867 Q483.7305,756.1328 483.9063,756.0547 Q484.082,755.9766 484.2969,755.9766 Q484.707,755.9766 485,756.3086 Q485.3125,756.6211 485.3125,757.0703 Q485.3125,757.5 484.8828,758.0078 Q484.2578,758.75 483.2617,759.1602 Q481.9531,759.7266 480.3516,759.7266 Q478.4766,759.7266 476.9727,758.9844 Q475.7617,758.3984 474.9023,757.1289 Q474.0625,755.8594 474.0625,754.3555 L474.0625,752.9883 Q474.0625,751.4258 474.8047,750.0586 Q475.5664,748.6914 476.875,747.9688 Q478.2031,747.2266 479.6875,747.2266 Q480.5859,747.2266 481.3672,747.5391 Q482.1484,747.8516 482.8125,748.4766 Z " fill="#000000"/><text fill="#000000" font-family="sans-serif" font-size="15" lengthAdjust="spacing" textLength="128.75" x="505.9375" y="758.9893">KNearestNeighbor</text><line style="stroke:#A80036;stroke-width:1.875;" x1="405" x2="695" y1="772.8516" y2="772.8516"/><rect fill="none" height="7.5" style="stroke:#C82930;stroke-width:1.25;" width="7.5" x="413.75" y="782.8516"/><text fill="#000000" font-family="sans-serif" font-size="13.75" lengthAdjust="spacing" textLength="110" x="428.75" y="792.1252">distance : double[]</text><rect fill="none" height="7.5" style="stroke:#C82930;stroke-width:1.25;" width="7.5" x="413.75" y="800.1465"/><text fill="#000000" font-family="sans-serif" font-size="13.75" lengthAdjust="spacing" textLength="71.25" x="428.75" y="809.4202">lines : Line[]</text><rect fill="none" height="7.5" style="stroke:#C82930;stroke-width:1.25;" width="7.5" x="413.75" y="817.4414"/><text fill="#000000" font-family="sans-serif" font-size="13.75" lengthAdjust="spacing" textLength="110" x="428.75" y="826.7151">neighbors : Node[]</text><line style="stroke:#A80036;stroke-width:1.875;" x1="405" x2="695" y1="834.7363" y2="834.7363"/><ellipse cx="417.5" cy="848.4863" fill="#84BE84" rx="3.75" ry="3.75" style="stroke:#038048;stroke-width:1.25;"/><text fill="#000000" font-family="sans-serif" font-size="13.75" lengthAdjust="spacing" textLength="180" x="428.75" y="854.01">addSomeNodeToListOfNode()</text><ellipse cx="417.5" cy="865.7813" fill="#84BE84" rx="3.75" ry="3.75" style="stroke:#038048;stroke-width:1.25;"/><text fill="#000000" font-family="sans-serif" font-size="13.75" lengthAdjust="spacing" textLength="101.25" x="428.75" y="871.3049">initListOfNodes()</text><ellipse cx="417.5" cy="883.0762" fill="#84BE84" rx="3.75" ry="3.75" style="stroke:#038048;stroke-width:1.25;"/><text fill="#000000" font-family="sans-serif" font-size="13.75" lengthAdjust="spacing" textLength="62.5" x="428.75" y="888.5999">startSort()</text><rect fill="#F24D5C" height="7.5" style="stroke:#C82930;stroke-width:1.25;" width="7.5" x="413.75" y="896.6211"/><text fill="#000000" font-family="sans-serif" font-size="13.75" lengthAdjust="spacing" textLength="260" x="428.75" y="905.8948">calculatingDistanceFromCentroidToNodes()</text><rect fill="#F24D5C" height="7.5" style="stroke:#C82930;stroke-width:1.25;" width="7.5" x="413.75" y="913.916"/><text fill="#000000" font-family="sans-serif" font-size="13.75" lengthAdjust="spacing" textLength="100" x="428.75" y="923.1897">drawCentroids()</text><rect fill="#F24D5C" height="7.5" style="stroke:#C82930;stroke-width:1.25;" width="7.5" x="413.75" y="931.2109"/><text fill="#000000" font-family="sans-serif" font-size="13.75" lengthAdjust="spacing" textLength="83.75" x="428.75" y="940.4846">initCentroids()</text><rect fill="#F24D5C" height="7.5" style="stroke:#C82930;stroke-width:1.25;" width="7.5" x="413.75" y="948.5059"/><text fill="#000000" font-family="sans-serif" font-size="13.75" lengthAdjust="spacing" textLength="58.75" x="428.75" y="957.7795">initLines()</text><rect fill="#F24D5C" height="7.5" style="stroke:#C82930;stroke-width:1.25;" width="7.5" x="413.75" y="965.8008"/><text fill="#000000" font-family="sans-serif" font-size="13.75" lengthAdjust="spacing" textLength="87.5" x="428.75" y="975.0745">removeLines()</text><rect fill="#F24D5C" height="7.5" style="stroke:#C82930;stroke-width:1.25;" width="7.5" x="413.75" y="983.0957"/><text fill="#000000" font-family="sans-serif" font-size="13.75" lengthAdjust="spacing" textLength="77.5" x="428.75" y="992.3694">showLines()</text><rect fill="#F24D5C" height="7.5" style="stroke:#C82930;stroke-width:1.25;" width="7.5" x="413.75" y="1000.3906"/><text fill="#000000" font-family="sans-serif" font-size="13.75" lengthAdjust="spacing" textLength="46.25" x="428.75" y="1009.6643">voting()</text><!--MD5=[c56c352f5361cd094006ab34ea2c31e2]
class MainCode.ClusteringAlgorithm.MeanShift--><rect codeLine="107" fill="#FEFECE" filter="url(#ftb8wmnzel0sz)" height="405.8984" id="MainCode.ClusteringAlgorithm.MeanShift" style="stroke:#A80036;stroke-width:1.875;" width="273.75" x="421.875" y="1115.3516"/><ellipse cx="519.6875" cy="1135.3516" fill="#ADD1B2" rx="13.75" ry="13.75" style="stroke:#A80036;stroke-width:1.25;"/><path d="M522.1875,1130.9766 Q522.4414,1130.3516 522.7344,1130.0391 Q523.0273,1129.7266 523.3594,1129.7266 Q523.9453,1129.7266 524.3164,1130.0781 Q524.6875,1130.4297 524.6875,1131.25 L524.6875,1133.2031 Q524.6875,1134.0234 524.3359,1134.375 Q523.9844,1134.7266 523.4375,1134.7266 Q522.9492,1134.7266 522.6367,1134.5117 Q522.3242,1134.2969 522.1875,1133.7305 Q522.1289,1133.3398 521.9141,1133.125 Q521.5234,1132.7148 520.8203,1132.4805 Q520.1172,1132.2266 519.4141,1132.2266 Q518.5352,1132.2266 517.793,1132.5781 Q517.0703,1132.9297 516.5039,1133.7109 Q515.9375,1134.4922 515.9375,1135.5664 L515.9375,1136.7188 Q515.9375,1138.0078 516.9922,1138.8672 Q518.0469,1139.7266 519.9219,1139.7266 Q521.0352,1139.7266 521.8164,1139.4727 Q522.2656,1139.3359 522.7734,1138.8867 Q523.1055,1138.6328 523.2813,1138.5547 Q523.457,1138.4766 523.6719,1138.4766 Q524.082,1138.4766 524.375,1138.8086 Q524.6875,1139.1211 524.6875,1139.5703 Q524.6875,1140 524.2578,1140.5078 Q523.6328,1141.25 522.6367,1141.6602 Q521.3281,1142.2266 519.7266,1142.2266 Q517.8516,1142.2266 516.3477,1141.4844 Q515.1367,1140.8984 514.2773,1139.6289 Q513.4375,1138.3594 513.4375,1136.8555 L513.4375,1135.4883 Q513.4375,1133.9258 514.1797,1132.5586 Q514.9414,1131.1914 516.25,1130.4688 Q517.5781,1129.7266 519.0625,1129.7266 Q519.9609,1129.7266 520.7422,1130.0391 Q521.5234,1130.3516 522.1875,1130.9766 Z " fill="#000000"/><text fill="#000000" font-family="sans-serif" font-size="15" lengthAdjust="spacing" textLength="67.5" x="545.3125" y="1141.4893">MeanShift</text><line style="stroke:#A80036;stroke-width:1.875;" x1="423.125" x2="694.375" y1="1155.3516" y2="1155.3516"/><rect fill="none" height="7.5" style="stroke:#C82930;stroke-width:1.25;" width="7.5" x="431.875" y="1165.3516"/><text fill="#000000" font-family="sans-serif" font-size="13.75" lengthAdjust="spacing" textLength="182.5" x="446.875" y="1174.6252">blackList : ArrayList&lt;double[]&gt;</text><rect fill="none" height="7.5" style="stroke:#C82930;stroke-width:1.25;" width="7.5" x="431.875" y="1182.6465"/><text fill="#000000" font-family="sans-serif" font-size="13.75" lengthAdjust="spacing" textLength="180" x="446.875" y="1191.9202">circleAroundCentroid : Circle[]</text><rect fill="none" height="7.5" style="stroke:#C82930;stroke-width:1.25;" width="7.5" x="431.875" y="1199.9414"/><text fill="#000000" font-family="sans-serif" font-size="13.75" lengthAdjust="spacing" textLength="132.5" x="446.875" y="1209.2151">minPointArgument : int</text><rect fill="none" height="7.5" style="stroke:#C82930;stroke-width:1.25;" width="7.5" x="431.875" y="1217.2363"/><text fill="#000000" font-family="sans-serif" font-size="13.75" lengthAdjust="spacing" textLength="241.25" x="446.875" y="1226.51">nodeBelongToCircle : ArrayList&lt;Node&gt;[]</text><rect fill="none" height="7.5" style="stroke:#C82930;stroke-width:1.25;" width="7.5" x="431.875" y="1234.5313"/><text fill="#000000" font-family="sans-serif" font-size="13.75" lengthAdjust="spacing" textLength="150" x="446.875" y="1243.8049">totalDistanceMoved : int[]</text><line style="stroke:#A80036;stroke-width:1.875;" x1="423.125" x2="694.375" y1="1251.8262" y2="1251.8262"/><ellipse cx="435.625" cy="1265.5762" fill="#84BE84" rx="3.75" ry="3.75" style="stroke:#038048;stroke-width:1.25;"/><text fill="#000000" font-family="sans-serif" font-size="13.75" lengthAdjust="spacing" textLength="180" x="446.875" y="1271.0999">addSomeNodeToListOfNode()</text><ellipse cx="435.625" cy="1282.8711" fill="#84BE84" rx="3.75" ry="3.75" style="stroke:#038048;stroke-width:1.25;"/><text fill="#000000" font-family="sans-serif" font-size="13.75" lengthAdjust="spacing" textLength="101.25" x="446.875" y="1288.3948">initListOfNodes()</text><ellipse cx="435.625" cy="1300.166" fill="#84BE84" rx="3.75" ry="3.75" style="stroke:#038048;stroke-width:1.25;"/><text fill="#000000" font-family="sans-serif" font-size="13.75" lengthAdjust="spacing" textLength="62.5" x="446.875" y="1305.6897">startSort()</text><rect fill="#F24D5C" height="7.5" style="stroke:#C82930;stroke-width:1.25;" width="7.5" x="431.875" y="1313.7109"/><text fill="#000000" font-family="sans-serif" font-size="13.75" lengthAdjust="spacing" textLength="157.5" x="446.875" y="1322.9846">getNodesBelongToCircle()</text><rect fill="#F24D5C" height="7.5" style="stroke:#C82930;stroke-width:1.25;" width="7.5" x="431.875" y="1331.0059"/><text fill="#000000" font-family="sans-serif" font-size="13.75" lengthAdjust="spacing" textLength="146.25" x="446.875" y="1340.2795">hideCircleForCentroids()</text><rect fill="#F24D5C" height="7.5" style="stroke:#C82930;stroke-width:1.25;" width="7.5" x="431.875" y="1348.3008"/><text fill="#000000" font-family="sans-serif" font-size="13.75" lengthAdjust="spacing" textLength="83.75" x="446.875" y="1357.5745">initCentroids()</text><rect fill="#F24D5C" height="7.5" style="stroke:#C82930;stroke-width:1.25;" width="7.5" x="431.875" y="1365.5957"/><text fill="#000000" font-family="sans-serif" font-size="13.75" lengthAdjust="spacing" textLength="137.5" x="446.875" y="1374.8694">initCircleForCentroids()</text><rect fill="#F24D5C" height="7.5" style="stroke:#C82930;stroke-width:1.25;" width="7.5" x="431.875" y="1382.8906"/><text fill="#000000" font-family="sans-serif" font-size="13.75" lengthAdjust="spacing" textLength="147.5" x="446.875" y="1392.1643">initTotalDistanceMoved()</text><rect fill="#F24D5C" height="7.5" style="stroke:#C82930;stroke-width:1.25;" width="7.5" x="431.875" y="1400.1855"/><text fill="#000000" font-family="sans-serif" font-size="13.75" lengthAdjust="spacing" textLength="172.5" x="446.875" y="1409.4592">minPointArgumentCalculate()</text><rect fill="#F24D5C" height="7.5" style="stroke:#C82930;stroke-width:1.25;" width="7.5" x="431.875" y="1417.4805"/><text fill="#000000" font-family="sans-serif" font-size="13.75" lengthAdjust="spacing" textLength="100" x="446.875" y="1426.7542">moveCentroids()</text><rect fill="#F24D5C" height="7.5" style="stroke:#C82930;stroke-width:1.25;" width="7.5" x="431.875" y="1434.7754"/><text fill="#000000" font-family="sans-serif" font-size="13.75" lengthAdjust="spacing" textLength="157.5" x="446.875" y="1444.0491">printTotalDistanceMoved()</text><rect fill="#F24D5C" height="7.5" style="stroke:#C82930;stroke-width:1.25;" width="7.5" x="431.875" y="1452.0703"/><text fill="#000000" font-family="sans-serif" font-size="13.75" lengthAdjust="spacing" textLength="133.75" x="446.875" y="1461.344">repositionCentroids1()</text><rect fill="#F24D5C" height="7.5" style="stroke:#C82930;stroke-width:1.25;" width="7.5" x="431.875" y="1469.3652"/><text fill="#000000" font-family="sans-serif" font-size="13.75" lengthAdjust="spacing" textLength="133.75" x="446.875" y="1478.6389">repositionCentroids2()</text><rect fill="#F24D5C" height="7.5" style="stroke:#C82930;stroke-width:1.25;" width="7.5" x="431.875" y="1486.6602"/><text fill="#000000" font-family="sans-serif" font-size="13.75" lengthAdjust="spacing" textLength="162.5" x="446.875" y="1495.9338">setXYForVisualCentroids()</text><rect fill="#F24D5C" height="7.5" style="stroke:#C82930;stroke-width:1.25;" width="7.5" x="431.875" y="1503.9551"/><text fill="#000000" font-family="sans-serif" font-size="13.75" lengthAdjust="spacing" textLength="156.25" x="446.875" y="1513.2288">showCircleForCentroids()</text><!--MD5=[c5626ac6ea7417fa3ba883bc6ce8c57e]
class MainCode.InSetData.Node--><rect fill="#FEFECE" filter="url(#ftb8wmnzel0sz)" height="60" id="MainCode.InSetData.Node" style="stroke:#A80036;stroke-width:1.875;" width="77.5" x="796.25" y="1288.4766"/><ellipse cx="815" cy="1308.4766" fill="#ADD1B2" rx="13.75" ry="13.75" style="stroke:#A80036;stroke-width:1.25;"/><path d="M817.5,1304.1016 Q817.7539,1303.4766 818.0469,1303.1641 Q818.3398,1302.8516 818.6719,1302.8516 Q819.2578,1302.8516 819.6289,1303.2031 Q820,1303.5547 820,1304.375 L820,1306.3281 Q820,1307.1484 819.6484,1307.5 Q819.2969,1307.8516 818.75,1307.8516 Q818.2617,1307.8516 817.9492,1307.6367 Q817.6367,1307.4219 817.5,1306.8555 Q817.4414,1306.4648 817.2266,1306.25 Q816.8359,1305.8398 816.1328,1305.6055 Q815.4297,1305.3516 814.7266,1305.3516 Q813.8477,1305.3516 813.1055,1305.7031 Q812.3828,1306.0547 811.8164,1306.8359 Q811.25,1307.6172 811.25,1308.6914 L811.25,1309.8438 Q811.25,1311.1328 812.3047,1311.9922 Q813.3594,1312.8516 815.2344,1312.8516 Q816.3477,1312.8516 817.1289,1312.5977 Q817.5781,1312.4609 818.0859,1312.0117 Q818.418,1311.7578 818.5938,1311.6797 Q818.7695,1311.6016 818.9844,1311.6016 Q819.3945,1311.6016 819.6875,1311.9336 Q820,1312.2461 820,1312.6953 Q820,1313.125 819.5703,1313.6328 Q818.9453,1314.375 817.9492,1314.7852 Q816.6406,1315.3516 815.0391,1315.3516 Q813.1641,1315.3516 811.6602,1314.6094 Q810.4492,1314.0234 809.5898,1312.7539 Q808.75,1311.4844 808.75,1309.9805 L808.75,1308.6133 Q808.75,1307.0508 809.4922,1305.6836 Q810.2539,1304.3164 811.5625,1303.5938 Q812.8906,1302.8516 814.375,1302.8516 Q815.2734,1302.8516 816.0547,1303.1641 Q816.8359,1303.4766 817.5,1304.1016 Z " fill="#000000"/><text fill="#000000" font-family="sans-serif" font-size="15" lengthAdjust="spacing" textLength="37.5" x="832.5" y="1314.6143">Node</text><line style="stroke:#A80036;stroke-width:1.875;" x1="797.5" x2="872.5" y1="1328.4766" y2="1328.4766"/><line style="stroke:#A80036;stroke-width:1.875;" x1="797.5" x2="872.5" y1="1338.4766" y2="1338.4766"/><!--MD5=[95d3b66dc162223af976d91598873ada]
reverse link MainCode.ClusteringAlgorithm.AbstractClustering to MainCode.ClusteringAlgorithm.KMAndMSGeneral--><path codeLine="133" d="M316.2125,680.8141 C309.1,704.7516 302.15,728.1266 295.6875,749.8766 " fill="none" id="MainCode.ClusteringAlgorithm.AbstractClustering-backto-MainCode.ClusteringAlgorithm.KMAndMSGeneral" style="stroke:#A80036;stroke-width:1.25;"/><polygon fill="none" points="307.8625,678.2016,323.375,656.7266,324.6375,683.1891,307.8625,678.2016" style="stroke:#A80036;stroke-width:1.25;"/><!--MD5=[1d0650b372a028613f3b84e9725800e7]
reverse link MainCode.ClusteringAlgorithm.KMAndMSGeneral to MainCode.ClusteringAlgorithm.KMeans--><path codeLine="134" d="M246.9,1025.7641 C244.625,1054.4641 242.2,1084.9766 239.8125,1115.0391 " fill="none" id="MainCode.ClusteringAlgorithm.KMAndMSGeneral-backto-MainCode.ClusteringAlgorithm.KMeans" style="stroke:#A80036;stroke-width:1.25;"/><polygon fill="none" points="238.2,1024.7391,248.9125,1000.5141,255.65,1026.1266,238.2,1024.7391" style="stroke:#A80036;stroke-width:1.25;"/><!--MD5=[f302681acc89753eb85f7dc52c2c8487]
reverse link MainCode.ClusteringAlgorithm.AbstractClustering to MainCode.ClusteringAlgorithm.KNearestNeighbor--><path codeLine="135" d="M485.8,680.9766 C491.675,698.6391 497.4375,716.0016 502.975,732.6266 " fill="none" id="MainCode.ClusteringAlgorithm.AbstractClustering-backto-MainCode.ClusteringAlgorithm.KNearestNeighbor" style="stroke:#A80036;stroke-width:1.25;"/><polygon fill="none" points="477.325,683.2141,477.7375,656.7266,493.925,677.7016,477.325,683.2141" style="stroke:#A80036;stroke-width:1.25;"/><!--MD5=[05356bdae02b1be86347eaf12456cee4]
reverse link MainCode.ClusteringAlgorithm.KNearestNeighbor to MainCode.InSetData.Node--><path codeLine="136" d="M660.4375,1031.5391 C679.425,1059.2016 698.6875,1087.9391 716.25,1115.3516 C754.975,1175.7766 796.75,1248.8391 818.9625,1288.3891 " fill="none" id="MainCode.ClusteringAlgorithm.KNearestNeighbor-backto-MainCode.InSetData.Node" style="stroke:#A80036;stroke-width:1.25;"/><polygon fill="#FFFFFF" points="651.15,1018.0516,651.2874,1027.0644,659.6598,1030.404,659.5224,1021.3912,651.15,1018.0516" style="stroke:#A80036;stroke-width:1.25;"/><text fill="#000000" font-family="sans-serif" font-size="16.25" lengthAdjust="spacing" textLength="66.25" x="691.25" y="1073.4705">centroids</text><!--MD5=[b1944705ce6fb43c9413118b9521c70f]
reverse link MainCode.ClusteringAlgorithm.KMAndMSGeneral to MainCode.ClusteringAlgorithm.MeanShift--><path codeLine="137" d="M357.4375,1021.5516 C377.9875,1051.7391 400.0125,1084.0766 421.6625,1115.8766 " fill="none" id="MainCode.ClusteringAlgorithm.KMAndMSGeneral-backto-MainCode.ClusteringAlgorithm.MeanShift" style="stroke:#A80036;stroke-width:1.25;"/><polygon fill="none" points="349.95,1026.1016,343.1125,1000.5141,364.4125,1016.2516,349.95,1026.1016" style="stroke:#A80036;stroke-width:1.25;"/><text fill="#888888" font-family="sans-serif" font-size="12.5" lengthAdjust="spacing" textLength="0" x="978.75" y="1592.0776"/><text fill="#888888" font-family="sans-serif" font-size="12.5" lengthAdjust="spacing" textLength="0" x="978.75" y="1607.8003"/><text fill="#888888" font-family="sans-serif" font-size="12.5" lengthAdjust="spacing" textLength="490" x="488.75" y="1623.5229">PlantUML diagram generated by SketchIt! (https://bitbucket.org/pmesmeur/sketch.it)</text><text fill="#888888" font-family="sans-serif" font-size="12.5" lengthAdjust="spacing" textLength="492.5" x="486.25" y="1639.2456">For more information about this tool, please contact philippe.mesmeur@gmail.com</text><!--MD5=[96dff11b4b368f4c29b87753b0f14f66]
@startuml

title __CLUSTERINGALGORITHM's Class Diagram__\n

  namespace MainCode {
    namespace ClusteringAlgorithm {
      abstract class MainCode.ClusteringAlgorithm.AbstractClustering {
          + FINAL_COLOR : Color
          {static} + KM_CENTRAL_NODE_RADIUS : int
          {static} + KNN_CENTRAL_NODE_RADIUS : int
          {static} + MS_CENTRAL_NODE_RADIUS : int
          {static} + MS_CIRCLE_AROUND_CENTROIDS_RADIUS : int
          {static} + NORMAL_NODE_RADIUS : int
          {static} # MAX_RUN : int
          # k : int
          # listOfNodes : ArrayList<Node>
          # st : ArrayList<SequentialTransition>
          - f : FillTransition
          - p : ParallelTransition
          + addANodeToListOfNodes()
          + addNodesToListOfNodes()
          {abstract} + addSomeNodeToListOfNode()
          + getListOfNodes()
          {abstract} + initListOfNodes()
          + overrideListOfNodes()
          + printListOfNodes()
          + removeSomeNodeInListOfNode()
          {abstract} + startSort()
          # distanceOfTwoNodes()
          # fillTransionShape()
          # initK()
          ~ colorShape()
      }
    }
  }
  

  namespace MainCode {
    namespace ClusteringAlgorithm {
      abstract class MainCode.ClusteringAlgorithm.KMAndMSGeneral {
          # centroidVisual : Circle[]
          # centroids : Node[]
          # currentXForVisual : double[]
          # currentYForVisual : double[]
          # nextXForVisual : double[]
          # nextYForVisual : double[]
          + initListOfNodes()
          {abstract} + startSort()
          # checkStopCondition()
          # drawCentroids()
          # initXYForVisual()
      }
    }
  }
  

  namespace MainCode {
    namespace ClusteringAlgorithm {
      class MainCode.ClusteringAlgorithm.KMeans {
          ~ bestClustered : List<Node>[]
          ~ clusteredNodes : List<Node>[]
          + addSomeNodeToListOfNode()
          + initListOfNodes()
          + startSort()
          # repositionCentroidsVisual()
          - addNodesToCluster()
          - clearClusteredNodes()
          - copyClusteredNodesToBestClusteredNodes()
          - hideCentroids()
          - initBestCluster()
          - initCentroids()
          - initCluster()
          - moveCentroids()
          - recolorNodeInBestCluster()
          - recolorNodeInCluster()
          - recolorNodeToBlack()
          - repositionCentroid()
          - setXYForVisualCentroids()
          - totalVariationOfCluster()
      }
    }
  }
  

  namespace MainCode {
    namespace ClusteringAlgorithm {
      class MainCode.ClusteringAlgorithm.KNearestNeighbor {
          - distance : double[]
          - lines : Line[]
          - neighbors : Node[]
          + addSomeNodeToListOfNode()
          + initListOfNodes()
          + startSort()
          - calculatingDistanceFromCentroidToNodes()
          - drawCentroids()
          - initCentroids()
          - initLines()
          - removeLines()
          - showLines()
          - voting()
      }
    }
  }
  

  namespace MainCode {
    namespace ClusteringAlgorithm {
      class MainCode.ClusteringAlgorithm.MeanShift {
          - blackList : ArrayList<double[]>
          - circleAroundCentroid : Circle[]
          - minPointArgument : int
          - nodeBelongToCircle : ArrayList<Node>[]
          - totalDistanceMoved : int[]
          + addSomeNodeToListOfNode()
          + initListOfNodes()
          + startSort()
          - getNodesBelongToCircle()
          - hideCircleForCentroids()
          - initCentroids()
          - initCircleForCentroids()
          - initTotalDistanceMoved()
          - minPointArgumentCalculate()
          - moveCentroids()
          - printTotalDistanceMoved()
          - repositionCentroids1()
          - repositionCentroids2()
          - setXYForVisualCentroids()
          - showCircleForCentroids()
      }
    }
  }
  

  MainCode.ClusteringAlgorithm.KMAndMSGeneral -up-|> MainCode.ClusteringAlgorithm.AbstractClustering
  MainCode.ClusteringAlgorithm.KMeans -up-|> MainCode.ClusteringAlgorithm.KMAndMSGeneral
  MainCode.ClusteringAlgorithm.KNearestNeighbor -up-|> MainCode.ClusteringAlgorithm.AbstractClustering
  MainCode.ClusteringAlgorithm.KNearestNeighbor o- - MainCode.InSetData.Node : centroids
  MainCode.ClusteringAlgorithm.MeanShift -up-|> MainCode.ClusteringAlgorithm.KMAndMSGeneral


right footer


PlantUML diagram generated by SketchIt! (https://bitbucket.org/pmesmeur/sketch.it)
For more information about this tool, please contact philippe.mesmeur@gmail.com
endfooter

@enduml

PlantUML version 1.2021.00(Sun Jan 10 17:25:05 ICT 2021)
(GPL source distribution)
Java Runtime: OpenJDK Runtime Environment
JVM: OpenJDK 64-Bit Server VM
Default Encoding: Cp1252
Language: en
Country: US
--></g></svg>