<?xml version="1.0" encoding="UTF-8" standalone="no"?><svg xmlns="http://www.w3.org/2000/svg" xmlns:xlink="http://www.w3.org/1999/xlink" contentScriptType="application/ecmascript" contentStyleType="text/css" height="575px" preserveAspectRatio="none" style="width:501px;height:575px;" version="1.1" viewBox="0 0 501 575" width="501.25px" zoomAndPan="magnify"><defs><filter height="300%" id="f6nkzild2tgcg" width="300%" x="-1" y="-1"><feGaussianBlur result="blurOut" stdDeviation="2.5"/><feColorMatrix in="blurOut" result="blurOut2" type="matrix" values="0 0 0 0 0 0 0 0 0 0 0 0 0 0 0 0 0 0 .4 0"/><feOffset dx="5.0" dy="5.0" in="blurOut2" result="blurOut3"/><feBlend in="SourceGraphic" in2="blurOut3" mode="normal"/></filter></defs><g><text fill="#000000" font-family="sans-serif" font-size="22.5" lengthAdjust="spacing" text-decoration="underline" textLength="292.5" x="100" y="23.3569">INSETDATA's Class Diagram</text><text fill="#000000" font-family="sans-serif" font-size="22.5" lengthAdjust="spacing" textLength="0" x="249.375" y="51.6577"/><!--MD5=[b2031b1a8a393d7e2b81067e5168f2f9]
cluster MainCode--><polygon fill="#FFFFFF" filter="url(#f6nkzild2tgcg)" points="124.375,219.1016,220.625,219.1016,229.375,248.6133,381.875,248.6133,381.875,497.8516,124.375,497.8516,124.375,219.1016" style="stroke:#000000;stroke-width:1.875;"/><line style="stroke:#000000;stroke-width:1.875;" x1="124.375" x2="229.375" y1="248.6133" y2="248.6133"/><text fill="#000000" font-family="sans-serif" font-size="17.5" font-weight="bold" lengthAdjust="spacing" textLength="88.75" x="129.375" y="239.7681">MainCode</text><!--MD5=[efacd1637c727b3c7211f21bf1598582]
cluster MainCode.InSetData--><polygon fill="#FFFFFF" filter="url(#f6nkzild2tgcg)" points="154.375,274.1016,245.625,274.1016,254.375,303.6133,351.875,303.6133,351.875,467.8516,154.375,467.8516,154.375,274.1016" style="stroke:#000000;stroke-width:1.875;"/><line style="stroke:#000000;stroke-width:1.875;" x1="154.375" x2="254.375" y1="303.6133" y2="303.6133"/><text fill="#000000" font-family="sans-serif" font-size="17.5" font-weight="bold" lengthAdjust="spacing" textLength="83.75" x="159.375" y="294.7681">InSetData</text><!--MD5=[832cfce525ca280bda851355cc57458b]
cluster javafx.scene.shape--><polygon fill="#FFFFFF" filter="url(#f6nkzild2tgcg)" points="193.125,64.1016,370.625,64.1016,379.375,93.6133,383.125,93.6133,383.125,189.1016,193.125,189.1016,193.125,64.1016" style="stroke:#000000;stroke-width:1.875;"/><line style="stroke:#000000;stroke-width:1.875;" x1="193.125" x2="379.375" y1="93.6133" y2="93.6133"/><text fill="#000000" font-family="sans-serif" font-size="17.5" font-weight="bold" lengthAdjust="spacing" textLength="170" x="198.125" y="84.7681">javafx.scene.shape</text><!--MD5=[c5626ac6ea7417fa3ba883bc6ce8c57e]
class MainCode.InSetData.Node--><rect codeLine="6" fill="#FEFECE" filter="url(#f6nkzild2tgcg)" height="129.1797" id="MainCode.InSetData.Node" style="stroke:#A80036;stroke-width:1.875;" width="157.5" x="174.375" y="319.1016"/><ellipse cx="229.125" cy="339.1016" fill="#ADD1B2" rx="13.75" ry="13.75" style="stroke:#A80036;stroke-width:1.25;"/><path d="M231.625,334.7266 Q231.8789,334.1016 232.1719,333.7891 Q232.4648,333.4766 232.7969,333.4766 Q233.3828,333.4766 233.7539,333.8281 Q234.125,334.1797 234.125,335 L234.125,336.9531 Q234.125,337.7734 233.7734,338.125 Q233.4219,338.4766 232.875,338.4766 Q232.3867,338.4766 232.0742,338.2617 Q231.7617,338.0469 231.625,337.4805 Q231.5664,337.0898 231.3516,336.875 Q230.9609,336.4648 230.2578,336.2305 Q229.5547,335.9766 228.8516,335.9766 Q227.9727,335.9766 227.2305,336.3281 Q226.5078,336.6797 225.9414,337.4609 Q225.375,338.2422 225.375,339.3164 L225.375,340.4688 Q225.375,341.7578 226.4297,342.6172 Q227.4844,343.4766 229.3594,343.4766 Q230.4727,343.4766 231.2539,343.2227 Q231.7031,343.0859 232.2109,342.6367 Q232.543,342.3828 232.7188,342.3047 Q232.8945,342.2266 233.1094,342.2266 Q233.5195,342.2266 233.8125,342.5586 Q234.125,342.8711 234.125,343.3203 Q234.125,343.75 233.6953,344.2578 Q233.0703,345 232.0742,345.4102 Q230.7656,345.9766 229.1641,345.9766 Q227.2891,345.9766 225.7852,345.2344 Q224.5742,344.6484 223.7148,343.3789 Q222.875,342.1094 222.875,340.6055 L222.875,339.2383 Q222.875,337.6758 223.6172,336.3086 Q224.3789,334.9414 225.6875,334.2188 Q227.0156,333.4766 228.5,333.4766 Q229.3984,333.4766 230.1797,333.7891 Q230.9609,334.1016 231.625,334.7266 Z " fill="#000000"/><text fill="#000000" font-family="sans-serif" font-size="15" lengthAdjust="spacing" textLength="37.5" x="254.625" y="345.2393">Node</text><line style="stroke:#A80036;stroke-width:1.875;" x1="175.625" x2="330.625" y1="359.1016" y2="359.1016"/><rect fill="none" height="7.5" style="stroke:#C82930;stroke-width:1.25;" width="7.5" x="184.375" y="369.1016"/><text fill="#000000" font-family="sans-serif" font-size="13.75" lengthAdjust="spacing" textLength="125" x="199.375" y="378.3752">nameOfNode : String</text><line style="stroke:#A80036;stroke-width:1.875;" x1="175.625" x2="330.625" y1="386.3965" y2="386.3965"/><ellipse cx="188.125" cy="400.1465" fill="#84BE84" rx="3.75" ry="3.75" style="stroke:#038048;stroke-width:1.25;"/><text fill="#000000" font-family="sans-serif" font-size="13.75" lengthAdjust="spacing" textLength="41.25" x="199.375" y="405.6702">Node()</text><ellipse cx="188.125" cy="417.4414" fill="#84BE84" rx="3.75" ry="3.75" style="stroke:#038048;stroke-width:1.25;"/><text fill="#000000" font-family="sans-serif" font-size="13.75" lengthAdjust="spacing" textLength="108.75" x="199.375" y="422.9651">getNameOfNode()</text><ellipse cx="188.125" cy="434.7363" fill="#84BE84" rx="3.75" ry="3.75" style="stroke:#038048;stroke-width:1.25;"/><text fill="#000000" font-family="sans-serif" font-size="13.75" lengthAdjust="spacing" textLength="108.75" x="199.375" y="440.26">setNameOfNode()</text><!--MD5=[5670e7cb7c152ac72a1c0084cfffe9d8]
class javafx.scene.shape.Circle--><rect fill="#FEFECE" filter="url(#f6nkzild2tgcg)" height="60" id="javafx.scene.shape.Circle" style="stroke:#A80036;stroke-width:1.875;" width="80" x="213.125" y="109.1016"/><ellipse cx="231.875" cy="129.1016" fill="#ADD1B2" rx="13.75" ry="13.75" style="stroke:#A80036;stroke-width:1.25;"/><path d="M234.375,124.7266 Q234.6289,124.1016 234.9219,123.7891 Q235.2148,123.4766 235.5469,123.4766 Q236.1328,123.4766 236.5039,123.8281 Q236.875,124.1797 236.875,125 L236.875,126.9531 Q236.875,127.7734 236.5234,128.125 Q236.1719,128.4766 235.625,128.4766 Q235.1367,128.4766 234.8242,128.2617 Q234.5117,128.0469 234.375,127.4805 Q234.3164,127.0898 234.1016,126.875 Q233.7109,126.4648 233.0078,126.2305 Q232.3047,125.9766 231.6016,125.9766 Q230.7227,125.9766 229.9805,126.3281 Q229.2578,126.6797 228.6914,127.4609 Q228.125,128.2422 228.125,129.3164 L228.125,130.4688 Q228.125,131.7578 229.1797,132.6172 Q230.2344,133.4766 232.1094,133.4766 Q233.2227,133.4766 234.0039,133.2227 Q234.4531,133.0859 234.9609,132.6367 Q235.293,132.3828 235.4688,132.3047 Q235.6445,132.2266 235.8594,132.2266 Q236.2695,132.2266 236.5625,132.5586 Q236.875,132.8711 236.875,133.3203 Q236.875,133.75 236.4453,134.2578 Q235.8203,135 234.8242,135.4102 Q233.5156,135.9766 231.9141,135.9766 Q230.0391,135.9766 228.5352,135.2344 Q227.3242,134.6484 226.4648,133.3789 Q225.625,132.1094 225.625,130.6055 L225.625,129.2383 Q225.625,127.6758 226.3672,126.3086 Q227.1289,124.9414 228.4375,124.2188 Q229.7656,123.4766 231.25,123.4766 Q232.1484,123.4766 232.9297,123.7891 Q233.7109,124.1016 234.375,124.7266 Z " fill="#000000"/><text fill="#000000" font-family="sans-serif" font-size="15" lengthAdjust="spacing" textLength="40" x="249.375" y="135.2393">Circle</text><line style="stroke:#A80036;stroke-width:1.875;" x1="214.375" x2="291.875" y1="149.1016" y2="149.1016"/><line style="stroke:#A80036;stroke-width:1.875;" x1="214.375" x2="291.875" y1="159.1016" y2="159.1016"/><!--MD5=[2485a16c46eb78e020edceeaa9d72d98]
reverse link javafx.scene.shape.Circle to MainCode.InSetData.Node--><path codeLine="16" d="M253.125,195.0016 C253.125,231.8141 253.125,280.4891 253.125,318.9766 " fill="none" id="javafx.scene.shape.Circle-backto-MainCode.InSetData.Node" style="stroke:#A80036;stroke-width:1.25;"/><polygon fill="none" points="244.375,194.5266,253.125,169.5266,261.875,194.5266,244.375,194.5266" style="stroke:#A80036;stroke-width:1.25;"/><text fill="#888888" font-family="sans-serif" font-size="12.5" lengthAdjust="spacing" textLength="0" x="492.5" y="518.3276"/><text fill="#888888" font-family="sans-serif" font-size="12.5" lengthAdjust="spacing" textLength="0" x="492.5" y="534.0503"/><text fill="#888888" font-family="sans-serif" font-size="12.5" lengthAdjust="spacing" textLength="490" x="2.5" y="549.7729">PlantUML diagram generated by SketchIt! (https://bitbucket.org/pmesmeur/sketch.it)</text><text fill="#888888" font-family="sans-serif" font-size="12.5" lengthAdjust="spacing" textLength="492.5" x="0" y="565.4956">For more information about this tool, please contact philippe.mesmeur@gmail.com</text><!--MD5=[c80aebf87a8b515dc868ef06c9cf12a8]
@startuml

title __INSETDATA's Class Diagram__\n

  namespace MainCode {
    namespace InSetData {
      class MainCode.InSetData.Node {
          - nameOfNode : String
          + Node()
          + getNameOfNode()
          + setNameOfNode()
      }
    }
  }
  

  MainCode.InSetData.Node -up-|> javafx.scene.shape.Circle


right footer


PlantUML diagram generated by SketchIt! (https://bitbucket.org/pmesmeur/sketch.it)
For more information about this tool, please contact philippe.mesmeur@gmail.com
endfooter

@enduml

PlantUML version 1.2021.00(Sun Jan 10 17:25:05 ICT 2021)
(GPL source distribution)
Java Runtime: OpenJDK Runtime Environment
JVM: OpenJDK 64-Bit Server VM
Default Encoding: Cp1252
Language: en
Country: US
--></g></svg>