<?xml version="1.0" encoding="UTF-8" standalone="no"?><svg xmlns="http://www.w3.org/2000/svg" xmlns:xlink="http://www.w3.org/1999/xlink" contentScriptType="application/ecmascript" contentStyleType="text/css" height="1222.5px" preserveAspectRatio="none" style="width:1771px;height:1222px;" version="1.1" viewBox="0 0 1771 1222" width="1771.25px" zoomAndPan="magnify"><defs><filter height="300%" id="f1kxpif91fq1yl" width="300%" x="-1" y="-1"><feGaussianBlur result="blurOut" stdDeviation="2.5"/><feColorMatrix in="blurOut" result="blurOut2" type="matrix" values="0 0 0 0 0 0 0 0 0 0 0 0 0 0 0 0 0 0 .4 0"/><feOffset dx="5.0" dy="5.0" in="blurOut2" result="blurOut3"/><feBlend in="SourceGraphic" in2="blurOut3" mode="normal"/></filter></defs><g><text fill="#000000" font-family="sans-serif" font-size="22.5" lengthAdjust="spacing" text-decoration="underline" textLength="225" x="765" y="23.3569">VER5's Class Diagram</text><text fill="#000000" font-family="sans-serif" font-size="22.5" lengthAdjust="spacing" textLength="0" x="880.625" y="51.6577"/><!--MD5=[b2031b1a8a393d7e2b81067e5168f2f9]
cluster MainCode--><polygon fill="#FFFFFF" filter="url(#f1kxpif91fq1yl)" points="240,230.3516,336.25,230.3516,345,259.8633,1718.75,259.8633,1718.75,1145.3516,240,1145.3516,240,230.3516" style="stroke:#000000;stroke-width:1.875;"/><line style="stroke:#000000;stroke-width:1.875;" x1="240" x2="345" y1="259.8633" y2="259.8633"/><text fill="#000000" font-family="sans-serif" font-size="17.5" font-weight="bold" lengthAdjust="spacing" textLength="88.75" x="245" y="251.0181">MainCode</text><!--MD5=[3f105b170190e3af24ae83e15e622de5]
cluster MainCode.ClusteringAlgorithm--><polygon fill="#FFFFFF" filter="url(#f1kxpif91fq1yl)" points="1270,415.3516,1452.5,415.3516,1461.25,444.8633,1688.75,444.8633,1688.75,946.6016,1270,946.6016,1270,415.3516" style="stroke:#000000;stroke-width:1.875;"/><line style="stroke:#000000;stroke-width:1.875;" x1="1270" x2="1461.25" y1="444.8633" y2="444.8633"/><text fill="#000000" font-family="sans-serif" font-size="17.5" font-weight="bold" lengthAdjust="spacing" textLength="175" x="1275" y="436.0181">ClusteringAlgorithm</text><!--MD5=[efacd1637c727b3c7211f21bf1598582]
cluster MainCode.InSetData--><polygon fill="#FFFFFF" filter="url(#f1kxpif91fq1yl)" points="270,766.6016,361.25,766.6016,370,796.1133,1240,796.1133,1240,1115.3516,270,1115.3516,270,766.6016" style="stroke:#000000;stroke-width:1.875;"/><line style="stroke:#000000;stroke-width:1.875;" x1="270" x2="370" y1="796.1133" y2="796.1133"/><text fill="#000000" font-family="sans-serif" font-size="17.5" font-weight="bold" lengthAdjust="spacing" textLength="83.75" x="275" y="787.2681">InSetData</text><!--MD5=[9ed48392bc820af335585fb1156492ea]
cluster MainCode.InSetData.GenerateNode--><polygon fill="#FFFFFF" filter="url(#f1kxpif91fq1yl)" points="387.5,821.6016,523.75,821.6016,532.5,851.1133,1210,851.1133,1210,1085.3516,387.5,1085.3516,387.5,821.6016" style="stroke:#000000;stroke-width:1.875;"/><line style="stroke:#000000;stroke-width:1.875;" x1="387.5" x2="532.5" y1="851.1133" y2="851.1133"/><text fill="#000000" font-family="sans-serif" font-size="17.5" font-weight="bold" lengthAdjust="spacing" textLength="128.75" x="392.5" y="842.2681">GenerateNode</text><!--MD5=[038b3b634a15bdf03051a317fd208e11]
cluster javafx.fxml--><polygon fill="#FFFFFF" filter="url(#f1kxpif91fq1yl)" points="1105,64.1016,1206.25,64.1016,1215,93.6133,1262.5,93.6133,1262.5,189.1016,1105,189.1016,1105,64.1016" style="stroke:#000000;stroke-width:1.875;"/><line style="stroke:#000000;stroke-width:1.875;" x1="1105" x2="1215" y1="93.6133" y2="93.6133"/><text fill="#000000" font-family="sans-serif" font-size="17.5" font-weight="bold" lengthAdjust="spacing" textLength="93.75" x="1110" y="84.7681">javafx.fxml</text><!--MD5=[832cfce525ca280bda851355cc57458b]
cluster javafx.scene.shape--><polygon fill="#FFFFFF" filter="url(#f1kxpif91fq1yl)" points="20,579.1016,197.5,579.1016,206.25,608.6133,210,608.6133,210,704.1016,20,704.1016,20,579.1016" style="stroke:#000000;stroke-width:1.875;"/><line style="stroke:#000000;stroke-width:1.875;" x1="20" x2="206.25" y1="608.6133" y2="608.6133"/><text fill="#000000" font-family="sans-serif" font-size="17.5" font-weight="bold" lengthAdjust="spacing" textLength="170" x="25" y="599.7681">javafx.scene.shape</text><!--MD5=[315bf7c36bcdbdaee5bb7549ab6e8767]
cluster javafx.application--><polygon fill="#FFFFFF" filter="url(#f1kxpif91fq1yl)" points="1576.25,64.1016,1737.5,64.1016,1746.25,93.6133,1750,93.6133,1750,189.1016,1576.25,189.1016,1576.25,64.1016" style="stroke:#000000;stroke-width:1.875;"/><line style="stroke:#000000;stroke-width:1.875;" x1="1576.25" x2="1746.25" y1="93.6133" y2="93.6133"/><text fill="#000000" font-family="sans-serif" font-size="17.5" font-weight="bold" lengthAdjust="spacing" textLength="153.75" x="1581.25" y="84.7681">javafx.application</text><!--MD5=[882ee3304463f7367a637e7659ef903a]
class MainCode.Controller--><rect codeLine="45" fill="#FEFECE" filter="url(#f1kxpif91fq1yl)" height="60" id="MainCode.Controller" style="stroke:#A80036;stroke-width:1.875;" width="107.5" x="1130" y="275.3516"/><ellipse cx="1148.75" cy="295.3516" fill="#ADD1B2" rx="13.75" ry="13.75" style="stroke:#A80036;stroke-width:1.25;"/><path d="M1151.25,290.9766 Q1151.5039,290.3516 1151.7969,290.0391 Q1152.0898,289.7266 1152.4219,289.7266 Q1153.0078,289.7266 1153.3789,290.0781 Q1153.75,290.4297 1153.75,291.25 L1153.75,293.2031 Q1153.75,294.0234 1153.3984,294.375 Q1153.0469,294.7266 1152.5,294.7266 Q1152.0117,294.7266 1151.6992,294.5117 Q1151.3867,294.2969 1151.25,293.7305 Q1151.1914,293.3398 1150.9766,293.125 Q1150.5859,292.7148 1149.8828,292.4805 Q1149.1797,292.2266 1148.4766,292.2266 Q1147.5977,292.2266 1146.8555,292.5781 Q1146.1328,292.9297 1145.5664,293.7109 Q1145,294.4922 1145,295.5664 L1145,296.7188 Q1145,298.0078 1146.0547,298.8672 Q1147.1094,299.7266 1148.9844,299.7266 Q1150.0977,299.7266 1150.8789,299.4727 Q1151.3281,299.3359 1151.8359,298.8867 Q1152.168,298.6328 1152.3438,298.5547 Q1152.5195,298.4766 1152.7344,298.4766 Q1153.1445,298.4766 1153.4375,298.8086 Q1153.75,299.1211 1153.75,299.5703 Q1153.75,300 1153.3203,300.5078 Q1152.6953,301.25 1151.6992,301.6602 Q1150.3906,302.2266 1148.7891,302.2266 Q1146.9141,302.2266 1145.4102,301.4844 Q1144.1992,300.8984 1143.3398,299.6289 Q1142.5,298.3594 1142.5,296.8555 L1142.5,295.4883 Q1142.5,293.9258 1143.2422,292.5586 Q1144.0039,291.1914 1145.3125,290.4688 Q1146.6406,289.7266 1148.125,289.7266 Q1149.0234,289.7266 1149.8047,290.0391 Q1150.5859,290.3516 1151.25,290.9766 Z " fill="#000000"/><text fill="#000000" font-family="sans-serif" font-size="15" lengthAdjust="spacing" textLength="67.5" x="1166.25" y="301.4893">Controller</text><line style="stroke:#A80036;stroke-width:1.875;" x1="1131.25" x2="1236.25" y1="315.3516" y2="315.3516"/><line style="stroke:#A80036;stroke-width:1.875;" x1="1131.25" x2="1236.25" y1="325.3516" y2="325.3516"/><!--MD5=[da8e1a5298732019b534a7b51e56be22]
class MainCode.HelpfullFunction--><rect codeLine="51" fill="#FEFECE" filter="url(#f1kxpif91fq1yl)" height="60" id="MainCode.HelpfullFunction" style="stroke:#A80036;stroke-width:1.875;" width="151.25" x="1430.625" y="275.3516"/><ellipse cx="1449.375" cy="295.3516" fill="#ADD1B2" rx="13.75" ry="13.75" style="stroke:#A80036;stroke-width:1.25;"/><path d="M1451.875,290.9766 Q1452.1289,290.3516 1452.4219,290.0391 Q1452.7148,289.7266 1453.0469,289.7266 Q1453.6328,289.7266 1454.0039,290.0781 Q1454.375,290.4297 1454.375,291.25 L1454.375,293.2031 Q1454.375,294.0234 1454.0234,294.375 Q1453.6719,294.7266 1453.125,294.7266 Q1452.6367,294.7266 1452.3242,294.5117 Q1452.0117,294.2969 1451.875,293.7305 Q1451.8164,293.3398 1451.6016,293.125 Q1451.2109,292.7148 1450.5078,292.4805 Q1449.8047,292.2266 1449.1016,292.2266 Q1448.2227,292.2266 1447.4805,292.5781 Q1446.7578,292.9297 1446.1914,293.7109 Q1445.625,294.4922 1445.625,295.5664 L1445.625,296.7188 Q1445.625,298.0078 1446.6797,298.8672 Q1447.7344,299.7266 1449.6094,299.7266 Q1450.7227,299.7266 1451.5039,299.4727 Q1451.9531,299.3359 1452.4609,298.8867 Q1452.793,298.6328 1452.9688,298.5547 Q1453.1445,298.4766 1453.3594,298.4766 Q1453.7695,298.4766 1454.0625,298.8086 Q1454.375,299.1211 1454.375,299.5703 Q1454.375,300 1453.9453,300.5078 Q1453.3203,301.25 1452.3242,301.6602 Q1451.0156,302.2266 1449.4141,302.2266 Q1447.5391,302.2266 1446.0352,301.4844 Q1444.8242,300.8984 1443.9648,299.6289 Q1443.125,298.3594 1443.125,296.8555 L1443.125,295.4883 Q1443.125,293.9258 1443.8672,292.5586 Q1444.6289,291.1914 1445.9375,290.4688 Q1447.2656,289.7266 1448.75,289.7266 Q1449.6484,289.7266 1450.4297,290.0391 Q1451.2109,290.3516 1451.875,290.9766 Z " fill="#000000"/><text fill="#000000" font-family="sans-serif" font-size="15" lengthAdjust="spacing" textLength="111.25" x="1466.875" y="301.4893">HelpfullFunction</text><line style="stroke:#A80036;stroke-width:1.875;" x1="1431.875" x2="1580.625" y1="315.3516" y2="315.3516"/><line style="stroke:#A80036;stroke-width:1.875;" x1="1431.875" x2="1580.625" y1="325.3516" y2="325.3516"/><!--MD5=[e4879c5e2a655238974ea3d74d83ae7a]
class MainCode.Launcher--><rect codeLine="115" fill="#FEFECE" filter="url(#f1kxpif91fq1yl)" height="60" id="MainCode.Launcher" style="stroke:#A80036;stroke-width:1.875;" width="105" x="1281.25" y="275.3516"/><ellipse cx="1300" cy="295.3516" fill="#ADD1B2" rx="13.75" ry="13.75" style="stroke:#A80036;stroke-width:1.25;"/><path d="M1302.5,290.9766 Q1302.7539,290.3516 1303.0469,290.0391 Q1303.3398,289.7266 1303.6719,289.7266 Q1304.2578,289.7266 1304.6289,290.0781 Q1305,290.4297 1305,291.25 L1305,293.2031 Q1305,294.0234 1304.6484,294.375 Q1304.2969,294.7266 1303.75,294.7266 Q1303.2617,294.7266 1302.9492,294.5117 Q1302.6367,294.2969 1302.5,293.7305 Q1302.4414,293.3398 1302.2266,293.125 Q1301.8359,292.7148 1301.1328,292.4805 Q1300.4297,292.2266 1299.7266,292.2266 Q1298.8477,292.2266 1298.1055,292.5781 Q1297.3828,292.9297 1296.8164,293.7109 Q1296.25,294.4922 1296.25,295.5664 L1296.25,296.7188 Q1296.25,298.0078 1297.3047,298.8672 Q1298.3594,299.7266 1300.2344,299.7266 Q1301.3477,299.7266 1302.1289,299.4727 Q1302.5781,299.3359 1303.0859,298.8867 Q1303.418,298.6328 1303.5938,298.5547 Q1303.7695,298.4766 1303.9844,298.4766 Q1304.3945,298.4766 1304.6875,298.8086 Q1305,299.1211 1305,299.5703 Q1305,300 1304.5703,300.5078 Q1303.9453,301.25 1302.9492,301.6602 Q1301.6406,302.2266 1300.0391,302.2266 Q1298.1641,302.2266 1296.6602,301.4844 Q1295.4492,300.8984 1294.5898,299.6289 Q1293.75,298.3594 1293.75,296.8555 L1293.75,295.4883 Q1293.75,293.9258 1294.4922,292.5586 Q1295.2539,291.1914 1296.5625,290.4688 Q1297.8906,289.7266 1299.375,289.7266 Q1300.2734,289.7266 1301.0547,290.0391 Q1301.8359,290.3516 1302.5,290.9766 Z " fill="#000000"/><text fill="#000000" font-family="sans-serif" font-size="15" lengthAdjust="spacing" textLength="65" x="1317.5" y="301.4893">Launcher</text><line style="stroke:#A80036;stroke-width:1.875;" x1="1282.5" x2="1385" y1="315.3516" y2="315.3516"/><line style="stroke:#A80036;stroke-width:1.875;" x1="1282.5" x2="1385" y1="325.3516" y2="325.3516"/><!--MD5=[ebb2f4c26e7ad1c1b3429a33687eccc9]
class MainCode.Main--><rect codeLine="121" fill="#FEFECE" filter="url(#f1kxpif91fq1yl)" height="60" id="MainCode.Main" style="stroke:#A80036;stroke-width:1.875;" width="72.5" x="1626.25" y="275.3516"/><ellipse cx="1645" cy="295.3516" fill="#ADD1B2" rx="13.75" ry="13.75" style="stroke:#A80036;stroke-width:1.25;"/><path d="M1647.5,290.9766 Q1647.7539,290.3516 1648.0469,290.0391 Q1648.3398,289.7266 1648.6719,289.7266 Q1649.2578,289.7266 1649.6289,290.0781 Q1650,290.4297 1650,291.25 L1650,293.2031 Q1650,294.0234 1649.6484,294.375 Q1649.2969,294.7266 1648.75,294.7266 Q1648.2617,294.7266 1647.9492,294.5117 Q1647.6367,294.2969 1647.5,293.7305 Q1647.4414,293.3398 1647.2266,293.125 Q1646.8359,292.7148 1646.1328,292.4805 Q1645.4297,292.2266 1644.7266,292.2266 Q1643.8477,292.2266 1643.1055,292.5781 Q1642.3828,292.9297 1641.8164,293.7109 Q1641.25,294.4922 1641.25,295.5664 L1641.25,296.7188 Q1641.25,298.0078 1642.3047,298.8672 Q1643.3594,299.7266 1645.2344,299.7266 Q1646.3477,299.7266 1647.1289,299.4727 Q1647.5781,299.3359 1648.0859,298.8867 Q1648.418,298.6328 1648.5938,298.5547 Q1648.7695,298.4766 1648.9844,298.4766 Q1649.3945,298.4766 1649.6875,298.8086 Q1650,299.1211 1650,299.5703 Q1650,300 1649.5703,300.5078 Q1648.9453,301.25 1647.9492,301.6602 Q1646.6406,302.2266 1645.0391,302.2266 Q1643.1641,302.2266 1641.6602,301.4844 Q1640.4492,300.8984 1639.5898,299.6289 Q1638.75,298.3594 1638.75,296.8555 L1638.75,295.4883 Q1638.75,293.9258 1639.4922,292.5586 Q1640.2539,291.1914 1641.5625,290.4688 Q1642.8906,289.7266 1644.375,289.7266 Q1645.2734,289.7266 1646.0547,290.0391 Q1646.8359,290.3516 1647.5,290.9766 Z " fill="#000000"/><text fill="#000000" font-family="sans-serif" font-size="15" lengthAdjust="spacing" textLength="32.5" x="1662.5" y="301.4893">Main</text><line style="stroke:#A80036;stroke-width:1.875;" x1="1627.5" x2="1697.5" y1="315.3516" y2="315.3516"/><line style="stroke:#A80036;stroke-width:1.875;" x1="1627.5" x2="1697.5" y1="325.3516" y2="325.3516"/><!--MD5=[3fc2dca49e3b3dd8ed7cd711ed5c50e9]
class MainCode.ClusteringAlgorithm.AbstractClustering--><rect codeLine="6" fill="#FEFECE" filter="url(#f1kxpif91fq1yl)" height="60" id="MainCode.ClusteringAlgorithm.AbstractClustering" style="stroke:#A80036;stroke-width:1.875;" width="166.25" x="1291.875" y="460.3516"/><ellipse cx="1310.625" cy="480.3516" fill="#A9DCDF" rx="13.75" ry="13.75" style="stroke:#A80036;stroke-width:1.25;"/><path d="M1312.8125,482.2266 L1308.6914,482.2266 L1308.1445,483.4766 L1308.1445,483.4766 L1308.7305,483.4766 L1309.375,484.2578 L1309.375,484.7266 L1309.375,485.1953 L1308.7305,485.9766 L1308.1445,485.9766 L1305.7813,485.9766 L1305.0195,485.9766 L1304.375,485.1953 L1304.375,484.7266 L1304.375,484.2578 L1305.0195,483.4766 L1305.7813,483.4766 L1308.6719,475.9766 L1307.5781,475.9766 L1306.2695,475.9766 L1305.625,475.1953 L1305.625,474.7266 L1305.625,474.2578 L1306.2695,473.4766 L1307.5781,473.4766 L1312.168,473.4766 L1315.5273,483.4766 L1316.2305,483.4766 L1316.2305,483.4766 L1316.875,484.2578 L1316.875,484.7266 L1316.875,485.1953 L1316.2305,485.9766 L1315.5273,485.9766 L1313.1641,485.9766 L1312.5195,485.9766 L1311.875,485.1953 L1311.875,484.7266 L1311.875,484.2578 L1312.5195,483.4766 L1313.1641,483.4766 L1313.1641,483.4766 L1312.8125,482.2266 Z M1312.1289,479.7266 L1310.625,475.2539 L1309.3359,479.7266 L1312.1289,479.7266 Z " fill="#000000"/><text fill="#000000" font-family="sans-serif" font-size="15" font-style="italic" lengthAdjust="spacing" textLength="126.25" x="1328.125" y="486.4893">AbstractClustering</text><line style="stroke:#A80036;stroke-width:1.875;" x1="1293.125" x2="1456.875" y1="500.3516" y2="500.3516"/><line style="stroke:#A80036;stroke-width:1.875;" x1="1293.125" x2="1456.875" y1="510.3516" y2="510.3516"/><!--MD5=[16b620ebc4200ee5ee41e1728191622a]
class MainCode.ClusteringAlgorithm.KMAndMSGeneral--><rect codeLine="14" fill="#FEFECE" filter="url(#f1kxpif91fq1yl)" height="60" id="MainCode.ClusteringAlgorithm.KMAndMSGeneral" style="stroke:#A80036;stroke-width:1.875;" width="165" x="1503.75" y="624.1016"/><ellipse cx="1522.5" cy="644.1016" fill="#A9DCDF" rx="13.75" ry="13.75" style="stroke:#A80036;stroke-width:1.25;"/><path d="M1524.6875,645.9766 L1520.5664,645.9766 L1520.0195,647.2266 L1520.0195,647.2266 L1520.6055,647.2266 L1521.25,648.0078 L1521.25,648.4766 L1521.25,648.9453 L1520.6055,649.7266 L1520.0195,649.7266 L1517.6563,649.7266 L1516.8945,649.7266 L1516.25,648.9453 L1516.25,648.4766 L1516.25,648.0078 L1516.8945,647.2266 L1517.6563,647.2266 L1520.5469,639.7266 L1519.4531,639.7266 L1518.1445,639.7266 L1517.5,638.9453 L1517.5,638.4766 L1517.5,638.0078 L1518.1445,637.2266 L1519.4531,637.2266 L1524.043,637.2266 L1527.4023,647.2266 L1528.1055,647.2266 L1528.1055,647.2266 L1528.75,648.0078 L1528.75,648.4766 L1528.75,648.9453 L1528.1055,649.7266 L1527.4023,649.7266 L1525.0391,649.7266 L1524.3945,649.7266 L1523.75,648.9453 L1523.75,648.4766 L1523.75,648.0078 L1524.3945,647.2266 L1525.0391,647.2266 L1525.0391,647.2266 L1524.6875,645.9766 Z M1524.0039,643.4766 L1522.5,639.0039 L1521.2109,643.4766 L1524.0039,643.4766 Z " fill="#000000"/><text fill="#000000" font-family="sans-serif" font-size="15" font-style="italic" lengthAdjust="spacing" textLength="125" x="1540" y="650.2393">KMAndMSGeneral</text><line style="stroke:#A80036;stroke-width:1.875;" x1="1505" x2="1667.5" y1="664.1016" y2="664.1016"/><line style="stroke:#A80036;stroke-width:1.875;" x1="1505" x2="1667.5" y1="674.1016" y2="674.1016"/><!--MD5=[74b59eb449cc10b2a6c2b39a7fb2a78a]
class MainCode.ClusteringAlgorithm.KMeans--><rect codeLine="22" fill="#FEFECE" filter="url(#f1kxpif91fq1yl)" height="60" id="MainCode.ClusteringAlgorithm.KMeans" style="stroke:#A80036;stroke-width:1.875;" width="96.25" x="1413.125" y="866.6016"/><ellipse cx="1431.875" cy="886.6016" fill="#ADD1B2" rx="13.75" ry="13.75" style="stroke:#A80036;stroke-width:1.25;"/><path d="M1434.375,882.2266 Q1434.6289,881.6016 1434.9219,881.2891 Q1435.2148,880.9766 1435.5469,880.9766 Q1436.1328,880.9766 1436.5039,881.3281 Q1436.875,881.6797 1436.875,882.5 L1436.875,884.4531 Q1436.875,885.2734 1436.5234,885.625 Q1436.1719,885.9766 1435.625,885.9766 Q1435.1367,885.9766 1434.8242,885.7617 Q1434.5117,885.5469 1434.375,884.9805 Q1434.3164,884.5898 1434.1016,884.375 Q1433.7109,883.9648 1433.0078,883.7305 Q1432.3047,883.4766 1431.6016,883.4766 Q1430.7227,883.4766 1429.9805,883.8281 Q1429.2578,884.1797 1428.6914,884.9609 Q1428.125,885.7422 1428.125,886.8164 L1428.125,887.9688 Q1428.125,889.2578 1429.1797,890.1172 Q1430.2344,890.9766 1432.1094,890.9766 Q1433.2227,890.9766 1434.0039,890.7227 Q1434.4531,890.5859 1434.9609,890.1367 Q1435.293,889.8828 1435.4688,889.8047 Q1435.6445,889.7266 1435.8594,889.7266 Q1436.2695,889.7266 1436.5625,890.0586 Q1436.875,890.3711 1436.875,890.8203 Q1436.875,891.25 1436.4453,891.7578 Q1435.8203,892.5 1434.8242,892.9102 Q1433.5156,893.4766 1431.9141,893.4766 Q1430.0391,893.4766 1428.5352,892.7344 Q1427.3242,892.1484 1426.4648,890.8789 Q1425.625,889.6094 1425.625,888.1055 L1425.625,886.7383 Q1425.625,885.1758 1426.3672,883.8086 Q1427.1289,882.4414 1428.4375,881.7188 Q1429.7656,880.9766 1431.25,880.9766 Q1432.1484,880.9766 1432.9297,881.2891 Q1433.7109,881.6016 1434.375,882.2266 Z " fill="#000000"/><text fill="#000000" font-family="sans-serif" font-size="15" lengthAdjust="spacing" textLength="56.25" x="1449.375" y="892.7393">KMeans</text><line style="stroke:#A80036;stroke-width:1.875;" x1="1414.375" x2="1508.125" y1="906.6016" y2="906.6016"/><line style="stroke:#A80036;stroke-width:1.875;" x1="1414.375" x2="1508.125" y1="916.6016" y2="916.6016"/><!--MD5=[16fb17108ced37403df2c566d0a08015]
class MainCode.ClusteringAlgorithm.KNearestNeighbor--><rect codeLine="30" fill="#FEFECE" filter="url(#f1kxpif91fq1yl)" height="60" id="MainCode.ClusteringAlgorithm.KNearestNeighbor" style="stroke:#A80036;stroke-width:1.875;" width="168.75" x="1290.625" y="624.1016"/><ellipse cx="1309.375" cy="644.1016" fill="#ADD1B2" rx="13.75" ry="13.75" style="stroke:#A80036;stroke-width:1.25;"/><path d="M1311.875,639.7266 Q1312.1289,639.1016 1312.4219,638.7891 Q1312.7148,638.4766 1313.0469,638.4766 Q1313.6328,638.4766 1314.0039,638.8281 Q1314.375,639.1797 1314.375,640 L1314.375,641.9531 Q1314.375,642.7734 1314.0234,643.125 Q1313.6719,643.4766 1313.125,643.4766 Q1312.6367,643.4766 1312.3242,643.2617 Q1312.0117,643.0469 1311.875,642.4805 Q1311.8164,642.0898 1311.6016,641.875 Q1311.2109,641.4648 1310.5078,641.2305 Q1309.8047,640.9766 1309.1016,640.9766 Q1308.2227,640.9766 1307.4805,641.3281 Q1306.7578,641.6797 1306.1914,642.4609 Q1305.625,643.2422 1305.625,644.3164 L1305.625,645.4688 Q1305.625,646.7578 1306.6797,647.6172 Q1307.7344,648.4766 1309.6094,648.4766 Q1310.7227,648.4766 1311.5039,648.2227 Q1311.9531,648.0859 1312.4609,647.6367 Q1312.793,647.3828 1312.9688,647.3047 Q1313.1445,647.2266 1313.3594,647.2266 Q1313.7695,647.2266 1314.0625,647.5586 Q1314.375,647.8711 1314.375,648.3203 Q1314.375,648.75 1313.9453,649.2578 Q1313.3203,650 1312.3242,650.4102 Q1311.0156,650.9766 1309.4141,650.9766 Q1307.5391,650.9766 1306.0352,650.2344 Q1304.8242,649.6484 1303.9648,648.3789 Q1303.125,647.1094 1303.125,645.6055 L1303.125,644.2383 Q1303.125,642.6758 1303.8672,641.3086 Q1304.6289,639.9414 1305.9375,639.2188 Q1307.2656,638.4766 1308.75,638.4766 Q1309.6484,638.4766 1310.4297,638.7891 Q1311.2109,639.1016 1311.875,639.7266 Z " fill="#000000"/><text fill="#000000" font-family="sans-serif" font-size="15" lengthAdjust="spacing" textLength="128.75" x="1326.875" y="650.2393">KNearestNeighbor</text><line style="stroke:#A80036;stroke-width:1.875;" x1="1291.875" x2="1458.125" y1="664.1016" y2="664.1016"/><line style="stroke:#A80036;stroke-width:1.875;" x1="1291.875" x2="1458.125" y1="674.1016" y2="674.1016"/><!--MD5=[c56c352f5361cd094006ab34ea2c31e2]
class MainCode.ClusteringAlgorithm.MeanShift--><rect codeLine="38" fill="#FEFECE" filter="url(#f1kxpif91fq1yl)" height="60" id="MainCode.ClusteringAlgorithm.MeanShift" style="stroke:#A80036;stroke-width:1.875;" width="107.5" x="1553.75" y="866.6016"/><ellipse cx="1572.5" cy="886.6016" fill="#ADD1B2" rx="13.75" ry="13.75" style="stroke:#A80036;stroke-width:1.25;"/><path d="M1575,882.2266 Q1575.2539,881.6016 1575.5469,881.2891 Q1575.8398,880.9766 1576.1719,880.9766 Q1576.7578,880.9766 1577.1289,881.3281 Q1577.5,881.6797 1577.5,882.5 L1577.5,884.4531 Q1577.5,885.2734 1577.1484,885.625 Q1576.7969,885.9766 1576.25,885.9766 Q1575.7617,885.9766 1575.4492,885.7617 Q1575.1367,885.5469 1575,884.9805 Q1574.9414,884.5898 1574.7266,884.375 Q1574.3359,883.9648 1573.6328,883.7305 Q1572.9297,883.4766 1572.2266,883.4766 Q1571.3477,883.4766 1570.6055,883.8281 Q1569.8828,884.1797 1569.3164,884.9609 Q1568.75,885.7422 1568.75,886.8164 L1568.75,887.9688 Q1568.75,889.2578 1569.8047,890.1172 Q1570.8594,890.9766 1572.7344,890.9766 Q1573.8477,890.9766 1574.6289,890.7227 Q1575.0781,890.5859 1575.5859,890.1367 Q1575.918,889.8828 1576.0938,889.8047 Q1576.2695,889.7266 1576.4844,889.7266 Q1576.8945,889.7266 1577.1875,890.0586 Q1577.5,890.3711 1577.5,890.8203 Q1577.5,891.25 1577.0703,891.7578 Q1576.4453,892.5 1575.4492,892.9102 Q1574.1406,893.4766 1572.5391,893.4766 Q1570.6641,893.4766 1569.1602,892.7344 Q1567.9492,892.1484 1567.0898,890.8789 Q1566.25,889.6094 1566.25,888.1055 L1566.25,886.7383 Q1566.25,885.1758 1566.9922,883.8086 Q1567.7539,882.4414 1569.0625,881.7188 Q1570.3906,880.9766 1571.875,880.9766 Q1572.7734,880.9766 1573.5547,881.2891 Q1574.3359,881.6016 1575,882.2266 Z " fill="#000000"/><text fill="#000000" font-family="sans-serif" font-size="15" lengthAdjust="spacing" textLength="67.5" x="1590" y="892.7393">MeanShift</text><line style="stroke:#A80036;stroke-width:1.875;" x1="1555" x2="1660" y1="906.6016" y2="906.6016"/><line style="stroke:#A80036;stroke-width:1.875;" x1="1555" x2="1660" y1="916.6016" y2="916.6016"/><!--MD5=[c5626ac6ea7417fa3ba883bc6ce8c57e]
class MainCode.InSetData.Node--><rect codeLine="108" fill="#FEFECE" filter="url(#f1kxpif91fq1yl)" height="60" id="MainCode.InSetData.Node" style="stroke:#A80036;stroke-width:1.875;" width="77.5" x="290" y="866.6016"/><ellipse cx="308.75" cy="886.6016" fill="#ADD1B2" rx="13.75" ry="13.75" style="stroke:#A80036;stroke-width:1.25;"/><path d="M311.25,882.2266 Q311.5039,881.6016 311.7969,881.2891 Q312.0898,880.9766 312.4219,880.9766 Q313.0078,880.9766 313.3789,881.3281 Q313.75,881.6797 313.75,882.5 L313.75,884.4531 Q313.75,885.2734 313.3984,885.625 Q313.0469,885.9766 312.5,885.9766 Q312.0117,885.9766 311.6992,885.7617 Q311.3867,885.5469 311.25,884.9805 Q311.1914,884.5898 310.9766,884.375 Q310.5859,883.9648 309.8828,883.7305 Q309.1797,883.4766 308.4766,883.4766 Q307.5977,883.4766 306.8555,883.8281 Q306.1328,884.1797 305.5664,884.9609 Q305,885.7422 305,886.8164 L305,887.9688 Q305,889.2578 306.0547,890.1172 Q307.1094,890.9766 308.9844,890.9766 Q310.0977,890.9766 310.8789,890.7227 Q311.3281,890.5859 311.8359,890.1367 Q312.168,889.8828 312.3438,889.8047 Q312.5195,889.7266 312.7344,889.7266 Q313.1445,889.7266 313.4375,890.0586 Q313.75,890.3711 313.75,890.8203 Q313.75,891.25 313.3203,891.7578 Q312.6953,892.5 311.6992,892.9102 Q310.3906,893.4766 308.7891,893.4766 Q306.9141,893.4766 305.4102,892.7344 Q304.1992,892.1484 303.3398,890.8789 Q302.5,889.6094 302.5,888.1055 L302.5,886.7383 Q302.5,885.1758 303.2422,883.8086 Q304.0039,882.4414 305.3125,881.7188 Q306.6406,880.9766 308.125,880.9766 Q309.0234,880.9766 309.8047,881.2891 Q310.5859,881.6016 311.25,882.2266 Z " fill="#000000"/><text fill="#000000" font-family="sans-serif" font-size="15" lengthAdjust="spacing" textLength="37.5" x="326.25" y="892.7393">Node</text><line style="stroke:#A80036;stroke-width:1.875;" x1="291.25" x2="366.25" y1="906.6016" y2="906.6016"/><line style="stroke:#A80036;stroke-width:1.875;" x1="291.25" x2="366.25" y1="916.6016" y2="916.6016"/><!--MD5=[9423c954acc0352f99e5505f6cdd5964]
class MainCode.InSetData.GenerateNode.AbstractGenerateNodes--><rect codeLine="59" fill="#FEFECE" filter="url(#f1kxpif91fq1yl)" height="60" id="MainCode.InSetData.GenerateNode.AbstractGenerateNodes" style="stroke:#A80036;stroke-width:1.875;" width="205" x="695" y="866.6016"/><ellipse cx="713.75" cy="886.6016" fill="#A9DCDF" rx="13.75" ry="13.75" style="stroke:#A80036;stroke-width:1.25;"/><path d="M715.9375,888.4766 L711.8164,888.4766 L711.2695,889.7266 L711.2695,889.7266 L711.8555,889.7266 L712.5,890.5078 L712.5,890.9766 L712.5,891.4453 L711.8555,892.2266 L711.2695,892.2266 L708.9063,892.2266 L708.1445,892.2266 L707.5,891.4453 L707.5,890.9766 L707.5,890.5078 L708.1445,889.7266 L708.9063,889.7266 L711.7969,882.2266 L710.7031,882.2266 L709.3945,882.2266 L708.75,881.4453 L708.75,880.9766 L708.75,880.5078 L709.3945,879.7266 L710.7031,879.7266 L715.293,879.7266 L718.6523,889.7266 L719.3555,889.7266 L719.3555,889.7266 L720,890.5078 L720,890.9766 L720,891.4453 L719.3555,892.2266 L718.6523,892.2266 L716.2891,892.2266 L715.6445,892.2266 L715,891.4453 L715,890.9766 L715,890.5078 L715.6445,889.7266 L716.2891,889.7266 L716.2891,889.7266 L715.9375,888.4766 Z M715.2539,885.9766 L713.75,881.5039 L712.4609,885.9766 L715.2539,885.9766 Z " fill="#000000"/><text fill="#000000" font-family="sans-serif" font-size="15" font-style="italic" lengthAdjust="spacing" textLength="165" x="731.25" y="892.7393">AbstractGenerateNodes</text><line style="stroke:#A80036;stroke-width:1.875;" x1="696.25" x2="898.75" y1="906.6016" y2="906.6016"/><line style="stroke:#A80036;stroke-width:1.875;" x1="696.25" x2="898.75" y1="916.6016" y2="916.6016"/><!--MD5=[16358d0dedcadad7fadb2c867d7f8d3e]
class MainCode.InSetData.GenerateNode.GenerateCentroids--><rect codeLine="69" fill="#FEFECE" filter="url(#f1kxpif91fq1yl)" height="60" id="MainCode.InSetData.GenerateNode.GenerateCentroids" style="stroke:#A80036;stroke-width:1.875;" width="171.25" x="445.625" y="866.6016"/><ellipse cx="464.375" cy="886.6016" fill="#ADD1B2" rx="13.75" ry="13.75" style="stroke:#A80036;stroke-width:1.25;"/><path d="M466.875,882.2266 Q467.1289,881.6016 467.4219,881.2891 Q467.7148,880.9766 468.0469,880.9766 Q468.6328,880.9766 469.0039,881.3281 Q469.375,881.6797 469.375,882.5 L469.375,884.4531 Q469.375,885.2734 469.0234,885.625 Q468.6719,885.9766 468.125,885.9766 Q467.6367,885.9766 467.3242,885.7617 Q467.0117,885.5469 466.875,884.9805 Q466.8164,884.5898 466.6016,884.375 Q466.2109,883.9648 465.5078,883.7305 Q464.8047,883.4766 464.1016,883.4766 Q463.2227,883.4766 462.4805,883.8281 Q461.7578,884.1797 461.1914,884.9609 Q460.625,885.7422 460.625,886.8164 L460.625,887.9688 Q460.625,889.2578 461.6797,890.1172 Q462.7344,890.9766 464.6094,890.9766 Q465.7227,890.9766 466.5039,890.7227 Q466.9531,890.5859 467.4609,890.1367 Q467.793,889.8828 467.9688,889.8047 Q468.1445,889.7266 468.3594,889.7266 Q468.7695,889.7266 469.0625,890.0586 Q469.375,890.3711 469.375,890.8203 Q469.375,891.25 468.9453,891.7578 Q468.3203,892.5 467.3242,892.9102 Q466.0156,893.4766 464.4141,893.4766 Q462.5391,893.4766 461.0352,892.7344 Q459.8242,892.1484 458.9648,890.8789 Q458.125,889.6094 458.125,888.1055 L458.125,886.7383 Q458.125,885.1758 458.8672,883.8086 Q459.6289,882.4414 460.9375,881.7188 Q462.2656,880.9766 463.75,880.9766 Q464.6484,880.9766 465.4297,881.2891 Q466.2109,881.6016 466.875,882.2266 Z " fill="#000000"/><text fill="#000000" font-family="sans-serif" font-size="15" lengthAdjust="spacing" textLength="131.25" x="481.875" y="892.7393">GenerateCentroids</text><line style="stroke:#A80036;stroke-width:1.875;" x1="446.875" x2="615.625" y1="906.6016" y2="906.6016"/><line style="stroke:#A80036;stroke-width:1.875;" x1="446.875" x2="615.625" y1="916.6016" y2="916.6016"/><!--MD5=[af44ba6cb90bbe2c3c4c9364bed78c04]
class MainCode.InSetData.GenerateNode.KMeansGenerateNodes--><rect codeLine="79" fill="#FEFECE" filter="url(#f1kxpif91fq1yl)" height="60" id="MainCode.InSetData.GenerateNode.KMeansGenerateNodes" style="stroke:#A80036;stroke-width:1.875;" width="206.25" x="408.125" y="1005.3516"/><ellipse cx="426.875" cy="1025.3516" fill="#ADD1B2" rx="13.75" ry="13.75" style="stroke:#A80036;stroke-width:1.25;"/><path d="M429.375,1020.9766 Q429.6289,1020.3516 429.9219,1020.0391 Q430.2148,1019.7266 430.5469,1019.7266 Q431.1328,1019.7266 431.5039,1020.0781 Q431.875,1020.4297 431.875,1021.25 L431.875,1023.2031 Q431.875,1024.0234 431.5234,1024.375 Q431.1719,1024.7266 430.625,1024.7266 Q430.1367,1024.7266 429.8242,1024.5117 Q429.5117,1024.2969 429.375,1023.7305 Q429.3164,1023.3398 429.1016,1023.125 Q428.7109,1022.7148 428.0078,1022.4805 Q427.3047,1022.2266 426.6016,1022.2266 Q425.7227,1022.2266 424.9805,1022.5781 Q424.2578,1022.9297 423.6914,1023.7109 Q423.125,1024.4922 423.125,1025.5664 L423.125,1026.7188 Q423.125,1028.0078 424.1797,1028.8672 Q425.2344,1029.7266 427.1094,1029.7266 Q428.2227,1029.7266 429.0039,1029.4727 Q429.4531,1029.3359 429.9609,1028.8867 Q430.293,1028.6328 430.4688,1028.5547 Q430.6445,1028.4766 430.8594,1028.4766 Q431.2695,1028.4766 431.5625,1028.8086 Q431.875,1029.1211 431.875,1029.5703 Q431.875,1030 431.4453,1030.5078 Q430.8203,1031.25 429.8242,1031.6602 Q428.5156,1032.2266 426.9141,1032.2266 Q425.0391,1032.2266 423.5352,1031.4844 Q422.3242,1030.8984 421.4648,1029.6289 Q420.625,1028.3594 420.625,1026.8555 L420.625,1025.4883 Q420.625,1023.9258 421.3672,1022.5586 Q422.1289,1021.1914 423.4375,1020.4688 Q424.7656,1019.7266 426.25,1019.7266 Q427.1484,1019.7266 427.9297,1020.0391 Q428.7109,1020.3516 429.375,1020.9766 Z " fill="#000000"/><text fill="#000000" font-family="sans-serif" font-size="15" lengthAdjust="spacing" textLength="166.25" x="444.375" y="1031.4893">KMeansGenerateNodes</text><line style="stroke:#A80036;stroke-width:1.875;" x1="409.375" x2="613.125" y1="1045.3516" y2="1045.3516"/><line style="stroke:#A80036;stroke-width:1.875;" x1="409.375" x2="613.125" y1="1055.3516" y2="1055.3516"/><!--MD5=[7a2836406f5079981422e133d4a01423]
class MainCode.InSetData.GenerateNode.KNearestNeighborGenerateNodes--><rect codeLine="89" fill="#FEFECE" filter="url(#f1kxpif91fq1yl)" height="60" id="MainCode.InSetData.GenerateNode.KNearestNeighborGenerateNodes" style="stroke:#A80036;stroke-width:1.875;" width="278.75" x="658.125" y="1005.3516"/><ellipse cx="676.875" cy="1025.3516" fill="#ADD1B2" rx="13.75" ry="13.75" style="stroke:#A80036;stroke-width:1.25;"/><path d="M679.375,1020.9766 Q679.6289,1020.3516 679.9219,1020.0391 Q680.2148,1019.7266 680.5469,1019.7266 Q681.1328,1019.7266 681.5039,1020.0781 Q681.875,1020.4297 681.875,1021.25 L681.875,1023.2031 Q681.875,1024.0234 681.5234,1024.375 Q681.1719,1024.7266 680.625,1024.7266 Q680.1367,1024.7266 679.8242,1024.5117 Q679.5117,1024.2969 679.375,1023.7305 Q679.3164,1023.3398 679.1016,1023.125 Q678.7109,1022.7148 678.0078,1022.4805 Q677.3047,1022.2266 676.6016,1022.2266 Q675.7227,1022.2266 674.9805,1022.5781 Q674.2578,1022.9297 673.6914,1023.7109 Q673.125,1024.4922 673.125,1025.5664 L673.125,1026.7188 Q673.125,1028.0078 674.1797,1028.8672 Q675.2344,1029.7266 677.1094,1029.7266 Q678.2227,1029.7266 679.0039,1029.4727 Q679.4531,1029.3359 679.9609,1028.8867 Q680.293,1028.6328 680.4688,1028.5547 Q680.6445,1028.4766 680.8594,1028.4766 Q681.2695,1028.4766 681.5625,1028.8086 Q681.875,1029.1211 681.875,1029.5703 Q681.875,1030 681.4453,1030.5078 Q680.8203,1031.25 679.8242,1031.6602 Q678.5156,1032.2266 676.9141,1032.2266 Q675.0391,1032.2266 673.5352,1031.4844 Q672.3242,1030.8984 671.4648,1029.6289 Q670.625,1028.3594 670.625,1026.8555 L670.625,1025.4883 Q670.625,1023.9258 671.3672,1022.5586 Q672.1289,1021.1914 673.4375,1020.4688 Q674.7656,1019.7266 676.25,1019.7266 Q677.1484,1019.7266 677.9297,1020.0391 Q678.7109,1020.3516 679.375,1020.9766 Z " fill="#000000"/><text fill="#000000" font-family="sans-serif" font-size="15" lengthAdjust="spacing" textLength="238.75" x="694.375" y="1031.4893">KNearestNeighborGenerateNodes</text><line style="stroke:#A80036;stroke-width:1.875;" x1="659.375" x2="935.625" y1="1045.3516" y2="1045.3516"/><line style="stroke:#A80036;stroke-width:1.875;" x1="659.375" x2="935.625" y1="1055.3516" y2="1055.3516"/><!--MD5=[53849dcf9ec6fdaca7e24223f05055d7]
class MainCode.InSetData.GenerateNode.MeanShiftGenerateNode--><rect codeLine="99" fill="#FEFECE" filter="url(#f1kxpif91fq1yl)" height="60" id="MainCode.InSetData.GenerateNode.MeanShiftGenerateNode" style="stroke:#A80036;stroke-width:1.875;" width="208.75" x="980.625" y="1005.3516"/><ellipse cx="999.375" cy="1025.3516" fill="#ADD1B2" rx="13.75" ry="13.75" style="stroke:#A80036;stroke-width:1.25;"/><path d="M1001.875,1020.9766 Q1002.1289,1020.3516 1002.4219,1020.0391 Q1002.7148,1019.7266 1003.0469,1019.7266 Q1003.6328,1019.7266 1004.0039,1020.0781 Q1004.375,1020.4297 1004.375,1021.25 L1004.375,1023.2031 Q1004.375,1024.0234 1004.0234,1024.375 Q1003.6719,1024.7266 1003.125,1024.7266 Q1002.6367,1024.7266 1002.3242,1024.5117 Q1002.0117,1024.2969 1001.875,1023.7305 Q1001.8164,1023.3398 1001.6016,1023.125 Q1001.2109,1022.7148 1000.5078,1022.4805 Q999.8047,1022.2266 999.1016,1022.2266 Q998.2227,1022.2266 997.4805,1022.5781 Q996.7578,1022.9297 996.1914,1023.7109 Q995.625,1024.4922 995.625,1025.5664 L995.625,1026.7188 Q995.625,1028.0078 996.6797,1028.8672 Q997.7344,1029.7266 999.6094,1029.7266 Q1000.7227,1029.7266 1001.5039,1029.4727 Q1001.9531,1029.3359 1002.4609,1028.8867 Q1002.793,1028.6328 1002.9688,1028.5547 Q1003.1445,1028.4766 1003.3594,1028.4766 Q1003.7695,1028.4766 1004.0625,1028.8086 Q1004.375,1029.1211 1004.375,1029.5703 Q1004.375,1030 1003.9453,1030.5078 Q1003.3203,1031.25 1002.3242,1031.6602 Q1001.0156,1032.2266 999.4141,1032.2266 Q997.5391,1032.2266 996.0352,1031.4844 Q994.8242,1030.8984 993.9648,1029.6289 Q993.125,1028.3594 993.125,1026.8555 L993.125,1025.4883 Q993.125,1023.9258 993.8672,1022.5586 Q994.6289,1021.1914 995.9375,1020.4688 Q997.2656,1019.7266 998.75,1019.7266 Q999.6484,1019.7266 1000.4297,1020.0391 Q1001.2109,1020.3516 1001.875,1020.9766 Z " fill="#000000"/><text fill="#000000" font-family="sans-serif" font-size="15" lengthAdjust="spacing" textLength="168.75" x="1016.875" y="1031.4893">MeanShiftGenerateNode</text><line style="stroke:#A80036;stroke-width:1.875;" x1="981.875" x2="1188.125" y1="1045.3516" y2="1045.3516"/><line style="stroke:#A80036;stroke-width:1.875;" x1="981.875" x2="1188.125" y1="1055.3516" y2="1055.3516"/><!--MD5=[31fa743df6c1bc332e3c7053163021f4]
class javafx.fxml.Initializable--><rect fill="#FEFECE" filter="url(#f1kxpif91fq1yl)" height="60" id="javafx.fxml.Initializable" style="stroke:#A80036;stroke-width:1.875;" width="116.25" x="1125.625" y="109.1016"/><ellipse cx="1144.375" cy="129.1016" fill="#ADD1B2" rx="13.75" ry="13.75" style="stroke:#A80036;stroke-width:1.25;"/><path d="M1146.875,124.7266 Q1147.1289,124.1016 1147.4219,123.7891 Q1147.7148,123.4766 1148.0469,123.4766 Q1148.6328,123.4766 1149.0039,123.8281 Q1149.375,124.1797 1149.375,125 L1149.375,126.9531 Q1149.375,127.7734 1149.0234,128.125 Q1148.6719,128.4766 1148.125,128.4766 Q1147.6367,128.4766 1147.3242,128.2617 Q1147.0117,128.0469 1146.875,127.4805 Q1146.8164,127.0898 1146.6016,126.875 Q1146.2109,126.4648 1145.5078,126.2305 Q1144.8047,125.9766 1144.1016,125.9766 Q1143.2227,125.9766 1142.4805,126.3281 Q1141.7578,126.6797 1141.1914,127.4609 Q1140.625,128.2422 1140.625,129.3164 L1140.625,130.4688 Q1140.625,131.7578 1141.6797,132.6172 Q1142.7344,133.4766 1144.6094,133.4766 Q1145.7227,133.4766 1146.5039,133.2227 Q1146.9531,133.0859 1147.4609,132.6367 Q1147.793,132.3828 1147.9688,132.3047 Q1148.1445,132.2266 1148.3594,132.2266 Q1148.7695,132.2266 1149.0625,132.5586 Q1149.375,132.8711 1149.375,133.3203 Q1149.375,133.75 1148.9453,134.2578 Q1148.3203,135 1147.3242,135.4102 Q1146.0156,135.9766 1144.4141,135.9766 Q1142.5391,135.9766 1141.0352,135.2344 Q1139.8242,134.6484 1138.9648,133.3789 Q1138.125,132.1094 1138.125,130.6055 L1138.125,129.2383 Q1138.125,127.6758 1138.8672,126.3086 Q1139.6289,124.9414 1140.9375,124.2188 Q1142.2656,123.4766 1143.75,123.4766 Q1144.6484,123.4766 1145.4297,123.7891 Q1146.2109,124.1016 1146.875,124.7266 Z " fill="#000000"/><text fill="#000000" font-family="sans-serif" font-size="15" lengthAdjust="spacing" textLength="76.25" x="1161.875" y="135.2393">Initializable</text><line style="stroke:#A80036;stroke-width:1.875;" x1="1126.875" x2="1240.625" y1="149.1016" y2="149.1016"/><line style="stroke:#A80036;stroke-width:1.875;" x1="1126.875" x2="1240.625" y1="159.1016" y2="159.1016"/><!--MD5=[5670e7cb7c152ac72a1c0084cfffe9d8]
class javafx.scene.shape.Circle--><rect fill="#FEFECE" filter="url(#f1kxpif91fq1yl)" height="60" id="javafx.scene.shape.Circle" style="stroke:#A80036;stroke-width:1.875;" width="80" x="110" y="624.1016"/><ellipse cx="128.75" cy="644.1016" fill="#ADD1B2" rx="13.75" ry="13.75" style="stroke:#A80036;stroke-width:1.25;"/><path d="M131.25,639.7266 Q131.5039,639.1016 131.7969,638.7891 Q132.0898,638.4766 132.4219,638.4766 Q133.0078,638.4766 133.3789,638.8281 Q133.75,639.1797 133.75,640 L133.75,641.9531 Q133.75,642.7734 133.3984,643.125 Q133.0469,643.4766 132.5,643.4766 Q132.0117,643.4766 131.6992,643.2617 Q131.3867,643.0469 131.25,642.4805 Q131.1914,642.0898 130.9766,641.875 Q130.5859,641.4648 129.8828,641.2305 Q129.1797,640.9766 128.4766,640.9766 Q127.5977,640.9766 126.8555,641.3281 Q126.1328,641.6797 125.5664,642.4609 Q125,643.2422 125,644.3164 L125,645.4688 Q125,646.7578 126.0547,647.6172 Q127.1094,648.4766 128.9844,648.4766 Q130.0977,648.4766 130.8789,648.2227 Q131.3281,648.0859 131.8359,647.6367 Q132.168,647.3828 132.3438,647.3047 Q132.5195,647.2266 132.7344,647.2266 Q133.1445,647.2266 133.4375,647.5586 Q133.75,647.8711 133.75,648.3203 Q133.75,648.75 133.3203,649.2578 Q132.6953,650 131.6992,650.4102 Q130.3906,650.9766 128.7891,650.9766 Q126.9141,650.9766 125.4102,650.2344 Q124.1992,649.6484 123.3398,648.3789 Q122.5,647.1094 122.5,645.6055 L122.5,644.2383 Q122.5,642.6758 123.2422,641.3086 Q124.0039,639.9414 125.3125,639.2188 Q126.6406,638.4766 128.125,638.4766 Q129.0234,638.4766 129.8047,638.7891 Q130.5859,639.1016 131.25,639.7266 Z " fill="#000000"/><text fill="#000000" font-family="sans-serif" font-size="15" lengthAdjust="spacing" textLength="40" x="146.25" y="650.2393">Circle</text><line style="stroke:#A80036;stroke-width:1.875;" x1="111.25" x2="188.75" y1="664.1016" y2="664.1016"/><line style="stroke:#A80036;stroke-width:1.875;" x1="111.25" x2="188.75" y1="674.1016" y2="674.1016"/><!--MD5=[e3612552781b2b3849880f2b7cc3064d]
class javafx.application.Application--><rect fill="#FEFECE" filter="url(#f1kxpif91fq1yl)" height="60" id="javafx.application.Application" style="stroke:#A80036;stroke-width:1.875;" width="115" x="1605" y="109.1016"/><ellipse cx="1623.75" cy="129.1016" fill="#ADD1B2" rx="13.75" ry="13.75" style="stroke:#A80036;stroke-width:1.25;"/><path d="M1626.25,124.7266 Q1626.5039,124.1016 1626.7969,123.7891 Q1627.0898,123.4766 1627.4219,123.4766 Q1628.0078,123.4766 1628.3789,123.8281 Q1628.75,124.1797 1628.75,125 L1628.75,126.9531 Q1628.75,127.7734 1628.3984,128.125 Q1628.0469,128.4766 1627.5,128.4766 Q1627.0117,128.4766 1626.6992,128.2617 Q1626.3867,128.0469 1626.25,127.4805 Q1626.1914,127.0898 1625.9766,126.875 Q1625.5859,126.4648 1624.8828,126.2305 Q1624.1797,125.9766 1623.4766,125.9766 Q1622.5977,125.9766 1621.8555,126.3281 Q1621.1328,126.6797 1620.5664,127.4609 Q1620,128.2422 1620,129.3164 L1620,130.4688 Q1620,131.7578 1621.0547,132.6172 Q1622.1094,133.4766 1623.9844,133.4766 Q1625.0977,133.4766 1625.8789,133.2227 Q1626.3281,133.0859 1626.8359,132.6367 Q1627.168,132.3828 1627.3438,132.3047 Q1627.5195,132.2266 1627.7344,132.2266 Q1628.1445,132.2266 1628.4375,132.5586 Q1628.75,132.8711 1628.75,133.3203 Q1628.75,133.75 1628.3203,134.2578 Q1627.6953,135 1626.6992,135.4102 Q1625.3906,135.9766 1623.7891,135.9766 Q1621.9141,135.9766 1620.4102,135.2344 Q1619.1992,134.6484 1618.3398,133.3789 Q1617.5,132.1094 1617.5,130.6055 L1617.5,129.2383 Q1617.5,127.6758 1618.2422,126.3086 Q1619.0039,124.9414 1620.3125,124.2188 Q1621.6406,123.4766 1623.125,123.4766 Q1624.0234,123.4766 1624.8047,123.7891 Q1625.5859,124.1016 1626.25,124.7266 Z " fill="#000000"/><text fill="#000000" font-family="sans-serif" font-size="15" lengthAdjust="spacing" textLength="75" x="1641.25" y="135.2393">Application</text><line style="stroke:#A80036;stroke-width:1.875;" x1="1606.25" x2="1718.75" y1="149.1016" y2="149.1016"/><line style="stroke:#A80036;stroke-width:1.875;" x1="1606.25" x2="1718.75" y1="159.1016" y2="159.1016"/><!--MD5=[95d3b66dc162223af976d91598873ada]
reverse link MainCode.ClusteringAlgorithm.AbstractClustering to MainCode.ClusteringAlgorithm.KMAndMSGeneral--><path codeLine="126" d="M1435.9,535.3391 C1450.825,546.2391 1466.6875,557.9891 1481.25,569.1016 C1504.6125,586.9266 1530.4125,607.4891 1550.5875,623.7766 " fill="none" id="MainCode.ClusteringAlgorithm.AbstractClustering-backto-MainCode.ClusteringAlgorithm.KMAndMSGeneral" style="stroke:#A80036;stroke-width:1.25;"/><polygon fill="none" points="1430.75,542.4016,1415.6625,520.6391,1441.0375,528.2516,1430.75,542.4016" style="stroke:#A80036;stroke-width:1.25;"/><!--MD5=[1d0650b372a028613f3b84e9725800e7]
reverse link MainCode.ClusteringAlgorithm.KMAndMSGeneral to MainCode.ClusteringAlgorithm.KMeans--><path codeLine="127" d="M1558.675,706.9766 C1550.225,722.8641 1540.9375,740.4391 1532.5,756.6016 C1512.7,794.5266 1490.2,838.4891 1475.875,866.5891 " fill="none" id="MainCode.ClusteringAlgorithm.KMAndMSGeneral-backto-MainCode.ClusteringAlgorithm.KMeans" style="stroke:#A80036;stroke-width:1.25;"/><polygon fill="none" points="1551.15,702.4891,1570.625,684.5391,1566.5875,710.7141,1551.15,702.4891" style="stroke:#A80036;stroke-width:1.25;"/><!--MD5=[f302681acc89753eb85f7dc52c2c8487]
reverse link MainCode.ClusteringAlgorithm.AbstractClustering to MainCode.ClusteringAlgorithm.KNearestNeighbor--><path codeLine="128" d="M1375,545.5766 C1375,571.6891 1375,602.0016 1375,623.7266 " fill="none" id="MainCode.ClusteringAlgorithm.AbstractClustering-backto-MainCode.ClusteringAlgorithm.KNearestNeighbor" style="stroke:#A80036;stroke-width:1.25;"/><polygon fill="none" points="1366.25,545.4266,1375,520.4266,1383.75,545.4266,1366.25,545.4266" style="stroke:#A80036;stroke-width:1.25;"/><!--MD5=[05356bdae02b1be86347eaf12456cee4]
reverse link MainCode.ClusteringAlgorithm.KNearestNeighbor to MainCode.InSetData.Node--><path codeLine="129" d="M1273.75,659.9391 C1036.1875,671.5016 457.7625,704.7016 387.5,756.6016 C352.3625,782.5516 338.0625,833.6891 332.375,866.1141 " fill="none" id="MainCode.ClusteringAlgorithm.KNearestNeighbor-backto-MainCode.InSetData.Node" style="stroke:#A80036;stroke-width:1.25;"/><polygon fill="#FFFFFF" points="1290.25,659.1391,1282.5221,654.499,1275.2668,659.8478,1282.9946,664.4879,1290.25,659.1391" style="stroke:#A80036;stroke-width:1.25;"/><text fill="#000000" font-family="sans-serif" font-size="16.25" lengthAdjust="spacing" textLength="66.25" x="505" y="742.2205">centroids</text><!--MD5=[b1944705ce6fb43c9413118b9521c70f]
reverse link MainCode.ClusteringAlgorithm.KMAndMSGeneral to MainCode.ClusteringAlgorithm.MeanShift--><path codeLine="130" d="M1591.0375,709.4641 C1595.3375,758.0391 1601.4875,827.5016 1604.925,866.3016 " fill="none" id="MainCode.ClusteringAlgorithm.KMAndMSGeneral-backto-MainCode.ClusteringAlgorithm.MeanShift" style="stroke:#A80036;stroke-width:1.25;"/><polygon fill="none" points="1582.3,709.9766,1588.8125,684.3016,1599.7375,708.4266,1582.3,709.9766" style="stroke:#A80036;stroke-width:1.25;"/><!--MD5=[a3ce29783190881fee16dfd9a3effd74]
reverse link javafx.fxml.Initializable to MainCode.Controller--><path codeLine="131" d="M1183.75,194.5391 C1183.75,221.3641 1183.75,252.6766 1183.75,274.9391 " fill="none" id="javafx.fxml.Initializable-backto-MainCode.Controller" style="stroke:#A80036;stroke-width:1.25;stroke-dasharray:7.0,7.0;"/><polygon fill="none" points="1175,194.2516,1183.75,169.2516,1192.5,194.2516,1175,194.2516" style="stroke:#A80036;stroke-width:1.25;"/><!--MD5=[c5690c6f106a40b28e8c6fd043345221]
reverse link MainCode.Controller to MainCode.ClusteringAlgorithm.AbstractClustering--><path codeLine="132" d="M1226.1125,347.0266 C1262.1,381.3641 1312.8625,429.8016 1344.8375,460.3141 " fill="none" id="MainCode.Controller-backto-MainCode.ClusteringAlgorithm.AbstractClustering" style="stroke:#A80036;stroke-width:1.25;"/><polygon fill="#FFFFFF" points="1214.05,335.5141,1216.0234,344.3093,1224.9011,345.8704,1222.9277,337.0752,1214.05,335.5141" style="stroke:#A80036;stroke-width:1.25;"/><text fill="#000000" font-family="sans-serif" font-size="16.25" lengthAdjust="spacing" textLength="131.25" x="1273.75" y="390.9705">abstractClustering</text><!--MD5=[b7c18e42304f5731d9e5ad31a7922411]
reverse link MainCode.InSetData.GenerateNode.AbstractGenerateNodes to MainCode.InSetData.GenerateNode.KMeansGenerateNodes--><path codeLine="133" d="M714.0125,937.5891 C668.5125,959.2516 613.2125,985.5641 571.875,1005.2516 " fill="none" id="MainCode.InSetData.GenerateNode.AbstractGenerateNodes-backto-MainCode.InSetData.GenerateNode.KMeansGenerateNodes" style="stroke:#A80036;stroke-width:1.25;"/><polygon fill="none" points="710.4625,929.5891,736.7875,926.7516,717.975,945.3891,710.4625,929.5891" style="stroke:#A80036;stroke-width:1.25;"/><!--MD5=[00ecf69d0eec2bff072d6b747bd6030a]
reverse link MainCode.InSetData.GenerateNode.AbstractGenerateNodes to MainCode.InSetData.GenerateNode.KNearestNeighborGenerateNodes--><path codeLine="134" d="M797.5,951.8141 C797.5,970.0641 797.5,989.7266 797.5,1005.2516 " fill="none" id="MainCode.InSetData.GenerateNode.AbstractGenerateNodes-backto-MainCode.InSetData.GenerateNode.KNearestNeighborGenerateNodes" style="stroke:#A80036;stroke-width:1.25;"/><polygon fill="none" points="788.75,951.7516,797.5,926.7516,806.25,951.7516,788.75,951.7516" style="stroke:#A80036;stroke-width:1.25;"/><!--MD5=[62c579503cf9db25335a2aafecad1765]
reverse link MainCode.InSetData.GenerateNode.AbstractGenerateNodes to MainCode.InSetData.GenerateNode.MeanShiftGenerateNode--><path codeLine="135" d="M881.35,937.5891 C927.05,959.2516 982.5875,985.5641 1024.1125,1005.2516 " fill="none" id="MainCode.InSetData.GenerateNode.AbstractGenerateNodes-backto-MainCode.InSetData.GenerateNode.MeanShiftGenerateNode" style="stroke:#A80036;stroke-width:1.25;"/><polygon fill="none" points="877.3125,945.3641,858.475,926.7516,884.8125,929.5516,877.3125,945.3641" style="stroke:#A80036;stroke-width:1.25;"/><!--MD5=[2485a16c46eb78e020edceeaa9d72d98]
reverse link javafx.scene.shape.Circle to MainCode.InSetData.Node--><path codeLine="136" d="M186.575,704.4516 C222.8375,753.1516 277.2125,826.1516 307.1125,866.3016 " fill="none" id="javafx.scene.shape.Circle-backto-MainCode.InSetData.Node" style="stroke:#A80036;stroke-width:1.25;"/><polygon fill="none" points="179.475,709.5766,171.5625,684.3016,193.5125,699.1266,179.475,709.5766" style="stroke:#A80036;stroke-width:1.25;"/><!--MD5=[175d3b6db32426d4b9b03b6615bcfb46]
reverse link javafx.application.Application to MainCode.Main--><path codeLine="137" d="M1662.5,194.5391 C1662.5,221.3641 1662.5,252.6766 1662.5,274.9391 " fill="none" id="javafx.application.Application-backto-MainCode.Main" style="stroke:#A80036;stroke-width:1.25;"/><polygon fill="none" points="1653.75,194.2516,1662.5,169.2516,1671.25,194.2516,1653.75,194.2516" style="stroke:#A80036;stroke-width:1.25;"/><text fill="#888888" font-family="sans-serif" font-size="12.5" lengthAdjust="spacing" textLength="0" x="1755" y="1165.8276"/><text fill="#888888" font-family="sans-serif" font-size="12.5" lengthAdjust="spacing" textLength="0" x="1755" y="1181.5503"/><text fill="#888888" font-family="sans-serif" font-size="12.5" lengthAdjust="spacing" textLength="490" x="1265" y="1197.2729">PlantUML diagram generated by SketchIt! (https://bitbucket.org/pmesmeur/sketch.it)</text><text fill="#888888" font-family="sans-serif" font-size="12.5" lengthAdjust="spacing" textLength="492.5" x="1262.5" y="1212.9956">For more information about this tool, please contact philippe.mesmeur@gmail.com</text><!--MD5=[2bc491e37b8a019fc1f31e720d570e51]
@startuml

title __VER5's Class Diagram__\n

  namespace MainCode {
    namespace ClusteringAlgorithm {
      abstract class MainCode.ClusteringAlgorithm.AbstractClustering {
      }
    }
  }
  

  namespace MainCode {
    namespace ClusteringAlgorithm {
      abstract class MainCode.ClusteringAlgorithm.KMAndMSGeneral {
      }
    }
  }
  

  namespace MainCode {
    namespace ClusteringAlgorithm {
      class MainCode.ClusteringAlgorithm.KMeans {
      }
    }
  }
  

  namespace MainCode {
    namespace ClusteringAlgorithm {
      class MainCode.ClusteringAlgorithm.KNearestNeighbor {
      }
    }
  }
  

  namespace MainCode {
    namespace ClusteringAlgorithm {
      class MainCode.ClusteringAlgorithm.MeanShift {
      }
    }
  }
  

  namespace MainCode {
    class MainCode.Controller {
    }
  }
  

  namespace MainCode {
    class MainCode.HelpfullFunction {
    }
  }
  

  namespace MainCode {
    namespace InSetData {
      namespace GenerateNode {
        abstract class MainCode.InSetData.GenerateNode.AbstractGenerateNodes {
        }
      }
    }
  }
  

  namespace MainCode {
    namespace InSetData {
      namespace GenerateNode {
        class MainCode.InSetData.GenerateNode.GenerateCentroids {
        }
      }
    }
  }
  

  namespace MainCode {
    namespace InSetData {
      namespace GenerateNode {
        class MainCode.InSetData.GenerateNode.KMeansGenerateNodes {
        }
      }
    }
  }
  

  namespace MainCode {
    namespace InSetData {
      namespace GenerateNode {
        class MainCode.InSetData.GenerateNode.KNearestNeighborGenerateNodes {
        }
      }
    }
  }
  

  namespace MainCode {
    namespace InSetData {
      namespace GenerateNode {
        class MainCode.InSetData.GenerateNode.MeanShiftGenerateNode {
        }
      }
    }
  }
  

  namespace MainCode {
    namespace InSetData {
      class MainCode.InSetData.Node {
      }
    }
  }
  

  namespace MainCode {
    class MainCode.Launcher {
    }
  }
  

  namespace MainCode {
    class MainCode.Main {
    }
  }
  

  MainCode.ClusteringAlgorithm.KMAndMSGeneral -up-|> MainCode.ClusteringAlgorithm.AbstractClustering
  MainCode.ClusteringAlgorithm.KMeans -up-|> MainCode.ClusteringAlgorithm.KMAndMSGeneral
  MainCode.ClusteringAlgorithm.KNearestNeighbor -up-|> MainCode.ClusteringAlgorithm.AbstractClustering
  MainCode.ClusteringAlgorithm.KNearestNeighbor o- - MainCode.InSetData.Node : centroids
  MainCode.ClusteringAlgorithm.MeanShift -up-|> MainCode.ClusteringAlgorithm.KMAndMSGeneral
  MainCode.Controller .up.|> javafx.fxml.Initializable
  MainCode.Controller o- - MainCode.ClusteringAlgorithm.AbstractClustering : abstractClustering
  MainCode.InSetData.GenerateNode.KMeansGenerateNodes -up-|> MainCode.InSetData.GenerateNode.AbstractGenerateNodes
  MainCode.InSetData.GenerateNode.KNearestNeighborGenerateNodes -up-|> MainCode.InSetData.GenerateNode.AbstractGenerateNodes
  MainCode.InSetData.GenerateNode.MeanShiftGenerateNode -up-|> MainCode.InSetData.GenerateNode.AbstractGenerateNodes
  MainCode.InSetData.Node -up-|> javafx.scene.shape.Circle
  MainCode.Main -up-|> javafx.application.Application


right footer


PlantUML diagram generated by SketchIt! (https://bitbucket.org/pmesmeur/sketch.it)
For more information about this tool, please contact philippe.mesmeur@gmail.com
endfooter

@enduml

PlantUML version 1.2021.00(Sun Jan 10 17:25:05 ICT 2021)
(GPL source distribution)
Java Runtime: OpenJDK Runtime Environment
JVM: OpenJDK 64-Bit Server VM
Default Encoding: Cp1252
Language: en
Country: US
--></g></svg>