<?xml version="1.0" encoding="UTF-8" standalone="no"?><svg xmlns="http://www.w3.org/2000/svg" xmlns:xlink="http://www.w3.org/1999/xlink" contentScriptType="application/ecmascript" contentStyleType="text/css" height="1441.25px" preserveAspectRatio="none" style="width:907px;height:1441px;" version="1.1" viewBox="0 0 907 1441" width="907.5px" zoomAndPan="magnify"><defs><filter height="300%" id="f1o6lq7udfe8uc" width="300%" x="-1" y="-1"><feGaussianBlur result="blurOut" stdDeviation="2.5"/><feColorMatrix in="blurOut" result="blurOut2" type="matrix" values="0 0 0 0 0 0 0 0 0 0 0 0 0 0 0 0 0 0 .4 0"/><feOffset dx="5.0" dy="5.0" in="blurOut2" result="blurOut3"/><feBlend in="SourceGraphic" in2="blurOut3" mode="normal"/></filter></defs><g><text fill="#000000" font-family="sans-serif" font-size="22.5" lengthAdjust="spacing" text-decoration="underline" textLength="445" x="223.125" y="23.3569">CLUSTERINGALGORITHM's Class Diagram</text><text fill="#000000" font-family="sans-serif" font-size="22.5" lengthAdjust="spacing" textLength="0" x="448.75" y="51.6577"/><!--MD5=[b2031b1a8a393d7e2b81067e5168f2f9]
cluster MainCode--><polygon fill="#FFFFFF" filter="url(#f1o6lq7udfe8uc)" points="20,64.1016,116.25,64.1016,125,93.6133,658.75,93.6133,658.75,1364.1016,20,1364.1016,20,64.1016" style="stroke:#000000;stroke-width:1.875;"/><line style="stroke:#000000;stroke-width:1.875;" x1="20" x2="125" y1="93.6133" y2="93.6133"/><text fill="#000000" font-family="sans-serif" font-size="17.5" font-weight="bold" lengthAdjust="spacing" textLength="88.75" x="25" y="84.7681">MainCode</text><!--MD5=[3f105b170190e3af24ae83e15e622de5]
cluster MainCode.ClusteringAlgorithm--><polygon fill="#FFFFFF" filter="url(#f1o6lq7udfe8uc)" points="50,119.1016,232.5,119.1016,241.25,148.6133,628.75,148.6133,628.75,1334.1016,50,1334.1016,50,119.1016" style="stroke:#000000;stroke-width:1.875;"/><line style="stroke:#000000;stroke-width:1.875;" x1="50" x2="241.25" y1="148.6133" y2="148.6133"/><text fill="#000000" font-family="sans-serif" font-size="17.5" font-weight="bold" lengthAdjust="spacing" textLength="175" x="55" y="139.7681">ClusteringAlgorithm</text><!--MD5=[efacd1637c727b3c7211f21bf1598582]
cluster MainCode.InSetData--><polygon fill="#FFFFFF" filter="url(#f1o6lq7udfe8uc)" points="688.75,1035.9766,873.75,1035.9766,882.5,1065.4883,886.25,1065.4883,886.25,1160.9766,688.75,1160.9766,688.75,1035.9766" style="stroke:#000000;stroke-width:1.875;"/><line style="stroke:#000000;stroke-width:1.875;" x1="688.75" x2="882.5" y1="1065.4883" y2="1065.4883"/><text fill="#000000" font-family="sans-serif" font-size="17.5" font-weight="bold" lengthAdjust="spacing" textLength="177.5" x="693.75" y="1056.6431">MainCode.InSetData</text><!--MD5=[3fc2dca49e3b3dd8ed7cd711ed5c50e9]
class MainCode.ClusteringAlgorithm.AbstractClustering--><rect codeLine="6" fill="#FEFECE" filter="url(#f1o6lq7udfe8uc)" height="319.4238" id="MainCode.ClusteringAlgorithm.AbstractClustering" style="stroke:#A80036;stroke-width:1.875;" width="323.75" x="176.875" y="164.1016"/><ellipse cx="270.3125" cy="184.1016" fill="#A9DCDF" rx="13.75" ry="13.75" style="stroke:#A80036;stroke-width:1.25;"/><path d="M272.5,185.9766 L268.3789,185.9766 L267.832,187.2266 L267.832,187.2266 L268.418,187.2266 L269.0625,188.0078 L269.0625,188.4766 L269.0625,188.9453 L268.418,189.7266 L267.832,189.7266 L265.4688,189.7266 L264.707,189.7266 L264.0625,188.9453 L264.0625,188.4766 L264.0625,188.0078 L264.707,187.2266 L265.4688,187.2266 L268.3594,179.7266 L267.2656,179.7266 L265.957,179.7266 L265.3125,178.9453 L265.3125,178.4766 L265.3125,178.0078 L265.957,177.2266 L267.2656,177.2266 L271.8555,177.2266 L275.2148,187.2266 L275.918,187.2266 L275.918,187.2266 L276.5625,188.0078 L276.5625,188.4766 L276.5625,188.9453 L275.918,189.7266 L275.2148,189.7266 L272.8516,189.7266 L272.207,189.7266 L271.5625,188.9453 L271.5625,188.4766 L271.5625,188.0078 L272.207,187.2266 L272.8516,187.2266 L272.8516,187.2266 L272.5,185.9766 Z M271.8164,183.4766 L270.3125,179.0039 L269.0234,183.4766 L271.8164,183.4766 Z " fill="#000000"/><text fill="#000000" font-family="sans-serif" font-size="15" font-style="italic" lengthAdjust="spacing" textLength="126.25" x="295.9375" y="190.2393">AbstractClustering</text><line style="stroke:#A80036;stroke-width:1.875;" x1="178.125" x2="499.375" y1="204.1016" y2="204.1016"/><ellipse cx="190.625" cy="217.8516" fill="none" rx="3.75" ry="3.75" style="stroke:#038048;stroke-width:1.25;"/><text fill="#000000" font-family="sans-serif" font-size="13.75" lengthAdjust="spacing" textLength="131.25" x="201.875" y="223.3752">FINAL_COLOR : Color</text><ellipse cx="190.625" cy="235.1465" fill="none" rx="3.75" ry="3.75" style="stroke:#038048;stroke-width:1.25;"/><text fill="#000000" font-family="sans-serif" font-size="13.75" lengthAdjust="spacing" text-decoration="underline" textLength="207.5" x="201.875" y="240.6702">KM_CENTRAL_NODE_RADIUS : int</text><ellipse cx="190.625" cy="252.4414" fill="none" rx="3.75" ry="3.75" style="stroke:#038048;stroke-width:1.25;"/><text fill="#000000" font-family="sans-serif" font-size="13.75" lengthAdjust="spacing" text-decoration="underline" textLength="215" x="201.875" y="257.9651">KNN_CENTRAL_NODE_RADIUS : int</text><ellipse cx="190.625" cy="269.7363" fill="none" rx="3.75" ry="3.75" style="stroke:#038048;stroke-width:1.25;"/><text fill="#000000" font-family="sans-serif" font-size="13.75" lengthAdjust="spacing" text-decoration="underline" textLength="87.5" x="201.875" y="275.26">MAX_RUN : int</text><ellipse cx="190.625" cy="287.0313" fill="none" rx="3.75" ry="3.75" style="stroke:#038048;stroke-width:1.25;"/><text fill="#000000" font-family="sans-serif" font-size="13.75" lengthAdjust="spacing" text-decoration="underline" textLength="207.5" x="201.875" y="292.5549">MS_CENTRAL_NODE_RADIUS : int</text><ellipse cx="190.625" cy="304.3262" fill="none" rx="3.75" ry="3.75" style="stroke:#038048;stroke-width:1.25;"/><text fill="#000000" font-family="sans-serif" font-size="13.75" lengthAdjust="spacing" text-decoration="underline" textLength="291.25" x="201.875" y="309.8499">MS_CIRCLE_AROUND_CENTROIDS_RADIUS : int</text><ellipse cx="190.625" cy="321.6211" fill="none" rx="3.75" ry="3.75" style="stroke:#038048;stroke-width:1.25;"/><text fill="#000000" font-family="sans-serif" font-size="13.75" lengthAdjust="spacing" textLength="215" x="201.875" y="327.1448">st : ArrayList&lt;SequentialTransition&gt;</text><polygon fill="none" points="190.625,332.666,195.625,337.666,190.625,342.666,185.625,337.666" style="stroke:#B38D22;stroke-width:1.25;"/><text fill="#000000" font-family="sans-serif" font-size="13.75" lengthAdjust="spacing" textLength="31.25" x="201.875" y="344.4397">k : int</text><polygon fill="none" points="190.625,351.2109,185.625,358.7109,195.625,358.7109" style="stroke:#1963A0;stroke-width:1.25;"/><text fill="#000000" font-family="sans-serif" font-size="13.75" lengthAdjust="spacing" textLength="90" x="201.875" y="361.7346">f : FillTransition</text><polygon fill="none" points="190.625,368.5059,185.625,376.0059,195.625,376.0059" style="stroke:#1963A0;stroke-width:1.25;"/><text fill="#000000" font-family="sans-serif" font-size="13.75" lengthAdjust="spacing" textLength="120" x="201.875" y="379.0295">p : ParallelTransition</text><line style="stroke:#A80036;stroke-width:1.875;" x1="178.125" x2="499.375" y1="387.0508" y2="387.0508"/><ellipse cx="190.625" cy="400.8008" fill="#84BE84" rx="3.75" ry="3.75" style="stroke:#038048;stroke-width:1.25;"/><text fill="#000000" font-family="sans-serif" font-size="13.75" lengthAdjust="spacing" textLength="142.5" x="201.875" y="406.3245">distanceOfTwoNodes()</text><ellipse cx="190.625" cy="418.0957" fill="#84BE84" rx="3.75" ry="3.75" style="stroke:#038048;stroke-width:1.25;"/><text fill="#000000" font-family="sans-serif" font-size="13.75" font-style="italic" lengthAdjust="spacing" textLength="62.5" x="201.875" y="423.6194">startSort()</text><polygon fill="#FFFF44" points="190.625,429.1406,195.625,434.1406,190.625,439.1406,185.625,434.1406" style="stroke:#B38D22;stroke-width:1.25;"/><text fill="#000000" font-family="sans-serif" font-size="13.75" lengthAdjust="spacing" textLength="35" x="201.875" y="440.9143">initK()</text><polygon fill="#4177AF" points="190.625,447.6855,185.625,455.1855,195.625,455.1855" style="stroke:#1963A0;stroke-width:1.25;"/><text fill="#000000" font-family="sans-serif" font-size="13.75" lengthAdjust="spacing" textLength="78.75" x="201.875" y="458.2092">colorShape()</text><polygon fill="#4177AF" points="190.625,464.9805,185.625,472.4805,195.625,472.4805" style="stroke:#1963A0;stroke-width:1.25;"/><text fill="#000000" font-family="sans-serif" font-size="13.75" lengthAdjust="spacing" textLength="113.75" x="201.875" y="475.5042">fillTransionShape()</text><!--MD5=[16b620ebc4200ee5ee41e1728191622a]
class MainCode.ClusteringAlgorithm.KMAndMSGeneral--><rect codeLine="29" fill="#FEFECE" filter="url(#f1o6lq7udfe8uc)" height="215.6543" id="MainCode.ClusteringAlgorithm.KMAndMSGeneral" style="stroke:#A80036;stroke-width:1.875;" width="202.5" x="70" y="577.2266"/><ellipse cx="106.1875" cy="597.2266" fill="#ADD1B2" rx="13.75" ry="13.75" style="stroke:#A80036;stroke-width:1.25;"/><path d="M108.6875,592.8516 Q108.9414,592.2266 109.2344,591.9141 Q109.5273,591.6016 109.8594,591.6016 Q110.4453,591.6016 110.8164,591.9531 Q111.1875,592.3047 111.1875,593.125 L111.1875,595.0781 Q111.1875,595.8984 110.8359,596.25 Q110.4844,596.6016 109.9375,596.6016 Q109.4492,596.6016 109.1367,596.3867 Q108.8242,596.1719 108.6875,595.6055 Q108.6289,595.2148 108.4141,595 Q108.0234,594.5898 107.3203,594.3555 Q106.6172,594.1016 105.9141,594.1016 Q105.0352,594.1016 104.293,594.4531 Q103.5703,594.8047 103.0039,595.5859 Q102.4375,596.3672 102.4375,597.4414 L102.4375,598.5938 Q102.4375,599.8828 103.4922,600.7422 Q104.5469,601.6016 106.4219,601.6016 Q107.5352,601.6016 108.3164,601.3477 Q108.7656,601.2109 109.2734,600.7617 Q109.6055,600.5078 109.7813,600.4297 Q109.957,600.3516 110.1719,600.3516 Q110.582,600.3516 110.875,600.6836 Q111.1875,600.9961 111.1875,601.4453 Q111.1875,601.875 110.7578,602.3828 Q110.1328,603.125 109.1367,603.5352 Q107.8281,604.1016 106.2266,604.1016 Q104.3516,604.1016 102.8477,603.3594 Q101.6367,602.7734 100.7773,601.5039 Q99.9375,600.2344 99.9375,598.7305 L99.9375,597.3633 Q99.9375,595.8008 100.6797,594.4336 Q101.4414,593.0664 102.75,592.3438 Q104.0781,591.6016 105.5625,591.6016 Q106.4609,591.6016 107.2422,591.9141 Q108.0234,592.2266 108.6875,592.8516 Z " fill="#000000"/><text fill="#000000" font-family="sans-serif" font-size="15" lengthAdjust="spacing" textLength="123.75" x="127.5625" y="603.3643">KMAndMSGeneral</text><line style="stroke:#A80036;stroke-width:1.875;" x1="71.25" x2="271.25" y1="617.2266" y2="617.2266"/><polygon fill="none" points="83.75,625.9766,78.75,633.4766,88.75,633.4766" style="stroke:#1963A0;stroke-width:1.25;"/><text fill="#000000" font-family="sans-serif" font-size="13.75" lengthAdjust="spacing" textLength="138.75" x="95" y="636.5002">centroidVisual : Circle[]</text><polygon fill="none" points="83.75,643.2715,78.75,650.7715,88.75,650.7715" style="stroke:#1963A0;stroke-width:1.25;"/><text fill="#000000" font-family="sans-serif" font-size="13.75" lengthAdjust="spacing" textLength="106.25" x="95" y="653.7952">centroids : Node[]</text><polygon fill="none" points="83.75,660.5664,78.75,668.0664,88.75,668.0664" style="stroke:#1963A0;stroke-width:1.25;"/><text fill="#000000" font-family="sans-serif" font-size="13.75" lengthAdjust="spacing" textLength="168.75" x="95" y="671.0901">currentXForVisual : double[]</text><polygon fill="none" points="83.75,677.8613,78.75,685.3613,88.75,685.3613" style="stroke:#1963A0;stroke-width:1.25;"/><text fill="#000000" font-family="sans-serif" font-size="13.75" lengthAdjust="spacing" textLength="170" x="95" y="688.385">currentYForVisual : double[]</text><polygon fill="none" points="83.75,695.1563,78.75,702.6563,88.75,702.6563" style="stroke:#1963A0;stroke-width:1.25;"/><text fill="#000000" font-family="sans-serif" font-size="13.75" lengthAdjust="spacing" textLength="151.25" x="95" y="705.6799">nextXForVisual : double[]</text><polygon fill="none" points="83.75,712.4512,78.75,719.9512,88.75,719.9512" style="stroke:#1963A0;stroke-width:1.25;"/><text fill="#000000" font-family="sans-serif" font-size="13.75" lengthAdjust="spacing" textLength="152.5" x="95" y="722.9749">nextYForVisual : double[]</text><line style="stroke:#A80036;stroke-width:1.875;" x1="71.25" x2="271.25" y1="730.9961" y2="730.9961"/><ellipse cx="83.75" cy="744.7461" fill="#84BE84" rx="3.75" ry="3.75" style="stroke:#038048;stroke-width:1.25;"/><text fill="#000000" font-family="sans-serif" font-size="13.75" lengthAdjust="spacing" textLength="128.75" x="95" y="750.2698">checkStopCondition()</text><ellipse cx="83.75" cy="762.041" fill="#84BE84" rx="3.75" ry="3.75" style="stroke:#038048;stroke-width:1.25;"/><text fill="#000000" font-family="sans-serif" font-size="13.75" lengthAdjust="spacing" textLength="100" x="95" y="767.5647">drawCentroids()</text><ellipse cx="83.75" cy="779.3359" fill="#84BE84" rx="3.75" ry="3.75" style="stroke:#038048;stroke-width:1.25;"/><text fill="#000000" font-family="sans-serif" font-size="13.75" lengthAdjust="spacing" textLength="62.5" x="95" y="784.8596">startSort()</text><!--MD5=[74b59eb449cc10b2a6c2b39a7fb2a78a]
class MainCode.ClusteringAlgorithm.KMeans--><rect codeLine="46" fill="#FEFECE" filter="url(#f1o6lq7udfe8uc)" height="215.6543" id="MainCode.ClusteringAlgorithm.KMeans" style="stroke:#A80036;stroke-width:1.875;" width="213.75" x="70.625" y="1002.8516"/><ellipse cx="144.0625" cy="1022.8516" fill="#ADD1B2" rx="13.75" ry="13.75" style="stroke:#A80036;stroke-width:1.25;"/><path d="M146.5625,1018.4766 Q146.8164,1017.8516 147.1094,1017.5391 Q147.4023,1017.2266 147.7344,1017.2266 Q148.3203,1017.2266 148.6914,1017.5781 Q149.0625,1017.9297 149.0625,1018.75 L149.0625,1020.7031 Q149.0625,1021.5234 148.7109,1021.875 Q148.3594,1022.2266 147.8125,1022.2266 Q147.3242,1022.2266 147.0117,1022.0117 Q146.6992,1021.7969 146.5625,1021.2305 Q146.5039,1020.8398 146.2891,1020.625 Q145.8984,1020.2148 145.1953,1019.9805 Q144.4922,1019.7266 143.7891,1019.7266 Q142.9102,1019.7266 142.168,1020.0781 Q141.4453,1020.4297 140.8789,1021.2109 Q140.3125,1021.9922 140.3125,1023.0664 L140.3125,1024.2188 Q140.3125,1025.5078 141.3672,1026.3672 Q142.4219,1027.2266 144.2969,1027.2266 Q145.4102,1027.2266 146.1914,1026.9727 Q146.6406,1026.8359 147.1484,1026.3867 Q147.4805,1026.1328 147.6563,1026.0547 Q147.832,1025.9766 148.0469,1025.9766 Q148.457,1025.9766 148.75,1026.3086 Q149.0625,1026.6211 149.0625,1027.0703 Q149.0625,1027.5 148.6328,1028.0078 Q148.0078,1028.75 147.0117,1029.1602 Q145.7031,1029.7266 144.1016,1029.7266 Q142.2266,1029.7266 140.7227,1028.9844 Q139.5117,1028.3984 138.6523,1027.1289 Q137.8125,1025.8594 137.8125,1024.3555 L137.8125,1022.9883 Q137.8125,1021.4258 138.5547,1020.0586 Q139.3164,1018.6914 140.625,1017.9688 Q141.9531,1017.2266 143.4375,1017.2266 Q144.3359,1017.2266 145.1172,1017.5391 Q145.8984,1017.8516 146.5625,1018.4766 Z " fill="#000000"/><text fill="#000000" font-family="sans-serif" font-size="15" lengthAdjust="spacing" textLength="56.25" x="169.6875" y="1028.9893">KMeans</text><line style="stroke:#A80036;stroke-width:1.875;" x1="71.875" x2="283.125" y1="1042.8516" y2="1042.8516"/><polygon fill="none" points="84.375,1051.6016,79.375,1059.1016,89.375,1059.1016" style="stroke:#1963A0;stroke-width:1.25;"/><text fill="#000000" font-family="sans-serif" font-size="13.75" lengthAdjust="spacing" textLength="181.25" x="95.625" y="1062.1252">clusteredNodes : List&lt;Node&gt;[]</text><line style="stroke:#A80036;stroke-width:1.875;" x1="71.875" x2="283.125" y1="1070.1465" y2="1070.1465"/><ellipse cx="84.375" cy="1083.8965" fill="#84BE84" rx="3.75" ry="3.75" style="stroke:#038048;stroke-width:1.25;"/><text fill="#000000" font-family="sans-serif" font-size="13.75" lengthAdjust="spacing" textLength="128.75" x="95.625" y="1089.4202">addNodesToCluster()</text><ellipse cx="84.375" cy="1101.1914" fill="#84BE84" rx="3.75" ry="3.75" style="stroke:#038048;stroke-width:1.25;"/><text fill="#000000" font-family="sans-serif" font-size="13.75" lengthAdjust="spacing" textLength="83.75" x="95.625" y="1106.7151">initCentroids()</text><ellipse cx="84.375" cy="1118.4863" fill="#84BE84" rx="3.75" ry="3.75" style="stroke:#038048;stroke-width:1.25;"/><text fill="#000000" font-family="sans-serif" font-size="13.75" lengthAdjust="spacing" textLength="68.75" x="95.625" y="1124.01">initCluster()</text><ellipse cx="84.375" cy="1135.7813" fill="#84BE84" rx="3.75" ry="3.75" style="stroke:#038048;stroke-width:1.25;"/><text fill="#000000" font-family="sans-serif" font-size="13.75" lengthAdjust="spacing" textLength="102.5" x="95.625" y="1141.3049">initXYForVisual()</text><ellipse cx="84.375" cy="1153.0762" fill="#84BE84" rx="3.75" ry="3.75" style="stroke:#038048;stroke-width:1.25;"/><text fill="#000000" font-family="sans-serif" font-size="13.75" lengthAdjust="spacing" textLength="100" x="95.625" y="1158.5999">moveCentroids()</text><ellipse cx="84.375" cy="1170.3711" fill="#84BE84" rx="3.75" ry="3.75" style="stroke:#038048;stroke-width:1.25;"/><text fill="#000000" font-family="sans-serif" font-size="13.75" lengthAdjust="spacing" textLength="136.25" x="95.625" y="1175.8948">recolorNodeInCluster()</text><ellipse cx="84.375" cy="1187.666" fill="#84BE84" rx="3.75" ry="3.75" style="stroke:#038048;stroke-width:1.25;"/><text fill="#000000" font-family="sans-serif" font-size="13.75" lengthAdjust="spacing" textLength="118.75" x="95.625" y="1193.1897">repositionCentroid()</text><ellipse cx="84.375" cy="1204.9609" fill="#84BE84" rx="3.75" ry="3.75" style="stroke:#038048;stroke-width:1.25;"/><text fill="#000000" font-family="sans-serif" font-size="13.75" lengthAdjust="spacing" textLength="62.5" x="95.625" y="1210.4846">startSort()</text><!--MD5=[16fb17108ced37403df2c566d0a08015]
class MainCode.ClusteringAlgorithm.KNearestNeighbor--><rect codeLine="63" fill="#FEFECE" filter="url(#f1o6lq7udfe8uc)" height="250.2441" id="MainCode.ClusteringAlgorithm.KNearestNeighbor" style="stroke:#A80036;stroke-width:1.875;" width="292.5" x="316.25" y="560.3516"/><ellipse cx="392.8125" cy="580.3516" fill="#ADD1B2" rx="13.75" ry="13.75" style="stroke:#A80036;stroke-width:1.25;"/><path d="M395.3125,575.9766 Q395.5664,575.3516 395.8594,575.0391 Q396.1523,574.7266 396.4844,574.7266 Q397.0703,574.7266 397.4414,575.0781 Q397.8125,575.4297 397.8125,576.25 L397.8125,578.2031 Q397.8125,579.0234 397.4609,579.375 Q397.1094,579.7266 396.5625,579.7266 Q396.0742,579.7266 395.7617,579.5117 Q395.4492,579.2969 395.3125,578.7305 Q395.2539,578.3398 395.0391,578.125 Q394.6484,577.7148 393.9453,577.4805 Q393.2422,577.2266 392.5391,577.2266 Q391.6602,577.2266 390.918,577.5781 Q390.1953,577.9297 389.6289,578.7109 Q389.0625,579.4922 389.0625,580.5664 L389.0625,581.7188 Q389.0625,583.0078 390.1172,583.8672 Q391.1719,584.7266 393.0469,584.7266 Q394.1602,584.7266 394.9414,584.4727 Q395.3906,584.3359 395.8984,583.8867 Q396.2305,583.6328 396.4063,583.5547 Q396.582,583.4766 396.7969,583.4766 Q397.207,583.4766 397.5,583.8086 Q397.8125,584.1211 397.8125,584.5703 Q397.8125,585 397.3828,585.5078 Q396.7578,586.25 395.7617,586.6602 Q394.4531,587.2266 392.8516,587.2266 Q390.9766,587.2266 389.4727,586.4844 Q388.2617,585.8984 387.4023,584.6289 Q386.5625,583.3594 386.5625,581.8555 L386.5625,580.4883 Q386.5625,578.9258 387.3047,577.5586 Q388.0664,576.1914 389.375,575.4688 Q390.7031,574.7266 392.1875,574.7266 Q393.0859,574.7266 393.8672,575.0391 Q394.6484,575.3516 395.3125,575.9766 Z " fill="#000000"/><text fill="#000000" font-family="sans-serif" font-size="15" lengthAdjust="spacing" textLength="128.75" x="418.4375" y="586.4893">KNearestNeighbor</text><line style="stroke:#A80036;stroke-width:1.875;" x1="317.5" x2="607.5" y1="600.3516" y2="600.3516"/><polygon fill="none" points="330,609.1016,325,616.6016,335,616.6016" style="stroke:#1963A0;stroke-width:1.25;"/><text fill="#000000" font-family="sans-serif" font-size="13.75" lengthAdjust="spacing" textLength="110" x="341.25" y="619.6252">distance : double[]</text><polygon fill="none" points="330,626.3965,325,633.8965,335,633.8965" style="stroke:#1963A0;stroke-width:1.25;"/><text fill="#000000" font-family="sans-serif" font-size="13.75" lengthAdjust="spacing" textLength="71.25" x="341.25" y="636.9202">lines : Line[]</text><polygon fill="none" points="330,643.6914,325,651.1914,335,651.1914" style="stroke:#1963A0;stroke-width:1.25;"/><text fill="#000000" font-family="sans-serif" font-size="13.75" lengthAdjust="spacing" textLength="110" x="341.25" y="654.2151">neighbors : Node[]</text><line style="stroke:#A80036;stroke-width:1.875;" x1="317.5" x2="607.5" y1="662.2363" y2="662.2363"/><ellipse cx="330" cy="675.9863" fill="#84BE84" rx="3.75" ry="3.75" style="stroke:#038048;stroke-width:1.25;"/><text fill="#000000" font-family="sans-serif" font-size="13.75" lengthAdjust="spacing" textLength="260" x="341.25" y="681.51">calculatingDistanceFromCentroidToNodes()</text><ellipse cx="330" cy="693.2813" fill="#84BE84" rx="3.75" ry="3.75" style="stroke:#038048;stroke-width:1.25;"/><text fill="#000000" font-family="sans-serif" font-size="13.75" lengthAdjust="spacing" textLength="100" x="341.25" y="698.8049">drawCentroids()</text><ellipse cx="330" cy="710.5762" fill="#84BE84" rx="3.75" ry="3.75" style="stroke:#038048;stroke-width:1.25;"/><text fill="#000000" font-family="sans-serif" font-size="13.75" lengthAdjust="spacing" textLength="83.75" x="341.25" y="716.0999">initCentroids()</text><ellipse cx="330" cy="727.8711" fill="#84BE84" rx="3.75" ry="3.75" style="stroke:#038048;stroke-width:1.25;"/><text fill="#000000" font-family="sans-serif" font-size="13.75" lengthAdjust="spacing" textLength="58.75" x="341.25" y="733.3948">initLines()</text><ellipse cx="330" cy="745.166" fill="#84BE84" rx="3.75" ry="3.75" style="stroke:#038048;stroke-width:1.25;"/><text fill="#000000" font-family="sans-serif" font-size="13.75" lengthAdjust="spacing" textLength="87.5" x="341.25" y="750.6897">removeLines()</text><ellipse cx="330" cy="762.4609" fill="#84BE84" rx="3.75" ry="3.75" style="stroke:#038048;stroke-width:1.25;"/><text fill="#000000" font-family="sans-serif" font-size="13.75" lengthAdjust="spacing" textLength="77.5" x="341.25" y="767.9846">showLines()</text><ellipse cx="330" cy="779.7559" fill="#84BE84" rx="3.75" ry="3.75" style="stroke:#038048;stroke-width:1.25;"/><text fill="#000000" font-family="sans-serif" font-size="13.75" lengthAdjust="spacing" textLength="62.5" x="341.25" y="785.2795">startSort()</text><ellipse cx="330" cy="797.0508" fill="#84BE84" rx="3.75" ry="3.75" style="stroke:#038048;stroke-width:1.25;"/><text fill="#000000" font-family="sans-serif" font-size="13.75" lengthAdjust="spacing" textLength="46.25" x="341.25" y="802.5745">voting()</text><!--MD5=[c56c352f5361cd094006ab34ea2c31e2]
class MainCode.ClusteringAlgorithm.MeanShift--><rect codeLine="82" fill="#FEFECE" filter="url(#f1o6lq7udfe8uc)" height="405.8984" id="MainCode.ClusteringAlgorithm.MeanShift" style="stroke:#A80036;stroke-width:1.875;" width="273.75" x="328.125" y="907.8516"/><ellipse cx="425.9375" cy="927.8516" fill="#ADD1B2" rx="13.75" ry="13.75" style="stroke:#A80036;stroke-width:1.25;"/><path d="M428.4375,923.4766 Q428.6914,922.8516 428.9844,922.5391 Q429.2773,922.2266 429.6094,922.2266 Q430.1953,922.2266 430.5664,922.5781 Q430.9375,922.9297 430.9375,923.75 L430.9375,925.7031 Q430.9375,926.5234 430.5859,926.875 Q430.2344,927.2266 429.6875,927.2266 Q429.1992,927.2266 428.8867,927.0117 Q428.5742,926.7969 428.4375,926.2305 Q428.3789,925.8398 428.1641,925.625 Q427.7734,925.2148 427.0703,924.9805 Q426.3672,924.7266 425.6641,924.7266 Q424.7852,924.7266 424.043,925.0781 Q423.3203,925.4297 422.7539,926.2109 Q422.1875,926.9922 422.1875,928.0664 L422.1875,929.2188 Q422.1875,930.5078 423.2422,931.3672 Q424.2969,932.2266 426.1719,932.2266 Q427.2852,932.2266 428.0664,931.9727 Q428.5156,931.8359 429.0234,931.3867 Q429.3555,931.1328 429.5313,931.0547 Q429.707,930.9766 429.9219,930.9766 Q430.332,930.9766 430.625,931.3086 Q430.9375,931.6211 430.9375,932.0703 Q430.9375,932.5 430.5078,933.0078 Q429.8828,933.75 428.8867,934.1602 Q427.5781,934.7266 425.9766,934.7266 Q424.1016,934.7266 422.5977,933.9844 Q421.3867,933.3984 420.5273,932.1289 Q419.6875,930.8594 419.6875,929.3555 L419.6875,927.9883 Q419.6875,926.4258 420.4297,925.0586 Q421.1914,923.6914 422.5,922.9688 Q423.8281,922.2266 425.3125,922.2266 Q426.2109,922.2266 426.9922,922.5391 Q427.7734,922.8516 428.4375,923.4766 Z " fill="#000000"/><text fill="#000000" font-family="sans-serif" font-size="15" lengthAdjust="spacing" textLength="67.5" x="451.5625" y="933.9893">MeanShift</text><line style="stroke:#A80036;stroke-width:1.875;" x1="329.375" x2="600.625" y1="947.8516" y2="947.8516"/><polygon fill="none" points="341.875,956.6016,336.875,964.1016,346.875,964.1016" style="stroke:#1963A0;stroke-width:1.25;"/><text fill="#000000" font-family="sans-serif" font-size="13.75" lengthAdjust="spacing" textLength="182.5" x="353.125" y="967.1252">blackList : ArrayList&lt;double[]&gt;</text><polygon fill="none" points="341.875,973.8965,336.875,981.3965,346.875,981.3965" style="stroke:#1963A0;stroke-width:1.25;"/><text fill="#000000" font-family="sans-serif" font-size="13.75" lengthAdjust="spacing" textLength="180" x="353.125" y="984.4202">circleAroundCentroid : Circle[]</text><polygon fill="none" points="341.875,991.1914,336.875,998.6914,346.875,998.6914" style="stroke:#1963A0;stroke-width:1.25;"/><text fill="#000000" font-family="sans-serif" font-size="13.75" lengthAdjust="spacing" textLength="132.5" x="353.125" y="1001.7151">minPointArgument : int</text><polygon fill="none" points="341.875,1008.4863,336.875,1015.9863,346.875,1015.9863" style="stroke:#1963A0;stroke-width:1.25;"/><text fill="#000000" font-family="sans-serif" font-size="13.75" lengthAdjust="spacing" textLength="241.25" x="353.125" y="1019.01">nodeBelongToCircle : ArrayList&lt;Node&gt;[]</text><line style="stroke:#A80036;stroke-width:1.875;" x1="329.375" x2="600.625" y1="1027.0313" y2="1027.0313"/><ellipse cx="341.875" cy="1040.7813" fill="#84BE84" rx="3.75" ry="3.75" style="stroke:#038048;stroke-width:1.25;"/><text fill="#000000" font-family="sans-serif" font-size="13.75" lengthAdjust="spacing" textLength="101.25" x="353.125" y="1046.3049">addToBlackList()</text><ellipse cx="341.875" cy="1058.0762" fill="#84BE84" rx="3.75" ry="3.75" style="stroke:#038048;stroke-width:1.25;"/><text fill="#000000" font-family="sans-serif" font-size="13.75" lengthAdjust="spacing" textLength="97.5" x="353.125" y="1063.5999">checkTerritory()</text><ellipse cx="341.875" cy="1075.3711" fill="#84BE84" rx="3.75" ry="3.75" style="stroke:#038048;stroke-width:1.25;"/><text fill="#000000" font-family="sans-serif" font-size="13.75" lengthAdjust="spacing" textLength="153.75" x="353.125" y="1080.8948">drawCircleForCentroids()</text><ellipse cx="341.875" cy="1092.666" fill="#84BE84" rx="3.75" ry="3.75" style="stroke:#038048;stroke-width:1.25;"/><text fill="#000000" font-family="sans-serif" font-size="13.75" lengthAdjust="spacing" textLength="157.5" x="353.125" y="1098.1897">getNodesBelongToCircle()</text><ellipse cx="341.875" cy="1109.9609" fill="#84BE84" rx="3.75" ry="3.75" style="stroke:#038048;stroke-width:1.25;"/><text fill="#000000" font-family="sans-serif" font-size="13.75" lengthAdjust="spacing" textLength="146.25" x="353.125" y="1115.4846">hideCircleForCentroids()</text><ellipse cx="341.875" cy="1127.2559" fill="#84BE84" rx="3.75" ry="3.75" style="stroke:#038048;stroke-width:1.25;"/><text fill="#000000" font-family="sans-serif" font-size="13.75" lengthAdjust="spacing" textLength="80" x="353.125" y="1132.7795">initBlackList()</text><ellipse cx="341.875" cy="1144.5508" fill="#84BE84" rx="3.75" ry="3.75" style="stroke:#038048;stroke-width:1.25;"/><text fill="#000000" font-family="sans-serif" font-size="13.75" lengthAdjust="spacing" textLength="83.75" x="353.125" y="1150.0745">initCentroids()</text><ellipse cx="341.875" cy="1161.8457" fill="#84BE84" rx="3.75" ry="3.75" style="stroke:#038048;stroke-width:1.25;"/><text fill="#000000" font-family="sans-serif" font-size="13.75" lengthAdjust="spacing" textLength="137.5" x="353.125" y="1167.3694">initCircleForCentroids()</text><ellipse cx="341.875" cy="1179.1406" fill="#84BE84" rx="3.75" ry="3.75" style="stroke:#038048;stroke-width:1.25;"/><text fill="#000000" font-family="sans-serif" font-size="13.75" lengthAdjust="spacing" textLength="102.5" x="353.125" y="1184.6643">initXYForVisual()</text><ellipse cx="341.875" cy="1196.4355" fill="#84BE84" rx="3.75" ry="3.75" style="stroke:#038048;stroke-width:1.25;"/><text fill="#000000" font-family="sans-serif" font-size="13.75" lengthAdjust="spacing" textLength="172.5" x="353.125" y="1201.9592">minPointArgumentCalculate()</text><ellipse cx="341.875" cy="1213.7305" fill="#84BE84" rx="3.75" ry="3.75" style="stroke:#038048;stroke-width:1.25;"/><text fill="#000000" font-family="sans-serif" font-size="13.75" lengthAdjust="spacing" textLength="100" x="353.125" y="1219.2542">moveCentroids()</text><ellipse cx="341.875" cy="1231.0254" fill="#84BE84" rx="3.75" ry="3.75" style="stroke:#038048;stroke-width:1.25;"/><text fill="#000000" font-family="sans-serif" font-size="13.75" lengthAdjust="spacing" textLength="90" x="353.125" y="1236.5491">printBlackList()</text><ellipse cx="341.875" cy="1248.3203" fill="#84BE84" rx="3.75" ry="3.75" style="stroke:#038048;stroke-width:1.25;"/><text fill="#000000" font-family="sans-serif" font-size="13.75" lengthAdjust="spacing" textLength="133.75" x="353.125" y="1253.844">repositionCentroids1()</text><ellipse cx="341.875" cy="1265.6152" fill="#84BE84" rx="3.75" ry="3.75" style="stroke:#038048;stroke-width:1.25;"/><text fill="#000000" font-family="sans-serif" font-size="13.75" lengthAdjust="spacing" textLength="133.75" x="353.125" y="1271.1389">repositionCentroids2()</text><ellipse cx="341.875" cy="1282.9102" fill="#84BE84" rx="3.75" ry="3.75" style="stroke:#038048;stroke-width:1.25;"/><text fill="#000000" font-family="sans-serif" font-size="13.75" lengthAdjust="spacing" textLength="156.25" x="353.125" y="1288.4338">showCircleForCentroids()</text><ellipse cx="341.875" cy="1300.2051" fill="#84BE84" rx="3.75" ry="3.75" style="stroke:#038048;stroke-width:1.25;"/><text fill="#000000" font-family="sans-serif" font-size="13.75" lengthAdjust="spacing" textLength="62.5" x="353.125" y="1305.7288">startSort()</text><!--MD5=[c5626ac6ea7417fa3ba883bc6ce8c57e]
class MainCode.InSetData.Node--><rect fill="#FEFECE" filter="url(#f1o6lq7udfe8uc)" height="60" id="MainCode.InSetData.Node" style="stroke:#A80036;stroke-width:1.875;" width="77.5" x="708.75" y="1080.9766"/><ellipse cx="727.5" cy="1100.9766" fill="#ADD1B2" rx="13.75" ry="13.75" style="stroke:#A80036;stroke-width:1.25;"/><path d="M730,1096.6016 Q730.2539,1095.9766 730.5469,1095.6641 Q730.8398,1095.3516 731.1719,1095.3516 Q731.7578,1095.3516 732.1289,1095.7031 Q732.5,1096.0547 732.5,1096.875 L732.5,1098.8281 Q732.5,1099.6484 732.1484,1100 Q731.7969,1100.3516 731.25,1100.3516 Q730.7617,1100.3516 730.4492,1100.1367 Q730.1367,1099.9219 730,1099.3555 Q729.9414,1098.9648 729.7266,1098.75 Q729.3359,1098.3398 728.6328,1098.1055 Q727.9297,1097.8516 727.2266,1097.8516 Q726.3477,1097.8516 725.6055,1098.2031 Q724.8828,1098.5547 724.3164,1099.3359 Q723.75,1100.1172 723.75,1101.1914 L723.75,1102.3438 Q723.75,1103.6328 724.8047,1104.4922 Q725.8594,1105.3516 727.7344,1105.3516 Q728.8477,1105.3516 729.6289,1105.0977 Q730.0781,1104.9609 730.5859,1104.5117 Q730.918,1104.2578 731.0938,1104.1797 Q731.2695,1104.1016 731.4844,1104.1016 Q731.8945,1104.1016 732.1875,1104.4336 Q732.5,1104.7461 732.5,1105.1953 Q732.5,1105.625 732.0703,1106.1328 Q731.4453,1106.875 730.4492,1107.2852 Q729.1406,1107.8516 727.5391,1107.8516 Q725.6641,1107.8516 724.1602,1107.1094 Q722.9492,1106.5234 722.0898,1105.2539 Q721.25,1103.9844 721.25,1102.4805 L721.25,1101.1133 Q721.25,1099.5508 721.9922,1098.1836 Q722.7539,1096.8164 724.0625,1096.0938 Q725.3906,1095.3516 726.875,1095.3516 Q727.7734,1095.3516 728.5547,1095.6641 Q729.3359,1095.9766 730,1096.6016 Z " fill="#000000"/><text fill="#000000" font-family="sans-serif" font-size="15" lengthAdjust="spacing" textLength="37.5" x="745" y="1107.1143">Node</text><line style="stroke:#A80036;stroke-width:1.875;" x1="710" x2="785" y1="1120.9766" y2="1120.9766"/><line style="stroke:#A80036;stroke-width:1.875;" x1="710" x2="785" y1="1130.9766" y2="1130.9766"/><!--MD5=[95d3b66dc162223af976d91598873ada]
reverse link MainCode.ClusteringAlgorithm.AbstractClustering to MainCode.ClusteringAlgorithm.KMAndMSGeneral--><path codeLine="108" d="M253.8875,507.1016 C242.75,530.9641 231.6375,554.7641 221.3375,576.8141 " fill="none" id="MainCode.ClusteringAlgorithm.AbstractClustering-backto-MainCode.ClusteringAlgorithm.KMAndMSGeneral" style="stroke:#A80036;stroke-width:1.25;"/><polygon fill="none" points="246.05,503.2266,264.55,484.2766,261.9,510.6266,246.05,503.2266" style="stroke:#A80036;stroke-width:1.25;"/><!--MD5=[1d0650b372a028613f3b84e9725800e7]
reverse link MainCode.ClusteringAlgorithm.KMAndMSGeneral to MainCode.ClusteringAlgorithm.KMeans--><path codeLine="109" d="M173.2,819.0016 C174.075,878.0641 175.0875,946.7516 175.9125,1002.5266 " fill="none" id="MainCode.ClusteringAlgorithm.KMAndMSGeneral-backto-MainCode.ClusteringAlgorithm.KMeans" style="stroke:#A80036;stroke-width:1.25;"/><polygon fill="none" points="164.45,819.0516,172.8375,793.9266,181.95,818.7891,164.45,819.0516" style="stroke:#A80036;stroke-width:1.25;"/><!--MD5=[f302681acc89753eb85f7dc52c2c8487]
reverse link MainCode.ClusteringAlgorithm.AbstractClustering to MainCode.ClusteringAlgorithm.KNearestNeighbor--><path codeLine="110" d="M401.85,508.2641 C407.925,525.8891 413.9875,543.4641 419.8,560.3141 " fill="none" id="MainCode.ClusteringAlgorithm.AbstractClustering-backto-MainCode.ClusteringAlgorithm.KNearestNeighbor" style="stroke:#A80036;stroke-width:1.25;"/><polygon fill="none" points="393.45,510.7641,393.575,484.2766,409.9875,505.0516,393.45,510.7641" style="stroke:#A80036;stroke-width:1.25;"/><!--MD5=[05356bdae02b1be86347eaf12456cee4]
reverse link MainCode.ClusteringAlgorithm.KNearestNeighbor to MainCode.InSetData.Node--><path codeLine="111" d="M569.425,823.9266 C589.7,851.3266 610.3125,880.2016 628.75,907.8516 C668.5625,967.5641 709.925,1040.9016 731.775,1080.6891 " fill="none" id="MainCode.ClusteringAlgorithm.KNearestNeighbor-backto-MainCode.InSetData.Node" style="stroke:#A80036;stroke-width:1.25;"/><polygon fill="#FFFFFF" points="559.525,810.6016,559.9835,819.6038,568.4696,822.6429,568.0111,813.6407,559.525,810.6016" style="stroke:#A80036;stroke-width:1.25;"/><text fill="#000000" font-family="sans-serif" font-size="16.25" lengthAdjust="spacing" textLength="66.25" x="598.75" y="865.9705">centroids</text><!--MD5=[b1944705ce6fb43c9413118b9521c70f]
reverse link MainCode.ClusteringAlgorithm.KMAndMSGeneral to MainCode.ClusteringAlgorithm.MeanShift--><path codeLine="112" d="M260.225,814.7641 C281.6125,845.5766 304.9625,879.2016 327.975,912.3516 " fill="none" id="MainCode.ClusteringAlgorithm.KMAndMSGeneral-backto-MainCode.ClusteringAlgorithm.MeanShift" style="stroke:#A80036;stroke-width:1.25;"/><polygon fill="none" points="252.825,819.4516,245.75,793.9266,267.2,809.4641,252.825,819.4516" style="stroke:#A80036;stroke-width:1.25;"/><text fill="#888888" font-family="sans-serif" font-size="12.5" lengthAdjust="spacing" textLength="0" x="891.25" y="1384.5776"/><text fill="#888888" font-family="sans-serif" font-size="12.5" lengthAdjust="spacing" textLength="0" x="891.25" y="1400.3003"/><text fill="#888888" font-family="sans-serif" font-size="12.5" lengthAdjust="spacing" textLength="490" x="401.25" y="1416.0229">PlantUML diagram generated by SketchIt! (https://bitbucket.org/pmesmeur/sketch.it)</text><text fill="#888888" font-family="sans-serif" font-size="12.5" lengthAdjust="spacing" textLength="492.5" x="398.75" y="1431.7456">For more information about this tool, please contact philippe.mesmeur@gmail.com</text><!--MD5=[29dd7f205f74b3cded8ff360597a389d]
@startuml

title __CLUSTERINGALGORITHM's Class Diagram__\n

  namespace MainCode {
    namespace ClusteringAlgorithm {
      abstract class MainCode.ClusteringAlgorithm.AbstractClustering {
          + FINAL_COLOR : Color
          {static} + KM_CENTRAL_NODE_RADIUS : int
          {static} + KNN_CENTRAL_NODE_RADIUS : int
          {static} + MAX_RUN : int
          {static} + MS_CENTRAL_NODE_RADIUS : int
          {static} + MS_CIRCLE_AROUND_CENTROIDS_RADIUS : int
          + st : ArrayList<SequentialTransition>
          # k : int
          ~ f : FillTransition
          ~ p : ParallelTransition
          + distanceOfTwoNodes()
          {abstract} + startSort()
          # initK()
          ~ colorShape()
          ~ fillTransionShape()
      }
    }
  }
  

  namespace MainCode {
    namespace ClusteringAlgorithm {
      class MainCode.ClusteringAlgorithm.KMAndMSGeneral {
          ~ centroidVisual : Circle[]
          ~ centroids : Node[]
          ~ currentXForVisual : double[]
          ~ currentYForVisual : double[]
          ~ nextXForVisual : double[]
          ~ nextYForVisual : double[]
          + checkStopCondition()
          + drawCentroids()
          + startSort()
      }
    }
  }
  

  namespace MainCode {
    namespace ClusteringAlgorithm {
      class MainCode.ClusteringAlgorithm.KMeans {
          ~ clusteredNodes : List<Node>[]
          + addNodesToCluster()
          + initCentroids()
          + initCluster()
          + initXYForVisual()
          + moveCentroids()
          + recolorNodeInCluster()
          + repositionCentroid()
          + startSort()
      }
    }
  }
  

  namespace MainCode {
    namespace ClusteringAlgorithm {
      class MainCode.ClusteringAlgorithm.KNearestNeighbor {
          ~ distance : double[]
          ~ lines : Line[]
          ~ neighbors : Node[]
          + calculatingDistanceFromCentroidToNodes()
          + drawCentroids()
          + initCentroids()
          + initLines()
          + removeLines()
          + showLines()
          + startSort()
          + voting()
      }
    }
  }
  

  namespace MainCode {
    namespace ClusteringAlgorithm {
      class MainCode.ClusteringAlgorithm.MeanShift {
          ~ blackList : ArrayList<double[]>
          ~ circleAroundCentroid : Circle[]
          ~ minPointArgument : int
          ~ nodeBelongToCircle : ArrayList<Node>[]
          + addToBlackList()
          + checkTerritory()
          + drawCircleForCentroids()
          + getNodesBelongToCircle()
          + hideCircleForCentroids()
          + initBlackList()
          + initCentroids()
          + initCircleForCentroids()
          + initXYForVisual()
          + minPointArgumentCalculate()
          + moveCentroids()
          + printBlackList()
          + repositionCentroids1()
          + repositionCentroids2()
          + showCircleForCentroids()
          + startSort()
      }
    }
  }
  

  MainCode.ClusteringAlgorithm.KMAndMSGeneral -up-|> MainCode.ClusteringAlgorithm.AbstractClustering
  MainCode.ClusteringAlgorithm.KMeans -up-|> MainCode.ClusteringAlgorithm.KMAndMSGeneral
  MainCode.ClusteringAlgorithm.KNearestNeighbor -up-|> MainCode.ClusteringAlgorithm.AbstractClustering
  MainCode.ClusteringAlgorithm.KNearestNeighbor o- - MainCode.InSetData.Node : centroids
  MainCode.ClusteringAlgorithm.MeanShift -up-|> MainCode.ClusteringAlgorithm.KMAndMSGeneral


right footer


PlantUML diagram generated by SketchIt! (https://bitbucket.org/pmesmeur/sketch.it)
For more information about this tool, please contact philippe.mesmeur@gmail.com
endfooter

@enduml

PlantUML version 1.2021.00(Sun Jan 10 17:25:05 ICT 2021)
(GPL source distribution)
Java Runtime: OpenJDK Runtime Environment
JVM: OpenJDK 64-Bit Server VM
Default Encoding: Cp1252
Language: en
Country: US
--></g></svg>