<?xml version="1.0" encoding="UTF-8" standalone="no"?><svg xmlns="http://www.w3.org/2000/svg" xmlns:xlink="http://www.w3.org/1999/xlink" contentScriptType="application/ecmascript" contentStyleType="text/css" height="973.75px" preserveAspectRatio="none" style="width:1108px;height:973px;" version="1.1" viewBox="0 0 1108 973" width="1108.75px" zoomAndPan="magnify"><defs><filter height="300%" id="f1j8vm6a3k1ire" width="300%" x="-1" y="-1"><feGaussianBlur result="blurOut" stdDeviation="2.5"/><feColorMatrix in="blurOut" result="blurOut2" type="matrix" values="0 0 0 0 0 0 0 0 0 0 0 0 0 0 0 0 0 0 .4 0"/><feOffset dx="5.0" dy="5.0" in="blurOut2" result="blurOut3"/><feBlend in="SourceGraphic" in2="blurOut3" mode="normal"/></filter></defs><g><text fill="#000000" font-family="sans-serif" font-size="22.5" lengthAdjust="spacing" text-decoration="underline" textLength="356.25" x="368.125" y="23.3569">GENERATENODE's Class Diagram</text><text fill="#000000" font-family="sans-serif" font-size="22.5" lengthAdjust="spacing" textLength="0" x="549.375" y="51.6577"/><!--MD5=[b2031b1a8a393d7e2b81067e5168f2f9]
cluster MainCode--><polygon fill="#FFFFFF" filter="url(#f1j8vm6a3k1ire)" points="20,64.1016,116.25,64.1016,125,93.6133,1087.5,93.6133,1087.5,896.6016,20,896.6016,20,64.1016" style="stroke:#000000;stroke-width:1.875;"/><line style="stroke:#000000;stroke-width:1.875;" x1="20" x2="125" y1="93.6133" y2="93.6133"/><text fill="#000000" font-family="sans-serif" font-size="17.5" font-weight="bold" lengthAdjust="spacing" textLength="88.75" x="25" y="84.7681">MainCode</text><!--MD5=[efacd1637c727b3c7211f21bf1598582]
cluster MainCode.InSetData--><polygon fill="#FFFFFF" filter="url(#f1j8vm6a3k1ire)" points="50,119.1016,141.25,119.1016,150,148.6133,1057.5,148.6133,1057.5,866.6016,50,866.6016,50,119.1016" style="stroke:#000000;stroke-width:1.875;"/><line style="stroke:#000000;stroke-width:1.875;" x1="50" x2="150" y1="148.6133" y2="148.6133"/><text fill="#000000" font-family="sans-serif" font-size="17.5" font-weight="bold" lengthAdjust="spacing" textLength="83.75" x="55" y="139.7681">InSetData</text><!--MD5=[9ed48392bc820af335585fb1156492ea]
cluster MainCode.InSetData.GenerateNode--><polygon fill="#FFFFFF" filter="url(#f1j8vm6a3k1ire)" points="80,174.1016,216.25,174.1016,225,203.6133,940,203.6133,940,836.6016,80,836.6016,80,174.1016" style="stroke:#000000;stroke-width:1.875;"/><line style="stroke:#000000;stroke-width:1.875;" x1="80" x2="225" y1="203.6133" y2="203.6133"/><text fill="#000000" font-family="sans-serif" font-size="17.5" font-weight="bold" lengthAdjust="spacing" textLength="128.75" x="85" y="194.7681">GenerateNode</text><!--MD5=[c5626ac6ea7417fa3ba883bc6ce8c57e]
class MainCode.InSetData.Node--><rect fill="#FEFECE" filter="url(#f1j8vm6a3k1ire)" height="60" id="MainCode.InSetData.Node" style="stroke:#A80036;stroke-width:1.875;" width="77.5" x="960" y="704.7266"/><ellipse cx="978.75" cy="724.7266" fill="#ADD1B2" rx="13.75" ry="13.75" style="stroke:#A80036;stroke-width:1.25;"/><path d="M981.25,720.3516 Q981.5039,719.7266 981.7969,719.4141 Q982.0898,719.1016 982.4219,719.1016 Q983.0078,719.1016 983.3789,719.4531 Q983.75,719.8047 983.75,720.625 L983.75,722.5781 Q983.75,723.3984 983.3984,723.75 Q983.0469,724.1016 982.5,724.1016 Q982.0117,724.1016 981.6992,723.8867 Q981.3867,723.6719 981.25,723.1055 Q981.1914,722.7148 980.9766,722.5 Q980.5859,722.0898 979.8828,721.8555 Q979.1797,721.6016 978.4766,721.6016 Q977.5977,721.6016 976.8555,721.9531 Q976.1328,722.3047 975.5664,723.0859 Q975,723.8672 975,724.9414 L975,726.0938 Q975,727.3828 976.0547,728.2422 Q977.1094,729.1016 978.9844,729.1016 Q980.0977,729.1016 980.8789,728.8477 Q981.3281,728.7109 981.8359,728.2617 Q982.168,728.0078 982.3438,727.9297 Q982.5195,727.8516 982.7344,727.8516 Q983.1445,727.8516 983.4375,728.1836 Q983.75,728.4961 983.75,728.9453 Q983.75,729.375 983.3203,729.8828 Q982.6953,730.625 981.6992,731.0352 Q980.3906,731.6016 978.7891,731.6016 Q976.9141,731.6016 975.4102,730.8594 Q974.1992,730.2734 973.3398,729.0039 Q972.5,727.7344 972.5,726.2305 L972.5,724.8633 Q972.5,723.3008 973.2422,721.9336 Q974.0039,720.5664 975.3125,719.8438 Q976.6406,719.1016 978.125,719.1016 Q979.0234,719.1016 979.8047,719.4141 Q980.5859,719.7266 981.25,720.3516 Z " fill="#000000"/><text fill="#000000" font-family="sans-serif" font-size="15" lengthAdjust="spacing" textLength="37.5" x="996.25" y="730.8643">Node</text><line style="stroke:#A80036;stroke-width:1.875;" x1="961.25" x2="1036.25" y1="744.7266" y2="744.7266"/><line style="stroke:#A80036;stroke-width:1.875;" x1="961.25" x2="1036.25" y1="754.7266" y2="754.7266"/><!--MD5=[9423c954acc0352f99e5505f6cdd5964]
class MainCode.InSetData.GenerateNode.AbstractGenerateNodes--><rect codeLine="7" fill="#FEFECE" filter="url(#f1j8vm6a3k1ire)" height="336.7188" id="MainCode.InSetData.GenerateNode.AbstractGenerateNodes" style="stroke:#A80036;stroke-width:1.875;" width="250" x="428.75" y="219.1016"/><ellipse cx="467.75" cy="239.1016" fill="#A9DCDF" rx="13.75" ry="13.75" style="stroke:#A80036;stroke-width:1.25;"/><path d="M469.9375,240.9766 L465.8164,240.9766 L465.2695,242.2266 L465.2695,242.2266 L465.8555,242.2266 L466.5,243.0078 L466.5,243.4766 L466.5,243.9453 L465.8555,244.7266 L465.2695,244.7266 L462.9063,244.7266 L462.1445,244.7266 L461.5,243.9453 L461.5,243.4766 L461.5,243.0078 L462.1445,242.2266 L462.9063,242.2266 L465.7969,234.7266 L464.7031,234.7266 L463.3945,234.7266 L462.75,233.9453 L462.75,233.4766 L462.75,233.0078 L463.3945,232.2266 L464.7031,232.2266 L469.293,232.2266 L472.6523,242.2266 L473.3555,242.2266 L473.3555,242.2266 L474,243.0078 L474,243.4766 L474,243.9453 L473.3555,244.7266 L472.6523,244.7266 L470.2891,244.7266 L469.6445,244.7266 L469,243.9453 L469,243.4766 L469,243.0078 L469.6445,242.2266 L470.2891,242.2266 L470.2891,242.2266 L469.9375,240.9766 Z M469.2539,238.4766 L467.75,234.0039 L466.4609,238.4766 L469.2539,238.4766 Z " fill="#000000"/><text fill="#000000" font-family="sans-serif" font-size="15" font-style="italic" lengthAdjust="spacing" textLength="165" x="489.75" y="245.2393">AbstractGenerateNodes</text><line style="stroke:#A80036;stroke-width:1.875;" x1="430" x2="677.5" y1="259.1016" y2="259.1016"/><ellipse cx="442.5" cy="272.8516" fill="none" rx="3.75" ry="3.75" style="stroke:#038048;stroke-width:1.25;"/><text fill="#000000" font-family="sans-serif" font-size="13.75" lengthAdjust="spacing" text-decoration="underline" textLength="70" x="453.75" y="278.3752">MAX_X : int</text><ellipse cx="442.5" cy="290.1465" fill="none" rx="3.75" ry="3.75" style="stroke:#038048;stroke-width:1.25;"/><text fill="#000000" font-family="sans-serif" font-size="13.75" lengthAdjust="spacing" text-decoration="underline" textLength="71.25" x="453.75" y="295.6702">MAX_Y : int</text><polygon fill="none" points="442.5,302.4414,437.5,309.9414,447.5,309.9414" style="stroke:#1963A0;stroke-width:1.25;"/><text fill="#000000" font-family="sans-serif" font-size="13.75" lengthAdjust="spacing" textLength="92.5" x="453.75" y="312.9651">centerPoint : int</text><polygon fill="none" points="442.5,319.7363,437.5,327.2363,447.5,327.2363" style="stroke:#1963A0;stroke-width:1.25;"/><text fill="#000000" font-family="sans-serif" font-size="13.75" lengthAdjust="spacing" textLength="217.5" x="453.75" y="330.26">customCenterArea : ArrayList&lt;int[]&gt;</text><polygon fill="none" points="442.5,337.0313,437.5,344.5313,447.5,344.5313" style="stroke:#1963A0;stroke-width:1.25;"/><text fill="#000000" font-family="sans-serif" font-size="13.75" lengthAdjust="spacing" textLength="147.5" x="453.75" y="347.5549">mutatingPercent : double</text><polygon fill="none" points="442.5,354.3262,437.5,361.8262,447.5,361.8262" style="stroke:#1963A0;stroke-width:1.25;"/><text fill="#000000" font-family="sans-serif" font-size="13.75" lengthAdjust="spacing" textLength="120" x="453.75" y="364.8499">nodesTemp : Node[]</text><polygon fill="none" points="442.5,371.6211,437.5,379.1211,447.5,379.1211" style="stroke:#1963A0;stroke-width:1.25;"/><text fill="#000000" font-family="sans-serif" font-size="13.75" lengthAdjust="spacing" textLength="181.25" x="453.75" y="382.1448">numNodeForEachCluster : int[]</text><polygon fill="none" points="442.5,388.916,437.5,396.416,447.5,396.416" style="stroke:#1963A0;stroke-width:1.25;"/><text fill="#000000" font-family="sans-serif" font-size="13.75" lengthAdjust="spacing" textLength="70" x="453.75" y="399.4397">number : int</text><polygon fill="none" points="442.5,406.2109,437.5,413.7109,447.5,413.7109" style="stroke:#1963A0;stroke-width:1.25;"/><text fill="#000000" font-family="sans-serif" font-size="13.75" lengthAdjust="spacing" textLength="150" x="453.75" y="416.7346">optionForCenterPoint : int</text><polygon fill="none" points="442.5,423.5059,437.5,431.0059,447.5,431.0059" style="stroke:#1963A0;stroke-width:1.25;"/><text fill="#000000" font-family="sans-serif" font-size="13.75" lengthAdjust="spacing" textLength="88.75" x="453.75" y="434.0295">radius : double</text><line style="stroke:#A80036;stroke-width:1.875;" x1="430" x2="677.5" y1="442.0508" y2="442.0508"/><ellipse cx="442.5" cy="455.8008" fill="#84BE84" rx="3.75" ry="3.75" style="stroke:#038048;stroke-width:1.25;"/><text fill="#000000" font-family="sans-serif" font-size="13.75" font-style="italic" lengthAdjust="spacing" textLength="127.5" x="453.75" y="461.3245">customCenterPoint()</text><ellipse cx="442.5" cy="473.0957" fill="#84BE84" rx="3.75" ry="3.75" style="stroke:#038048;stroke-width:1.25;"/><text fill="#000000" font-family="sans-serif" font-size="13.75" font-style="italic" lengthAdjust="spacing" textLength="153.75" x="453.75" y="478.6194">generateNodesSpecific()</text><ellipse cx="442.5" cy="490.3906" fill="#84BE84" rx="3.75" ry="3.75" style="stroke:#038048;stroke-width:1.25;"/><text fill="#000000" font-family="sans-serif" font-size="13.75" lengthAdjust="spacing" textLength="120" x="453.75" y="495.9143">generateOneNode()</text><ellipse cx="442.5" cy="507.6855" fill="#84BE84" rx="3.75" ry="3.75" style="stroke:#038048;stroke-width:1.25;"/><text fill="#000000" font-family="sans-serif" font-size="13.75" lengthAdjust="spacing" textLength="185" x="453.75" y="513.2092">getNodeFromGenerateNodes()</text><ellipse cx="442.5" cy="524.9805" fill="#84BE84" rx="3.75" ry="3.75" style="stroke:#038048;stroke-width:1.25;"/><text fill="#000000" font-family="sans-serif" font-size="13.75" lengthAdjust="spacing" textLength="102.5" x="453.75" y="530.5042">mutatingDefault()</text><ellipse cx="442.5" cy="542.2754" fill="#84BE84" rx="3.75" ry="3.75" style="stroke:#038048;stroke-width:1.25;"/><text fill="#000000" font-family="sans-serif" font-size="13.75" font-style="italic" lengthAdjust="spacing" textLength="112.5" x="453.75" y="547.7991">mutatingSpecific()</text><!--MD5=[df7b0a512bc4f0d3d0ca23f8692a30f2]
class MainCode.InSetData.GenerateNode.GenarateANodeWithXY--><rect codeLine="33" fill="#FEFECE" filter="url(#f1j8vm6a3k1ire)" height="94.5898" id="MainCode.InSetData.GenerateNode.GenarateANodeWithXY" style="stroke:#A80036;stroke-width:1.875;" width="197.5" x="722.5" y="339.7266"/><ellipse cx="741.25" cy="359.7266" fill="#ADD1B2" rx="13.75" ry="13.75" style="stroke:#A80036;stroke-width:1.25;"/><path d="M743.75,355.3516 Q744.0039,354.7266 744.2969,354.4141 Q744.5898,354.1016 744.9219,354.1016 Q745.5078,354.1016 745.8789,354.4531 Q746.25,354.8047 746.25,355.625 L746.25,357.5781 Q746.25,358.3984 745.8984,358.75 Q745.5469,359.1016 745,359.1016 Q744.5117,359.1016 744.1992,358.8867 Q743.8867,358.6719 743.75,358.1055 Q743.6914,357.7148 743.4766,357.5 Q743.0859,357.0898 742.3828,356.8555 Q741.6797,356.6016 740.9766,356.6016 Q740.0977,356.6016 739.3555,356.9531 Q738.6328,357.3047 738.0664,358.0859 Q737.5,358.8672 737.5,359.9414 L737.5,361.0938 Q737.5,362.3828 738.5547,363.2422 Q739.6094,364.1016 741.4844,364.1016 Q742.5977,364.1016 743.3789,363.8477 Q743.8281,363.7109 744.3359,363.2617 Q744.668,363.0078 744.8438,362.9297 Q745.0195,362.8516 745.2344,362.8516 Q745.6445,362.8516 745.9375,363.1836 Q746.25,363.4961 746.25,363.9453 Q746.25,364.375 745.8203,364.8828 Q745.1953,365.625 744.1992,366.0352 Q742.8906,366.6016 741.2891,366.6016 Q739.4141,366.6016 737.9102,365.8594 Q736.6992,365.2734 735.8398,364.0039 Q735,362.7344 735,361.2305 L735,359.8633 Q735,358.3008 735.7422,356.9336 Q736.5039,355.5664 737.8125,354.8438 Q739.1406,354.1016 740.625,354.1016 Q741.5234,354.1016 742.3047,354.4141 Q743.0859,354.7266 743.75,355.3516 Z " fill="#000000"/><text fill="#000000" font-family="sans-serif" font-size="15" lengthAdjust="spacing" textLength="157.5" x="758.75" y="365.8643">GenarateANodeWithXY</text><line style="stroke:#A80036;stroke-width:1.875;" x1="723.75" x2="918.75" y1="379.7266" y2="379.7266"/><line style="stroke:#A80036;stroke-width:1.875;" x1="723.75" x2="918.75" y1="389.7266" y2="389.7266"/><ellipse cx="736.25" cy="403.4766" fill="#84BE84" rx="3.75" ry="3.75" style="stroke:#038048;stroke-width:1.25;"/><text fill="#000000" font-family="sans-serif" font-size="13.75" lengthAdjust="spacing" textLength="152.5" x="747.5" y="409.0002">GenarateANodeWithXY()</text><ellipse cx="736.25" cy="420.7715" fill="#84BE84" rx="3.75" ry="3.75" style="stroke:#038048;stroke-width:1.25;"/><text fill="#000000" font-family="sans-serif" font-size="13.75" lengthAdjust="spacing" textLength="60" x="747.5" y="426.2952">getNode()</text><!--MD5=[16358d0dedcadad7fadb2c867d7f8d3e]
class MainCode.InSetData.GenerateNode.GenerateCentroids--><rect codeLine="45" fill="#FEFECE" filter="url(#f1j8vm6a3k1ire)" height="232.9492" id="MainCode.InSetData.GenerateNode.GenerateCentroids" style="stroke:#A80036;stroke-width:1.875;" width="283.75" x="100.625" y="270.9766"/><ellipse cx="171.5625" cy="290.9766" fill="#ADD1B2" rx="13.75" ry="13.75" style="stroke:#A80036;stroke-width:1.25;"/><path d="M174.0625,286.6016 Q174.3164,285.9766 174.6094,285.6641 Q174.9023,285.3516 175.2344,285.3516 Q175.8203,285.3516 176.1914,285.7031 Q176.5625,286.0547 176.5625,286.875 L176.5625,288.8281 Q176.5625,289.6484 176.2109,290 Q175.8594,290.3516 175.3125,290.3516 Q174.8242,290.3516 174.5117,290.1367 Q174.1992,289.9219 174.0625,289.3555 Q174.0039,288.9648 173.7891,288.75 Q173.3984,288.3398 172.6953,288.1055 Q171.9922,287.8516 171.2891,287.8516 Q170.4102,287.8516 169.668,288.2031 Q168.9453,288.5547 168.3789,289.3359 Q167.8125,290.1172 167.8125,291.1914 L167.8125,292.3438 Q167.8125,293.6328 168.8672,294.4922 Q169.9219,295.3516 171.7969,295.3516 Q172.9102,295.3516 173.6914,295.0977 Q174.1406,294.9609 174.6484,294.5117 Q174.9805,294.2578 175.1563,294.1797 Q175.332,294.1016 175.5469,294.1016 Q175.957,294.1016 176.25,294.4336 Q176.5625,294.7461 176.5625,295.1953 Q176.5625,295.625 176.1328,296.1328 Q175.5078,296.875 174.5117,297.2852 Q173.2031,297.8516 171.6016,297.8516 Q169.7266,297.8516 168.2227,297.1094 Q167.0117,296.5234 166.1523,295.2539 Q165.3125,293.9844 165.3125,292.4805 L165.3125,291.1133 Q165.3125,289.5508 166.0547,288.1836 Q166.8164,286.8164 168.125,286.0938 Q169.4531,285.3516 170.9375,285.3516 Q171.8359,285.3516 172.6172,285.6641 Q173.3984,285.9766 174.0625,286.6016 Z " fill="#000000"/><text fill="#000000" font-family="sans-serif" font-size="15" lengthAdjust="spacing" textLength="131.25" x="197.1875" y="297.1143">GenerateCentroids</text><line style="stroke:#A80036;stroke-width:1.875;" x1="101.875" x2="383.125" y1="310.9766" y2="310.9766"/><ellipse cx="114.375" cy="324.7266" fill="none" rx="3.75" ry="3.75" style="stroke:#038048;stroke-width:1.25;"/><text fill="#000000" font-family="sans-serif" font-size="13.75" lengthAdjust="spacing" text-decoration="underline" textLength="70" x="125.625" y="330.2502">MAX_X : int</text><ellipse cx="114.375" cy="342.0215" fill="none" rx="3.75" ry="3.75" style="stroke:#038048;stroke-width:1.25;"/><text fill="#000000" font-family="sans-serif" font-size="13.75" lengthAdjust="spacing" text-decoration="underline" textLength="71.25" x="125.625" y="347.5452">MAX_Y : int</text><polygon fill="none" points="114.375,354.3164,109.375,361.8164,119.375,361.8164" style="stroke:#1963A0;stroke-width:1.25;"/><text fill="#000000" font-family="sans-serif" font-size="13.75" lengthAdjust="spacing" textLength="120" x="125.625" y="364.8401">nodesTemp : Node[]</text><polygon fill="none" points="114.375,371.6113,109.375,379.1113,119.375,379.1113" style="stroke:#1963A0;stroke-width:1.25;"/><text fill="#000000" font-family="sans-serif" font-size="13.75" lengthAdjust="spacing" textLength="70" x="125.625" y="382.135">number : int</text><polygon fill="none" points="114.375,388.9063,109.375,396.4063,119.375,396.4063" style="stroke:#1963A0;stroke-width:1.25;"/><text fill="#000000" font-family="sans-serif" font-size="13.75" lengthAdjust="spacing" textLength="88.75" x="125.625" y="399.4299">radius : double</text><line style="stroke:#A80036;stroke-width:1.875;" x1="101.875" x2="383.125" y1="407.4512" y2="407.4512"/><ellipse cx="114.375" cy="421.2012" fill="#84BE84" rx="3.75" ry="3.75" style="stroke:#038048;stroke-width:1.25;"/><text fill="#000000" font-family="sans-serif" font-size="13.75" lengthAdjust="spacing" textLength="123.75" x="125.625" y="426.7249">GenerateCentroids()</text><ellipse cx="114.375" cy="438.4961" fill="#84BE84" rx="3.75" ry="3.75" style="stroke:#038048;stroke-width:1.25;"/><text fill="#000000" font-family="sans-serif" font-size="13.75" lengthAdjust="spacing" textLength="190" x="125.625" y="444.0198">generateCentroidsForKMeans()</text><ellipse cx="114.375" cy="455.791" fill="#84BE84" rx="3.75" ry="3.75" style="stroke:#038048;stroke-width:1.25;"/><text fill="#000000" font-family="sans-serif" font-size="13.75" lengthAdjust="spacing" textLength="251.25" x="125.625" y="461.3147">generateCentroidsForKNearestNeighbor()</text><ellipse cx="114.375" cy="473.0859" fill="#84BE84" rx="3.75" ry="3.75" style="stroke:#038048;stroke-width:1.25;"/><text fill="#000000" font-family="sans-serif" font-size="13.75" lengthAdjust="spacing" textLength="201.25" x="125.625" y="478.6096">generateCentroidsForMeanShift()</text><ellipse cx="114.375" cy="490.3809" fill="#84BE84" rx="3.75" ry="3.75" style="stroke:#038048;stroke-width:1.25;"/><text fill="#000000" font-family="sans-serif" font-size="13.75" lengthAdjust="spacing" textLength="86.25" x="125.625" y="495.9045">getCentroids()</text><!--MD5=[af44ba6cb90bbe2c3c4c9364bed78c04]
class MainCode.InSetData.GenerateNode.KMeansGenerateNodes--><rect codeLine="65" fill="#FEFECE" filter="url(#f1j8vm6a3k1ire)" height="129.1797" id="MainCode.InSetData.GenerateNode.KMeansGenerateNodes" style="stroke:#A80036;stroke-width:1.875;" width="206.25" x="134.375" y="670.3516"/><ellipse cx="153.125" cy="690.3516" fill="#ADD1B2" rx="13.75" ry="13.75" style="stroke:#A80036;stroke-width:1.25;"/><path d="M155.625,685.9766 Q155.8789,685.3516 156.1719,685.0391 Q156.4648,684.7266 156.7969,684.7266 Q157.3828,684.7266 157.7539,685.0781 Q158.125,685.4297 158.125,686.25 L158.125,688.2031 Q158.125,689.0234 157.7734,689.375 Q157.4219,689.7266 156.875,689.7266 Q156.3867,689.7266 156.0742,689.5117 Q155.7617,689.2969 155.625,688.7305 Q155.5664,688.3398 155.3516,688.125 Q154.9609,687.7148 154.2578,687.4805 Q153.5547,687.2266 152.8516,687.2266 Q151.9727,687.2266 151.2305,687.5781 Q150.5078,687.9297 149.9414,688.7109 Q149.375,689.4922 149.375,690.5664 L149.375,691.7188 Q149.375,693.0078 150.4297,693.8672 Q151.4844,694.7266 153.3594,694.7266 Q154.4727,694.7266 155.2539,694.4727 Q155.7031,694.3359 156.2109,693.8867 Q156.543,693.6328 156.7188,693.5547 Q156.8945,693.4766 157.1094,693.4766 Q157.5195,693.4766 157.8125,693.8086 Q158.125,694.1211 158.125,694.5703 Q158.125,695 157.6953,695.5078 Q157.0703,696.25 156.0742,696.6602 Q154.7656,697.2266 153.1641,697.2266 Q151.2891,697.2266 149.7852,696.4844 Q148.5742,695.8984 147.7148,694.6289 Q146.875,693.3594 146.875,691.8555 L146.875,690.4883 Q146.875,688.9258 147.6172,687.5586 Q148.3789,686.1914 149.6875,685.4688 Q151.0156,684.7266 152.5,684.7266 Q153.3984,684.7266 154.1797,685.0391 Q154.9609,685.3516 155.625,685.9766 Z " fill="#000000"/><text fill="#000000" font-family="sans-serif" font-size="15" lengthAdjust="spacing" textLength="166.25" x="170.625" y="696.4893">KMeansGenerateNodes</text><line style="stroke:#A80036;stroke-width:1.875;" x1="135.625" x2="339.375" y1="710.3516" y2="710.3516"/><line style="stroke:#A80036;stroke-width:1.875;" x1="135.625" x2="339.375" y1="720.3516" y2="720.3516"/><ellipse cx="148.125" cy="734.1016" fill="#84BE84" rx="3.75" ry="3.75" style="stroke:#038048;stroke-width:1.25;"/><text fill="#000000" font-family="sans-serif" font-size="13.75" lengthAdjust="spacing" textLength="153.75" x="159.375" y="739.6252">KMeansGenerateNodes()</text><ellipse cx="148.125" cy="751.3965" fill="#84BE84" rx="3.75" ry="3.75" style="stroke:#038048;stroke-width:1.25;"/><text fill="#000000" font-family="sans-serif" font-size="13.75" lengthAdjust="spacing" textLength="122.5" x="159.375" y="756.9202">customCenterPoint()</text><ellipse cx="148.125" cy="768.6914" fill="#84BE84" rx="3.75" ry="3.75" style="stroke:#038048;stroke-width:1.25;"/><text fill="#000000" font-family="sans-serif" font-size="13.75" lengthAdjust="spacing" textLength="151.25" x="159.375" y="774.2151">generateNodesSpecific()</text><ellipse cx="148.125" cy="785.9863" fill="#84BE84" rx="3.75" ry="3.75" style="stroke:#038048;stroke-width:1.25;"/><text fill="#000000" font-family="sans-serif" font-size="13.75" lengthAdjust="spacing" textLength="108.75" x="159.375" y="791.51">mutatingSpecific()</text><!--MD5=[7a2836406f5079981422e133d4a01423]
class MainCode.InSetData.GenerateNode.KNearestNeighborGenerateNodes--><rect codeLine="79" fill="#FEFECE" filter="url(#f1j8vm6a3k1ire)" height="163.7695" id="MainCode.InSetData.GenerateNode.KNearestNeighborGenerateNodes" style="stroke:#A80036;stroke-width:1.875;" width="278.75" x="384.375" y="652.8516"/><ellipse cx="403.125" cy="672.8516" fill="#ADD1B2" rx="13.75" ry="13.75" style="stroke:#A80036;stroke-width:1.25;"/><path d="M405.625,668.4766 Q405.8789,667.8516 406.1719,667.5391 Q406.4648,667.2266 406.7969,667.2266 Q407.3828,667.2266 407.7539,667.5781 Q408.125,667.9297 408.125,668.75 L408.125,670.7031 Q408.125,671.5234 407.7734,671.875 Q407.4219,672.2266 406.875,672.2266 Q406.3867,672.2266 406.0742,672.0117 Q405.7617,671.7969 405.625,671.2305 Q405.5664,670.8398 405.3516,670.625 Q404.9609,670.2148 404.2578,669.9805 Q403.5547,669.7266 402.8516,669.7266 Q401.9727,669.7266 401.2305,670.0781 Q400.5078,670.4297 399.9414,671.2109 Q399.375,671.9922 399.375,673.0664 L399.375,674.2188 Q399.375,675.5078 400.4297,676.3672 Q401.4844,677.2266 403.3594,677.2266 Q404.4727,677.2266 405.2539,676.9727 Q405.7031,676.8359 406.2109,676.3867 Q406.543,676.1328 406.7188,676.0547 Q406.8945,675.9766 407.1094,675.9766 Q407.5195,675.9766 407.8125,676.3086 Q408.125,676.6211 408.125,677.0703 Q408.125,677.5 407.6953,678.0078 Q407.0703,678.75 406.0742,679.1602 Q404.7656,679.7266 403.1641,679.7266 Q401.2891,679.7266 399.7852,678.9844 Q398.5742,678.3984 397.7148,677.1289 Q396.875,675.8594 396.875,674.3555 L396.875,672.9883 Q396.875,671.4258 397.6172,670.0586 Q398.3789,668.6914 399.6875,667.9688 Q401.0156,667.2266 402.5,667.2266 Q403.3984,667.2266 404.1797,667.5391 Q404.9609,667.8516 405.625,668.4766 Z " fill="#000000"/><text fill="#000000" font-family="sans-serif" font-size="15" lengthAdjust="spacing" textLength="238.75" x="420.625" y="678.9893">KNearestNeighborGenerateNodes</text><line style="stroke:#A80036;stroke-width:1.875;" x1="385.625" x2="661.875" y1="692.8516" y2="692.8516"/><ellipse cx="398.125" cy="706.6016" fill="none" rx="3.75" ry="3.75" style="stroke:#038048;stroke-width:1.25;"/><text fill="#000000" font-family="sans-serif" font-size="13.75" lengthAdjust="spacing" textLength="138.75" x="409.375" y="712.1252">colorForNodes : Color[]</text><line style="stroke:#A80036;stroke-width:1.875;" x1="385.625" x2="661.875" y1="720.1465" y2="720.1465"/><ellipse cx="398.125" cy="733.8965" fill="#84BE84" rx="3.75" ry="3.75" style="stroke:#038048;stroke-width:1.25;"/><text fill="#000000" font-family="sans-serif" font-size="13.75" lengthAdjust="spacing" textLength="215" x="409.375" y="739.4202">KNearestNeighborGenerateNodes()</text><ellipse cx="398.125" cy="751.1914" fill="#84BE84" rx="3.75" ry="3.75" style="stroke:#038048;stroke-width:1.25;"/><text fill="#000000" font-family="sans-serif" font-size="13.75" lengthAdjust="spacing" textLength="122.5" x="409.375" y="756.7151">customCenterPoint()</text><ellipse cx="398.125" cy="768.4863" fill="#84BE84" rx="3.75" ry="3.75" style="stroke:#038048;stroke-width:1.25;"/><text fill="#000000" font-family="sans-serif" font-size="13.75" lengthAdjust="spacing" textLength="157.5" x="409.375" y="774.01">generateColorForCluster()</text><ellipse cx="398.125" cy="785.7813" fill="#84BE84" rx="3.75" ry="3.75" style="stroke:#038048;stroke-width:1.25;"/><text fill="#000000" font-family="sans-serif" font-size="13.75" lengthAdjust="spacing" textLength="151.25" x="409.375" y="791.3049">generateNodesSpecific()</text><ellipse cx="398.125" cy="803.0762" fill="#84BE84" rx="3.75" ry="3.75" style="stroke:#038048;stroke-width:1.25;"/><text fill="#000000" font-family="sans-serif" font-size="13.75" lengthAdjust="spacing" textLength="108.75" x="409.375" y="808.5999">mutatingSpecific()</text><!--MD5=[53849dcf9ec6fdaca7e24223f05055d7]
class MainCode.InSetData.GenerateNode.MeanShiftGenerateNode--><rect codeLine="95" fill="#FEFECE" filter="url(#f1j8vm6a3k1ire)" height="146.4746" id="MainCode.InSetData.GenerateNode.MeanShiftGenerateNode" style="stroke:#A80036;stroke-width:1.875;" width="208.75" x="706.875" y="661.6016"/><ellipse cx="725.625" cy="681.6016" fill="#ADD1B2" rx="13.75" ry="13.75" style="stroke:#A80036;stroke-width:1.25;"/><path d="M728.125,677.2266 Q728.3789,676.6016 728.6719,676.2891 Q728.9648,675.9766 729.2969,675.9766 Q729.8828,675.9766 730.2539,676.3281 Q730.625,676.6797 730.625,677.5 L730.625,679.4531 Q730.625,680.2734 730.2734,680.625 Q729.9219,680.9766 729.375,680.9766 Q728.8867,680.9766 728.5742,680.7617 Q728.2617,680.5469 728.125,679.9805 Q728.0664,679.5898 727.8516,679.375 Q727.4609,678.9648 726.7578,678.7305 Q726.0547,678.4766 725.3516,678.4766 Q724.4727,678.4766 723.7305,678.8281 Q723.0078,679.1797 722.4414,679.9609 Q721.875,680.7422 721.875,681.8164 L721.875,682.9688 Q721.875,684.2578 722.9297,685.1172 Q723.9844,685.9766 725.8594,685.9766 Q726.9727,685.9766 727.7539,685.7227 Q728.2031,685.5859 728.7109,685.1367 Q729.043,684.8828 729.2188,684.8047 Q729.3945,684.7266 729.6094,684.7266 Q730.0195,684.7266 730.3125,685.0586 Q730.625,685.3711 730.625,685.8203 Q730.625,686.25 730.1953,686.7578 Q729.5703,687.5 728.5742,687.9102 Q727.2656,688.4766 725.6641,688.4766 Q723.7891,688.4766 722.2852,687.7344 Q721.0742,687.1484 720.2148,685.8789 Q719.375,684.6094 719.375,683.1055 L719.375,681.7383 Q719.375,680.1758 720.1172,678.8086 Q720.8789,677.4414 722.1875,676.7188 Q723.5156,675.9766 725,675.9766 Q725.8984,675.9766 726.6797,676.2891 Q727.4609,676.6016 728.125,677.2266 Z " fill="#000000"/><text fill="#000000" font-family="sans-serif" font-size="15" lengthAdjust="spacing" textLength="168.75" x="743.125" y="687.7393">MeanShiftGenerateNode</text><line style="stroke:#A80036;stroke-width:1.875;" x1="708.125" x2="914.375" y1="701.6016" y2="701.6016"/><line style="stroke:#A80036;stroke-width:1.875;" x1="708.125" x2="914.375" y1="711.6016" y2="711.6016"/><ellipse cx="720.625" cy="725.3516" fill="#84BE84" rx="3.75" ry="3.75" style="stroke:#038048;stroke-width:1.25;"/><text fill="#000000" font-family="sans-serif" font-size="13.75" lengthAdjust="spacing" textLength="157.5" x="731.875" y="730.8752">MeanShiftGenerateNode()</text><ellipse cx="720.625" cy="742.6465" fill="#84BE84" rx="3.75" ry="3.75" style="stroke:#038048;stroke-width:1.25;"/><text fill="#000000" font-family="sans-serif" font-size="13.75" lengthAdjust="spacing" textLength="126.25" x="731.875" y="748.1702">centeringMeanShift()</text><ellipse cx="720.625" cy="759.9414" fill="#84BE84" rx="3.75" ry="3.75" style="stroke:#038048;stroke-width:1.25;"/><text fill="#000000" font-family="sans-serif" font-size="13.75" lengthAdjust="spacing" textLength="122.5" x="731.875" y="765.4651">customCenterPoint()</text><ellipse cx="720.625" cy="777.2363" fill="#84BE84" rx="3.75" ry="3.75" style="stroke:#038048;stroke-width:1.25;"/><text fill="#000000" font-family="sans-serif" font-size="13.75" lengthAdjust="spacing" textLength="151.25" x="731.875" y="782.76">generateNodesSpecific()</text><ellipse cx="720.625" cy="794.5313" fill="#84BE84" rx="3.75" ry="3.75" style="stroke:#038048;stroke-width:1.25;"/><text fill="#000000" font-family="sans-serif" font-size="13.75" lengthAdjust="spacing" textLength="108.75" x="731.875" y="800.0549">mutatingSpecific()</text><!--MD5=[99861f4a80faaa362e0900aea7d76ec6]
reverse link MainCode.InSetData.GenerateNode.GenarateANodeWithXY to MainCode.InSetData.Node--><path codeLine="107" d="M852.775,449.7516 C891.3125,524.6516 954.9375,648.3141 983.75,704.3141 " fill="none" id="MainCode.InSetData.GenerateNode.GenarateANodeWithXY-backto-MainCode.InSetData.Node" style="stroke:#A80036;stroke-width:1.25;"/><polygon fill="#FFFFFF" points="845.1875,435.0016,844.1707,443.9579,852.047,448.3413,853.0638,439.3849,845.1875,435.0016" style="stroke:#A80036;stroke-width:1.25;"/><text fill="#000000" font-family="sans-serif" font-size="16.25" lengthAdjust="spacing" textLength="35" x="937.5" y="610.9705">node</text><!--MD5=[b7c18e42304f5731d9e5ad31a7922411]
reverse link MainCode.InSetData.GenerateNode.AbstractGenerateNodes to MainCode.InSetData.GenerateNode.KMeansGenerateNodes--><path codeLine="108" d="M411.7625,549.3141 C409.9125,551.3391 408.075,553.3516 406.25,555.3516 C371.025,593.8516 330.8625,636.2891 298.5625,670.0891 " fill="none" id="MainCode.InSetData.GenerateNode.AbstractGenerateNodes-backto-MainCode.InSetData.GenerateNode.KMeansGenerateNodes" style="stroke:#A80036;stroke-width:1.25;"/><polygon fill="none" points="405.275,543.4391,428.55,530.7891,418.25,555.1891,405.275,543.4391" style="stroke:#A80036;stroke-width:1.25;"/><!--MD5=[00ecf69d0eec2bff072d6b747bd6030a]
reverse link MainCode.InSetData.GenerateNode.AbstractGenerateNodes to MainCode.InSetData.GenerateNode.KNearestNeighborGenerateNodes--><path codeLine="109" d="M537.0625,580.4016 C534.85,605.8141 532.6875,630.6641 530.775,652.6891 " fill="none" id="MainCode.InSetData.GenerateNode.AbstractGenerateNodes-backto-MainCode.InSetData.GenerateNode.KNearestNeighborGenerateNodes" style="stroke:#A80036;stroke-width:1.25;"/><polygon fill="none" points="528.35,579.5641,539.2375,555.4141,545.7875,581.0766,528.35,579.5641" style="stroke:#A80036;stroke-width:1.25;"/><!--MD5=[62c579503cf9db25335a2aafecad1765]
reverse link MainCode.InSetData.GenerateNode.AbstractGenerateNodes to MainCode.InSetData.GenerateNode.MeanShiftGenerateNode--><path codeLine="110" d="M640.65,577.5766 C649.0875,590.7766 658.05,603.5141 667.5,615.3516 C680.5,631.6266 696.075,647.2016 712.1,661.4016 " fill="none" id="MainCode.InSetData.GenerateNode.AbstractGenerateNodes-backto-MainCode.InSetData.GenerateNode.MeanShiftGenerateNode" style="stroke:#A80036;stroke-width:1.25;"/><polygon fill="none" points="632.9125,581.6891,627.4,555.7766,647.8625,572.6016,632.9125,581.6891" style="stroke:#A80036;stroke-width:1.25;"/><text fill="#888888" font-family="sans-serif" font-size="12.5" lengthAdjust="spacing" textLength="0" x="1092.5" y="917.0776"/><text fill="#888888" font-family="sans-serif" font-size="12.5" lengthAdjust="spacing" textLength="0" x="1092.5" y="932.8003"/><text fill="#888888" font-family="sans-serif" font-size="12.5" lengthAdjust="spacing" textLength="490" x="602.5" y="948.5229">PlantUML diagram generated by SketchIt! (https://bitbucket.org/pmesmeur/sketch.it)</text><text fill="#888888" font-family="sans-serif" font-size="12.5" lengthAdjust="spacing" textLength="492.5" x="600" y="964.2456">For more information about this tool, please contact philippe.mesmeur@gmail.com</text><!--MD5=[3b1296fffd46b4acbac30e9df2af25a0]
@startuml

title __GENERATENODE's Class Diagram__\n

  namespace MainCode {
    namespace InSetData {
      namespace GenerateNode {
        abstract class MainCode.InSetData.GenerateNode.AbstractGenerateNodes {
            {static} + MAX_X : int
            {static} + MAX_Y : int
            ~ centerPoint : int
            ~ customCenterArea : ArrayList<int[]>
            ~ mutatingPercent : double
            ~ nodesTemp : Node[]
            ~ numNodeForEachCluster : int[]
            ~ number : int
            ~ optionForCenterPoint : int
            ~ radius : double
            {abstract} + customCenterPoint()
            {abstract} + generateNodesSpecific()
            + generateOneNode()
            + getNodeFromGenerateNodes()
            + mutatingDefault()
            {abstract} + mutatingSpecific()
        }
      }
    }
  }
  

  namespace MainCode {
    namespace InSetData {
      namespace GenerateNode {
        class MainCode.InSetData.GenerateNode.GenarateANodeWithXY {
            + GenarateANodeWithXY()
            + getNode()
        }
      }
    }
  }
  

  namespace MainCode {
    namespace InSetData {
      namespace GenerateNode {
        class MainCode.InSetData.GenerateNode.GenerateCentroids {
            {static} + MAX_X : int
            {static} + MAX_Y : int
            ~ nodesTemp : Node[]
            ~ number : int
            ~ radius : double
            + GenerateCentroids()
            + generateCentroidsForKMeans()
            + generateCentroidsForKNearestNeighbor()
            + generateCentroidsForMeanShift()
            + getCentroids()
        }
      }
    }
  }
  

  namespace MainCode {
    namespace InSetData {
      namespace GenerateNode {
        class MainCode.InSetData.GenerateNode.KMeansGenerateNodes {
            + KMeansGenerateNodes()
            + customCenterPoint()
            + generateNodesSpecific()
            + mutatingSpecific()
        }
      }
    }
  }
  

  namespace MainCode {
    namespace InSetData {
      namespace GenerateNode {
        class MainCode.InSetData.GenerateNode.KNearestNeighborGenerateNodes {
            + colorForNodes : Color[]
            + KNearestNeighborGenerateNodes()
            + customCenterPoint()
            + generateColorForCluster()
            + generateNodesSpecific()
            + mutatingSpecific()
        }
      }
    }
  }
  

  namespace MainCode {
    namespace InSetData {
      namespace GenerateNode {
        class MainCode.InSetData.GenerateNode.MeanShiftGenerateNode {
            + MeanShiftGenerateNode()
            + centeringMeanShift()
            + customCenterPoint()
            + generateNodesSpecific()
            + mutatingSpecific()
        }
      }
    }
  }
  

  MainCode.InSetData.GenerateNode.GenarateANodeWithXY o- - MainCode.InSetData.Node : node
  MainCode.InSetData.GenerateNode.KMeansGenerateNodes -up-|> MainCode.InSetData.GenerateNode.AbstractGenerateNodes
  MainCode.InSetData.GenerateNode.KNearestNeighborGenerateNodes -up-|> MainCode.InSetData.GenerateNode.AbstractGenerateNodes
  MainCode.InSetData.GenerateNode.MeanShiftGenerateNode -up-|> MainCode.InSetData.GenerateNode.AbstractGenerateNodes


right footer


PlantUML diagram generated by SketchIt! (https://bitbucket.org/pmesmeur/sketch.it)
For more information about this tool, please contact philippe.mesmeur@gmail.com
endfooter

@enduml

PlantUML version 1.2021.00(Sun Jan 10 17:25:05 ICT 2021)
(GPL source distribution)
Java Runtime: OpenJDK Runtime Environment
JVM: OpenJDK 64-Bit Server VM
Default Encoding: Cp1252
Language: en
Country: US
--></g></svg>