<?xml version="1.0" encoding="UTF-8" standalone="no"?><svg xmlns="http://www.w3.org/2000/svg" xmlns:xlink="http://www.w3.org/1999/xlink" contentScriptType="application/ecmascript" contentStyleType="text/css" height="662.5px" preserveAspectRatio="none" style="width:517px;height:662px;" version="1.1" viewBox="0 0 517 662" width="517.5px" zoomAndPan="magnify"><defs><filter height="300%" id="f19wu9ohh40v55" width="300%" x="-1" y="-1"><feGaussianBlur result="blurOut" stdDeviation="2.5"/><feColorMatrix in="blurOut" result="blurOut2" type="matrix" values="0 0 0 0 0 0 0 0 0 0 0 0 0 0 0 0 0 0 .4 0"/><feOffset dx="5.0" dy="5.0" in="blurOut2" result="blurOut3"/><feBlend in="SourceGraphic" in2="blurOut3" mode="normal"/></filter></defs><g><text fill="#000000" font-family="sans-serif" font-size="22.5" lengthAdjust="spacing" text-decoration="underline" textLength="292.5" x="104.375" y="23.3569">INSETDATA's Class Diagram</text><text fill="#000000" font-family="sans-serif" font-size="22.5" lengthAdjust="spacing" textLength="0" x="253.75" y="51.6577"/><!--MD5=[b2031b1a8a393d7e2b81067e5168f2f9]
cluster MainCode--><polygon fill="#FFFFFF" filter="url(#f19wu9ohh40v55)" points="20,219.1016,116.25,219.1016,125,248.6133,496.25,248.6133,496.25,585.3516,20,585.3516,20,219.1016" style="stroke:#000000;stroke-width:1.875;"/><line style="stroke:#000000;stroke-width:1.875;" x1="20" x2="125" y1="248.6133" y2="248.6133"/><text fill="#000000" font-family="sans-serif" font-size="17.5" font-weight="bold" lengthAdjust="spacing" textLength="88.75" x="25" y="239.7681">MainCode</text><!--MD5=[efacd1637c727b3c7211f21bf1598582]
cluster MainCode.InSetData--><polygon fill="#FFFFFF" filter="url(#f19wu9ohh40v55)" points="50,274.1016,141.25,274.1016,150,303.6133,466.25,303.6133,466.25,555.3516,50,555.3516,50,274.1016" style="stroke:#000000;stroke-width:1.875;"/><line style="stroke:#000000;stroke-width:1.875;" x1="50" x2="150" y1="303.6133" y2="303.6133"/><text fill="#000000" font-family="sans-serif" font-size="17.5" font-weight="bold" lengthAdjust="spacing" textLength="83.75" x="55" y="294.7681">InSetData</text><!--MD5=[832cfce525ca280bda851355cc57458b]
cluster javafx.scene.shape--><polygon fill="#FFFFFF" filter="url(#f19wu9ohh40v55)" points="55,64.1016,232.5,64.1016,241.25,93.6133,245,93.6133,245,189.1016,55,189.1016,55,64.1016" style="stroke:#000000;stroke-width:1.875;"/><line style="stroke:#000000;stroke-width:1.875;" x1="55" x2="241.25" y1="93.6133" y2="93.6133"/><text fill="#000000" font-family="sans-serif" font-size="17.5" font-weight="bold" lengthAdjust="spacing" textLength="170" x="60" y="84.7681">javafx.scene.shape</text><!--MD5=[be9959a86df3a81c25af57a84f14c57c]
class MainCode.InSetData.ListOfNodes--><rect codeLine="6" fill="#FEFECE" filter="url(#f19wu9ohh40v55)" height="215.6543" id="MainCode.InSetData.ListOfNodes" style="stroke:#A80036;stroke-width:1.875;" width="173.75" x="271.875" y="319.1016"/><ellipse cx="312" cy="339.1016" fill="#ADD1B2" rx="13.75" ry="13.75" style="stroke:#A80036;stroke-width:1.25;"/><path d="M314.5,334.7266 Q314.7539,334.1016 315.0469,333.7891 Q315.3398,333.4766 315.6719,333.4766 Q316.2578,333.4766 316.6289,333.8281 Q317,334.1797 317,335 L317,336.9531 Q317,337.7734 316.6484,338.125 Q316.2969,338.4766 315.75,338.4766 Q315.2617,338.4766 314.9492,338.2617 Q314.6367,338.0469 314.5,337.4805 Q314.4414,337.0898 314.2266,336.875 Q313.8359,336.4648 313.1328,336.2305 Q312.4297,335.9766 311.7266,335.9766 Q310.8477,335.9766 310.1055,336.3281 Q309.3828,336.6797 308.8164,337.4609 Q308.25,338.2422 308.25,339.3164 L308.25,340.4688 Q308.25,341.7578 309.3047,342.6172 Q310.3594,343.4766 312.2344,343.4766 Q313.3477,343.4766 314.1289,343.2227 Q314.5781,343.0859 315.0859,342.6367 Q315.418,342.3828 315.5938,342.3047 Q315.7695,342.2266 315.9844,342.2266 Q316.3945,342.2266 316.6875,342.5586 Q317,342.8711 317,343.3203 Q317,343.75 316.5703,344.2578 Q315.9453,345 314.9492,345.4102 Q313.6406,345.9766 312.0391,345.9766 Q310.1641,345.9766 308.6602,345.2344 Q307.4492,344.6484 306.5898,343.3789 Q305.75,342.1094 305.75,340.6055 L305.75,339.2383 Q305.75,337.6758 306.4922,336.3086 Q307.2539,334.9414 308.5625,334.2188 Q309.8906,333.4766 311.375,333.4766 Q312.2734,333.4766 313.0547,333.7891 Q313.8359,334.1016 314.5,334.7266 Z " fill="#000000"/><text fill="#000000" font-family="sans-serif" font-size="15" lengthAdjust="spacing" textLength="86.25" x="334.25" y="345.2393">ListOfNodes</text><line style="stroke:#A80036;stroke-width:1.875;" x1="273.125" x2="444.375" y1="359.1016" y2="359.1016"/><polygon fill="none" points="285.625,367.8516,280.625,375.3516,290.625,375.3516" style="stroke:#1963A0;stroke-width:1.25;"/><text fill="#000000" font-family="sans-serif" font-size="13.75" lengthAdjust="spacing" textLength="87.5" x="296.875" y="378.3752">nodes : Node[]</text><polygon fill="none" points="285.625,385.1465,280.625,392.6465,290.625,392.6465" style="stroke:#1963A0;stroke-width:1.25;"/><text fill="#000000" font-family="sans-serif" font-size="13.75" lengthAdjust="spacing" textLength="88.75" x="296.875" y="395.6702">numNodes : int</text><line style="stroke:#A80036;stroke-width:1.875;" x1="273.125" x2="444.375" y1="403.6914" y2="403.6914"/><ellipse cx="285.625" cy="417.4414" fill="#84BE84" rx="3.75" ry="3.75" style="stroke:#038048;stroke-width:1.25;"/><text fill="#000000" font-family="sans-serif" font-size="13.75" lengthAdjust="spacing" textLength="70" x="296.875" y="422.9651">GetNodes()</text><ellipse cx="285.625" cy="434.7363" fill="#84BE84" rx="3.75" ry="3.75" style="stroke:#038048;stroke-width:1.25;"/><text fill="#000000" font-family="sans-serif" font-size="13.75" lengthAdjust="spacing" textLength="85" x="296.875" y="440.26">ListOfNodes()</text><ellipse cx="285.625" cy="452.0313" fill="#84BE84" rx="3.75" ry="3.75" style="stroke:#038048;stroke-width:1.25;"/><text fill="#000000" font-family="sans-serif" font-size="13.75" lengthAdjust="spacing" textLength="75" x="296.875" y="457.5549">PrintNodes()</text><ellipse cx="285.625" cy="469.3262" fill="#84BE84" rx="3.75" ry="3.75" style="stroke:#038048;stroke-width:1.25;"/><text fill="#000000" font-family="sans-serif" font-size="13.75" lengthAdjust="spacing" textLength="141.25" x="296.875" y="474.8499">RemovenNodesAtEnd()</text><ellipse cx="285.625" cy="486.6211" fill="#84BE84" rx="3.75" ry="3.75" style="stroke:#038048;stroke-width:1.25;"/><text fill="#000000" font-family="sans-serif" font-size="13.75" lengthAdjust="spacing" textLength="73.75" x="296.875" y="492.1448">addANode()</text><ellipse cx="285.625" cy="503.916" fill="#84BE84" rx="3.75" ry="3.75" style="stroke:#038048;stroke-width:1.25;"/><text fill="#000000" font-family="sans-serif" font-size="13.75" lengthAdjust="spacing" textLength="71.25" x="296.875" y="509.4397">addNodes()</text><ellipse cx="285.625" cy="521.2109" fill="#84BE84" rx="3.75" ry="3.75" style="stroke:#038048;stroke-width:1.25;"/><text fill="#000000" font-family="sans-serif" font-size="13.75" lengthAdjust="spacing" textLength="65" x="296.875" y="526.7346">initNodes()</text><!--MD5=[c5626ac6ea7417fa3ba883bc6ce8c57e]
class MainCode.InSetData.Node--><rect codeLine="23" fill="#FEFECE" filter="url(#f19wu9ohh40v55)" height="129.1797" id="MainCode.InSetData.Node" style="stroke:#A80036;stroke-width:1.875;" width="157.5" x="70" y="362.8516"/><ellipse cx="124.75" cy="382.8516" fill="#ADD1B2" rx="13.75" ry="13.75" style="stroke:#A80036;stroke-width:1.25;"/><path d="M127.25,378.4766 Q127.5039,377.8516 127.7969,377.5391 Q128.0898,377.2266 128.4219,377.2266 Q129.0078,377.2266 129.3789,377.5781 Q129.75,377.9297 129.75,378.75 L129.75,380.7031 Q129.75,381.5234 129.3984,381.875 Q129.0469,382.2266 128.5,382.2266 Q128.0117,382.2266 127.6992,382.0117 Q127.3867,381.7969 127.25,381.2305 Q127.1914,380.8398 126.9766,380.625 Q126.5859,380.2148 125.8828,379.9805 Q125.1797,379.7266 124.4766,379.7266 Q123.5977,379.7266 122.8555,380.0781 Q122.1328,380.4297 121.5664,381.2109 Q121,381.9922 121,383.0664 L121,384.2188 Q121,385.5078 122.0547,386.3672 Q123.1094,387.2266 124.9844,387.2266 Q126.0977,387.2266 126.8789,386.9727 Q127.3281,386.8359 127.8359,386.3867 Q128.168,386.1328 128.3438,386.0547 Q128.5195,385.9766 128.7344,385.9766 Q129.1445,385.9766 129.4375,386.3086 Q129.75,386.6211 129.75,387.0703 Q129.75,387.5 129.3203,388.0078 Q128.6953,388.75 127.6992,389.1602 Q126.3906,389.7266 124.7891,389.7266 Q122.9141,389.7266 121.4102,388.9844 Q120.1992,388.3984 119.3398,387.1289 Q118.5,385.8594 118.5,384.3555 L118.5,382.9883 Q118.5,381.4258 119.2422,380.0586 Q120.0039,378.6914 121.3125,377.9688 Q122.6406,377.2266 124.125,377.2266 Q125.0234,377.2266 125.8047,377.5391 Q126.5859,377.8516 127.25,378.4766 Z " fill="#000000"/><text fill="#000000" font-family="sans-serif" font-size="15" lengthAdjust="spacing" textLength="37.5" x="150.25" y="388.9893">Node</text><line style="stroke:#A80036;stroke-width:1.875;" x1="71.25" x2="226.25" y1="402.8516" y2="402.8516"/><rect fill="none" height="7.5" style="stroke:#C82930;stroke-width:1.25;" width="7.5" x="80" y="412.8516"/><text fill="#000000" font-family="sans-serif" font-size="13.75" lengthAdjust="spacing" textLength="125" x="95" y="422.1252">nameOfNode : String</text><line style="stroke:#A80036;stroke-width:1.875;" x1="71.25" x2="226.25" y1="430.1465" y2="430.1465"/><ellipse cx="83.75" cy="443.8965" fill="#84BE84" rx="3.75" ry="3.75" style="stroke:#038048;stroke-width:1.25;"/><text fill="#000000" font-family="sans-serif" font-size="13.75" lengthAdjust="spacing" textLength="41.25" x="95" y="449.4202">Node()</text><ellipse cx="83.75" cy="461.1914" fill="#84BE84" rx="3.75" ry="3.75" style="stroke:#038048;stroke-width:1.25;"/><text fill="#000000" font-family="sans-serif" font-size="13.75" lengthAdjust="spacing" textLength="108.75" x="95" y="466.7151">getNameOfNode()</text><ellipse cx="83.75" cy="478.4863" fill="#84BE84" rx="3.75" ry="3.75" style="stroke:#038048;stroke-width:1.25;"/><text fill="#000000" font-family="sans-serif" font-size="13.75" lengthAdjust="spacing" textLength="108.75" x="95" y="484.01">setNameOfNode()</text><!--MD5=[5670e7cb7c152ac72a1c0084cfffe9d8]
class javafx.scene.shape.Circle--><rect fill="#FEFECE" filter="url(#f19wu9ohh40v55)" height="60" id="javafx.scene.shape.Circle" style="stroke:#A80036;stroke-width:1.875;" width="80" x="108.75" y="109.1016"/><ellipse cx="127.5" cy="129.1016" fill="#ADD1B2" rx="13.75" ry="13.75" style="stroke:#A80036;stroke-width:1.25;"/><path d="M130,124.7266 Q130.2539,124.1016 130.5469,123.7891 Q130.8398,123.4766 131.1719,123.4766 Q131.7578,123.4766 132.1289,123.8281 Q132.5,124.1797 132.5,125 L132.5,126.9531 Q132.5,127.7734 132.1484,128.125 Q131.7969,128.4766 131.25,128.4766 Q130.7617,128.4766 130.4492,128.2617 Q130.1367,128.0469 130,127.4805 Q129.9414,127.0898 129.7266,126.875 Q129.3359,126.4648 128.6328,126.2305 Q127.9297,125.9766 127.2266,125.9766 Q126.3477,125.9766 125.6055,126.3281 Q124.8828,126.6797 124.3164,127.4609 Q123.75,128.2422 123.75,129.3164 L123.75,130.4688 Q123.75,131.7578 124.8047,132.6172 Q125.8594,133.4766 127.7344,133.4766 Q128.8477,133.4766 129.6289,133.2227 Q130.0781,133.0859 130.5859,132.6367 Q130.918,132.3828 131.0938,132.3047 Q131.2695,132.2266 131.4844,132.2266 Q131.8945,132.2266 132.1875,132.5586 Q132.5,132.8711 132.5,133.3203 Q132.5,133.75 132.0703,134.2578 Q131.4453,135 130.4492,135.4102 Q129.1406,135.9766 127.5391,135.9766 Q125.6641,135.9766 124.1602,135.2344 Q122.9492,134.6484 122.0898,133.3789 Q121.25,132.1094 121.25,130.6055 L121.25,129.2383 Q121.25,127.6758 121.9922,126.3086 Q122.7539,124.9414 124.0625,124.2188 Q125.3906,123.4766 126.875,123.4766 Q127.7734,123.4766 128.5547,123.7891 Q129.3359,124.1016 130,124.7266 Z " fill="#000000"/><text fill="#000000" font-family="sans-serif" font-size="15" lengthAdjust="spacing" textLength="40" x="145" y="135.2393">Circle</text><line style="stroke:#A80036;stroke-width:1.875;" x1="110" x2="187.5" y1="149.1016" y2="149.1016"/><line style="stroke:#A80036;stroke-width:1.875;" x1="110" x2="187.5" y1="159.1016" y2="159.1016"/><!--MD5=[2485a16c46eb78e020edceeaa9d72d98]
reverse link javafx.scene.shape.Circle to MainCode.InSetData.Node--><path codeLine="33" d="M148.75,194.3266 C148.75,242.2391 148.75,312.2766 148.75,362.7766 " fill="none" id="javafx.scene.shape.Circle-backto-MainCode.InSetData.Node" style="stroke:#A80036;stroke-width:1.25;"/><polygon fill="none" points="140,194.3141,148.75,169.3141,157.5,194.3141,140,194.3141" style="stroke:#A80036;stroke-width:1.25;"/><text fill="#888888" font-family="sans-serif" font-size="12.5" lengthAdjust="spacing" textLength="0" x="501.25" y="605.8276"/><text fill="#888888" font-family="sans-serif" font-size="12.5" lengthAdjust="spacing" textLength="0" x="501.25" y="621.5503"/><text fill="#888888" font-family="sans-serif" font-size="12.5" lengthAdjust="spacing" textLength="490" x="11.25" y="637.2729">PlantUML diagram generated by SketchIt! (https://bitbucket.org/pmesmeur/sketch.it)</text><text fill="#888888" font-family="sans-serif" font-size="12.5" lengthAdjust="spacing" textLength="492.5" x="8.75" y="652.9956">For more information about this tool, please contact philippe.mesmeur@gmail.com</text><!--MD5=[2c6a0b2b4c8d13bbc1bec7fd18d2a996]
@startuml

title __INSETDATA's Class Diagram__\n

  namespace MainCode {
    namespace InSetData {
      class MainCode.InSetData.ListOfNodes {
          ~ nodes : Node[]
          ~ numNodes : int
          + GetNodes()
          + ListOfNodes()
          + PrintNodes()
          + RemovenNodesAtEnd()
          + addANode()
          + addNodes()
          + initNodes()
      }
    }
  }
  

  namespace MainCode {
    namespace InSetData {
      class MainCode.InSetData.Node {
          - nameOfNode : String
          + Node()
          + getNameOfNode()
          + setNameOfNode()
      }
    }
  }
  

  MainCode.InSetData.Node -up-|> javafx.scene.shape.Circle


right footer


PlantUML diagram generated by SketchIt! (https://bitbucket.org/pmesmeur/sketch.it)
For more information about this tool, please contact philippe.mesmeur@gmail.com
endfooter

@enduml

PlantUML version 1.2021.00(Sun Jan 10 17:25:05 ICT 2021)
(GPL source distribution)
Java Runtime: OpenJDK Runtime Environment
JVM: OpenJDK 64-Bit Server VM
Default Encoding: Cp1252
Language: en
Country: US
--></g></svg>