<?xml version="1.0" encoding="UTF-8" standalone="no"?><svg xmlns="http://www.w3.org/2000/svg" xmlns:xlink="http://www.w3.org/1999/xlink" contentScriptType="application/ecmascript" contentStyleType="text/css" height="1935px" preserveAspectRatio="none" style="width:780px;height:1935px;" version="1.1" viewBox="0 0 780 1935" width="780px" zoomAndPan="magnify"><defs><filter height="300%" id="f84e4jspuwzc4" width="300%" x="-1" y="-1"><feGaussianBlur result="blurOut" stdDeviation="2.5"/><feColorMatrix in="blurOut" result="blurOut2" type="matrix" values="0 0 0 0 0 0 0 0 0 0 0 0 0 0 0 0 0 0 .4 0"/><feOffset dx="5.0" dy="5.0" in="blurOut2" result="blurOut3"/><feBlend in="SourceGraphic" in2="blurOut3" mode="normal"/></filter></defs><g><text fill="#000000" font-family="sans-serif" font-size="22.5" lengthAdjust="spacing" text-decoration="underline" textLength="286.25" x="238.75" y="23.3569">MAINCODE's Class Diagram</text><text fill="#000000" font-family="sans-serif" font-size="22.5" lengthAdjust="spacing" textLength="0" x="385" y="51.6577"/><!--MD5=[b2031b1a8a393d7e2b81067e5168f2f9]
cluster MainCode--><polygon fill="#FFFFFF" filter="url(#f84e4jspuwzc4)" points="20,230.3516,116.25,230.3516,125,259.8633,727.5,259.8633,727.5,1670.3516,20,1670.3516,20,230.3516" style="stroke:#000000;stroke-width:1.875;"/><line style="stroke:#000000;stroke-width:1.875;" x1="20" x2="125" y1="259.8633" y2="259.8633"/><text fill="#000000" font-family="sans-serif" font-size="17.5" font-weight="bold" lengthAdjust="spacing" textLength="88.75" x="25" y="251.0181">MainCode</text><!--MD5=[038b3b634a15bdf03051a317fd208e11]
cluster javafx.fxml--><polygon fill="#FFFFFF" filter="url(#f84e4jspuwzc4)" points="112.5,64.1016,213.75,64.1016,222.5,93.6133,270,93.6133,270,189.1016,112.5,189.1016,112.5,64.1016" style="stroke:#000000;stroke-width:1.875;"/><line style="stroke:#000000;stroke-width:1.875;" x1="112.5" x2="222.5" y1="93.6133" y2="93.6133"/><text fill="#000000" font-family="sans-serif" font-size="17.5" font-weight="bold" lengthAdjust="spacing" textLength="93.75" x="117.5" y="84.7681">javafx.fxml</text><!--MD5=[efacd1637c727b3c7211f21bf1598582]
cluster MainCode.InSetData--><polygon fill="#FFFFFF" filter="url(#f84e4jspuwzc4)" points="92.5,1732.8516,277.5,1732.8516,286.25,1762.3633,290,1762.3633,290,1857.8516,92.5,1857.8516,92.5,1732.8516" style="stroke:#000000;stroke-width:1.875;"/><line style="stroke:#000000;stroke-width:1.875;" x1="92.5" x2="286.25" y1="1762.3633" y2="1762.3633"/><text fill="#000000" font-family="sans-serif" font-size="17.5" font-weight="bold" lengthAdjust="spacing" textLength="177.5" x="97.5" y="1753.5181">MainCode.InSetData</text><!--MD5=[315bf7c36bcdbdaee5bb7549ab6e8767]
cluster javafx.application--><polygon fill="#FFFFFF" filter="url(#f84e4jspuwzc4)" points="585,64.1016,746.25,64.1016,755,93.6133,758.75,93.6133,758.75,189.1016,585,189.1016,585,64.1016" style="stroke:#000000;stroke-width:1.875;"/><line style="stroke:#000000;stroke-width:1.875;" x1="585" x2="755" y1="93.6133" y2="93.6133"/><text fill="#000000" font-family="sans-serif" font-size="17.5" font-weight="bold" lengthAdjust="spacing" textLength="153.75" x="590" y="84.7681">javafx.application</text><!--MD5=[882ee3304463f7367a637e7659ef903a]
class MainCode.Controller--><rect codeLine="5" fill="#FEFECE" filter="url(#f84e4jspuwzc4)" height="1374.4141" id="MainCode.Controller" style="stroke:#A80036;stroke-width:1.875;" width="301.25" x="40.625" y="275.3516"/><ellipse cx="152.1875" cy="295.3516" fill="#ADD1B2" rx="13.75" ry="13.75" style="stroke:#A80036;stroke-width:1.25;"/><path d="M154.6875,290.9766 Q154.9414,290.3516 155.2344,290.0391 Q155.5273,289.7266 155.8594,289.7266 Q156.4453,289.7266 156.8164,290.0781 Q157.1875,290.4297 157.1875,291.25 L157.1875,293.2031 Q157.1875,294.0234 156.8359,294.375 Q156.4844,294.7266 155.9375,294.7266 Q155.4492,294.7266 155.1367,294.5117 Q154.8242,294.2969 154.6875,293.7305 Q154.6289,293.3398 154.4141,293.125 Q154.0234,292.7148 153.3203,292.4805 Q152.6172,292.2266 151.9141,292.2266 Q151.0352,292.2266 150.293,292.5781 Q149.5703,292.9297 149.0039,293.7109 Q148.4375,294.4922 148.4375,295.5664 L148.4375,296.7188 Q148.4375,298.0078 149.4922,298.8672 Q150.5469,299.7266 152.4219,299.7266 Q153.5352,299.7266 154.3164,299.4727 Q154.7656,299.3359 155.2734,298.8867 Q155.6055,298.6328 155.7813,298.5547 Q155.957,298.4766 156.1719,298.4766 Q156.582,298.4766 156.875,298.8086 Q157.1875,299.1211 157.1875,299.5703 Q157.1875,300 156.7578,300.5078 Q156.1328,301.25 155.1367,301.6602 Q153.8281,302.2266 152.2266,302.2266 Q150.3516,302.2266 148.8477,301.4844 Q147.6367,300.8984 146.7773,299.6289 Q145.9375,298.3594 145.9375,296.8555 L145.9375,295.4883 Q145.9375,293.9258 146.6797,292.5586 Q147.4414,291.1914 148.75,290.4688 Q150.0781,289.7266 151.5625,289.7266 Q152.4609,289.7266 153.2422,290.0391 Q154.0234,290.3516 154.6875,290.9766 Z " fill="#000000"/><text fill="#000000" font-family="sans-serif" font-size="15" lengthAdjust="spacing" textLength="67.5" x="177.8125" y="301.4893">Controller</text><line style="stroke:#A80036;stroke-width:1.875;" x1="41.875" x2="340.625" y1="315.3516" y2="315.3516"/><ellipse cx="54.375" cy="329.1016" fill="none" rx="3.75" ry="3.75" style="stroke:#038048;stroke-width:1.25;"/><text fill="#000000" font-family="sans-serif" font-size="13.75" lengthAdjust="spacing" text-decoration="underline" textLength="127.5" x="65.625" y="334.6252">MAX_DIVERSITY : int</text><ellipse cx="54.375" cy="346.3965" fill="none" rx="3.75" ry="3.75" style="stroke:#038048;stroke-width:1.25;"/><text fill="#000000" font-family="sans-serif" font-size="13.75" lengthAdjust="spacing" text-decoration="underline" textLength="70" x="65.625" y="351.9202">MAX_K : int</text><ellipse cx="54.375" cy="363.6914" fill="none" rx="3.75" ry="3.75" style="stroke:#038048;stroke-width:1.25;"/><text fill="#000000" font-family="sans-serif" font-size="13.75" lengthAdjust="spacing" text-decoration="underline" textLength="135" x="65.625" y="369.2151">MAX_OPTIMIXE_G : int</text><ellipse cx="54.375" cy="380.9863" fill="none" rx="3.75" ry="3.75" style="stroke:#038048;stroke-width:1.25;"/><text fill="#000000" font-family="sans-serif" font-size="13.75" lengthAdjust="spacing" text-decoration="underline" textLength="177.5" x="65.625" y="386.51">NORMAL_NODE_RADIUS : int</text><ellipse cx="54.375" cy="398.2813" fill="none" rx="3.75" ry="3.75" style="stroke:#038048;stroke-width:1.25;"/><text fill="#000000" font-family="sans-serif" font-size="13.75" lengthAdjust="spacing" text-decoration="underline" textLength="120" x="65.625" y="403.8049">NO_OF_NODES : int</text><ellipse cx="54.375" cy="415.5762" fill="none" rx="3.75" ry="3.75" style="stroke:#038048;stroke-width:1.25;"/><text fill="#000000" font-family="sans-serif" font-size="13.75" lengthAdjust="spacing" text-decoration="underline" textLength="91.25" x="65.625" y="421.0999">SPEED : double</text><ellipse cx="54.375" cy="432.8711" fill="none" rx="3.75" ry="3.75" style="stroke:#038048;stroke-width:1.25;"/><text fill="#000000" font-family="sans-serif" font-size="13.75" lengthAdjust="spacing" text-decoration="underline" textLength="233.75" x="65.625" y="438.3948">abstractClustering : AbstractClustering</text><polygon fill="none" points="54.375,445.166,49.375,452.666,59.375,452.666" style="stroke:#1963A0;stroke-width:1.25;"/><text fill="#000000" font-family="sans-serif" font-size="13.75" lengthAdjust="spacing" textLength="127.5" x="65.625" y="455.6897">currentTransition : int</text><polygon fill="none" points="54.375,462.4609,49.375,469.9609,59.375,469.9609" style="stroke:#1963A0;stroke-width:1.25;"/><text fill="#000000" font-family="sans-serif" font-size="13.75" lengthAdjust="spacing" textLength="108.75" x="65.625" y="472.9846">dForGenerate : int</text><polygon fill="none" points="54.375,479.7559,49.375,487.2559,59.375,487.2559" style="stroke:#1963A0;stroke-width:1.25;"/><text fill="#000000" font-family="sans-serif" font-size="13.75" lengthAdjust="spacing" textLength="31.25" x="65.625" y="490.2795">k : int</text><polygon fill="none" points="54.375,497.0508,49.375,504.5508,59.375,504.5508" style="stroke:#1963A0;stroke-width:1.25;"/><text fill="#000000" font-family="sans-serif" font-size="13.75" lengthAdjust="spacing" textLength="150" x="65.625" y="507.5745">optionForCenterPoint : int</text><polygon fill="none" points="54.375,514.3457,49.375,521.8457,59.375,521.8457" style="stroke:#1963A0;stroke-width:1.25;"/><text fill="#000000" font-family="sans-serif" font-size="13.75" lengthAdjust="spacing" textLength="103.75" x="65.625" y="524.8694">running : boolean</text><polygon fill="none" points="54.375,531.6406,49.375,539.1406,59.375,539.1406" style="stroke:#1963A0;stroke-width:1.25;"/><text fill="#000000" font-family="sans-serif" font-size="13.75" lengthAdjust="spacing" textLength="250" x="65.625" y="542.1643">stArray : ArrayList&lt;SequentialTransition&gt;</text><polygon fill="none" points="54.375,548.9355,49.375,556.4355,59.375,556.4355" style="stroke:#1963A0;stroke-width:1.25;"/><text fill="#000000" font-family="sans-serif" font-size="13.75" lengthAdjust="spacing" textLength="126.25" x="65.625" y="559.4592">stepByStepState : int</text><rect fill="none" height="7.5" style="stroke:#C82930;stroke-width:1.25;" width="7.5" x="50.625" y="567.4805"/><text fill="#000000" font-family="sans-serif" font-size="13.75" lengthAdjust="spacing" textLength="140" x="65.625" y="576.7542">addPointButton : Button</text><rect fill="none" height="7.5" style="stroke:#C82930;stroke-width:1.25;" width="7.5" x="50.625" y="584.7754"/><text fill="#000000" font-family="sans-serif" font-size="13.75" lengthAdjust="spacing" textLength="78.75" x="65.625" y="594.0491">credit : VBox</text><rect fill="none" height="7.5" style="stroke:#C82930;stroke-width:1.25;" width="7.5" x="50.625" y="602.0703"/><text fill="#000000" font-family="sans-serif" font-size="13.75" lengthAdjust="spacing" textLength="95" x="65.625" y="611.344">creditShow : int</text><rect fill="none" height="7.5" style="stroke:#C82930;stroke-width:1.25;" width="7.5" x="50.625" y="619.3652"/><text fill="#000000" font-family="sans-serif" font-size="13.75" lengthAdjust="spacing" textLength="145" x="65.625" y="628.6389">customKField : TextField</text><rect fill="none" height="7.5" style="stroke:#C82930;stroke-width:1.25;" width="7.5" x="50.625" y="636.6602"/><text fill="#000000" font-family="sans-serif" font-size="13.75" lengthAdjust="spacing" textLength="178.75" x="65.625" y="645.9338">delayOfSpeedField : TextField</text><rect fill="none" height="7.5" style="stroke:#C82930;stroke-width:1.25;" width="7.5" x="50.625" y="653.9551"/><text fill="#000000" font-family="sans-serif" font-size="13.75" lengthAdjust="spacing" textLength="83.75" x="65.625" y="663.2288">display : Pane</text><rect fill="none" height="7.5" style="stroke:#C82930;stroke-width:1.25;" width="7.5" x="50.625" y="671.25"/><text fill="#000000" font-family="sans-serif" font-size="13.75" lengthAdjust="spacing" textLength="220" x="65.625" y="680.5237">diversityForGenerateField : TextField</text><rect fill="none" height="7.5" style="stroke:#C82930;stroke-width:1.25;" width="7.5" x="50.625" y="688.5449"/><text fill="#000000" font-family="sans-serif" font-size="13.75" lengthAdjust="spacing" textLength="220" x="65.625" y="697.8186">dragTemplateFileTextFiled : TextField</text><rect fill="none" height="7.5" style="stroke:#C82930;stroke-width:1.25;" width="7.5" x="50.625" y="705.8398"/><text fill="#000000" font-family="sans-serif" font-size="13.75" lengthAdjust="spacing" textLength="212.5" x="65.625" y="715.1135">dropDragTemplateFileTarget : HBox</text><rect fill="none" height="7.5" style="stroke:#C82930;stroke-width:1.25;" width="7.5" x="50.625" y="723.1348"/><text fill="#000000" font-family="sans-serif" font-size="13.75" lengthAdjust="spacing" textLength="148.75" x="65.625" y="732.4084">errorAndWarning : Label</text><rect fill="none" height="7.5" style="stroke:#C82930;stroke-width:1.25;" width="7.5" x="50.625" y="740.4297"/><text fill="#000000" font-family="sans-serif" font-size="13.75" lengthAdjust="spacing" textLength="148.75" x="65.625" y="749.7034">forceStopButton : Button</text><rect fill="none" height="7.5" style="stroke:#C82930;stroke-width:1.25;" width="7.5" x="50.625" y="757.7246"/><text fill="#000000" font-family="sans-serif" font-size="13.75" lengthAdjust="spacing" textLength="141.25" x="65.625" y="766.9983">hyperLinkGit : Hyperlink</text><rect fill="none" height="7.5" style="stroke:#C82930;stroke-width:1.25;" width="7.5" x="50.625" y="775.0195"/><text fill="#000000" font-family="sans-serif" font-size="13.75" lengthAdjust="spacing" textLength="222.5" x="65.625" y="784.2932">loadingParraTrans : ParallelTransition</text><rect fill="none" height="7.5" style="stroke:#C82930;stroke-width:1.25;" width="7.5" x="50.625" y="792.3145"/><text fill="#000000" font-family="sans-serif" font-size="13.75" lengthAdjust="spacing" textLength="131.25" x="65.625" y="801.5881">loadingPicPane : Pane</text><rect fill="none" height="7.5" style="stroke:#C82930;stroke-width:1.25;" width="7.5" x="50.625" y="809.6094"/><text fill="#000000" font-family="sans-serif" font-size="13.75" lengthAdjust="spacing" textLength="147.5" x="65.625" y="818.8831">nameOfAlgorithm : Label</text><rect fill="none" height="7.5" style="stroke:#C82930;stroke-width:1.25;" width="7.5" x="50.625" y="826.9043"/><text fill="#000000" font-family="sans-serif" font-size="13.75" lengthAdjust="spacing" textLength="127.5" x="65.625" y="836.178">nameOfClass : String</text><rect fill="none" height="7.5" style="stroke:#C82930;stroke-width:1.25;" width="7.5" x="50.625" y="844.1992"/><text fill="#000000" font-family="sans-serif" font-size="13.75" lengthAdjust="spacing" textLength="122.5" x="65.625" y="853.4729">numOfNodes : Label</text><rect fill="none" height="7.5" style="stroke:#C82930;stroke-width:1.25;" width="7.5" x="50.625" y="861.4941"/><text fill="#000000" font-family="sans-serif" font-size="13.75" lengthAdjust="spacing" textLength="130" x="65.625" y="870.7678">numPointLabel : Label</text><rect fill="none" height="7.5" style="stroke:#C82930;stroke-width:1.25;" width="7.5" x="50.625" y="878.7891"/><text fill="#000000" font-family="sans-serif" font-size="13.75" lengthAdjust="spacing" textLength="245" x="65.625" y="888.0627">numberPointButton : ComboBox&lt;Integer&gt;</text><rect fill="none" height="7.5" style="stroke:#C82930;stroke-width:1.25;" width="7.5" x="50.625" y="896.084"/><text fill="#000000" font-family="sans-serif" font-size="13.75" lengthAdjust="spacing" textLength="205" x="65.625" y="905.3577">optionForGenerateField : TextField</text><rect fill="none" height="7.5" style="stroke:#C82930;stroke-width:1.25;" width="7.5" x="50.625" y="913.3789"/><text fill="#000000" font-family="sans-serif" font-size="13.75" lengthAdjust="spacing" textLength="126.25" x="65.625" y="922.6526">pauseButton : Button</text><rect fill="none" height="7.5" style="stroke:#C82930;stroke-width:1.25;" width="7.5" x="50.625" y="930.6738"/><text fill="#000000" font-family="sans-serif" font-size="13.75" lengthAdjust="spacing" textLength="160" x="65.625" y="939.9475">pickByHandButton : Button</text><rect fill="none" height="7.5" style="stroke:#C82930;stroke-width:1.25;" width="7.5" x="50.625" y="947.9688"/><text fill="#000000" font-family="sans-serif" font-size="13.75" lengthAdjust="spacing" textLength="162.5" x="65.625" y="957.2424">removePointButton : Button</text><rect fill="none" height="7.5" style="stroke:#C82930;stroke-width:1.25;" width="7.5" x="50.625" y="965.2637"/><text fill="#000000" font-family="sans-serif" font-size="13.75" lengthAdjust="spacing" textLength="120" x="65.625" y="974.5374">resetButton : Button</text><rect fill="none" height="7.5" style="stroke:#C82930;stroke-width:1.25;" width="7.5" x="50.625" y="982.5586"/><text fill="#000000" font-family="sans-serif" font-size="13.75" lengthAdjust="spacing" textLength="181.25" x="65.625" y="991.8323">setTemplateFileButton : Button</text><rect fill="none" height="7.5" style="stroke:#C82930;stroke-width:1.25;" width="7.5" x="50.625" y="999.8535"/><text fill="#000000" font-family="sans-serif" font-size="13.75" lengthAdjust="spacing" textLength="198.75" x="65.625" y="1009.1272">showCreditButton : ToggleButton</text><rect fill="none" height="7.5" style="stroke:#C82930;stroke-width:1.25;" width="7.5" x="50.625" y="1017.1484"/><text fill="#000000" font-family="sans-serif" font-size="13.75" lengthAdjust="spacing" textLength="125" x="65.625" y="1026.4221">speedDisplay : Label</text><rect fill="none" height="7.5" style="stroke:#C82930;stroke-width:1.25;" width="7.5" x="50.625" y="1034.4434"/><text fill="#000000" font-family="sans-serif" font-size="13.75" lengthAdjust="spacing" textLength="108.75" x="65.625" y="1043.717">speedMul : double</text><rect fill="none" height="7.5" style="stroke:#C82930;stroke-width:1.25;" width="7.5" x="50.625" y="1051.7383"/><text fill="#000000" font-family="sans-serif" font-size="13.75" lengthAdjust="spacing" textLength="116.25" x="65.625" y="1061.012">speedSlider : Slider</text><rect fill="none" height="7.5" style="stroke:#C82930;stroke-width:1.25;" width="7.5" x="50.625" y="1069.0332"/><text fill="#000000" font-family="sans-serif" font-size="13.75" lengthAdjust="spacing" textLength="116.25" x="65.625" y="1078.3069">startButton : Button</text><rect fill="none" height="7.5" style="stroke:#C82930;stroke-width:1.25;" width="7.5" x="50.625" y="1086.3281"/><text fill="#000000" font-family="sans-serif" font-size="13.75" lengthAdjust="spacing" textLength="113.75" x="65.625" y="1095.6018">statusLabel : Label</text><rect fill="none" height="7.5" style="stroke:#C82930;stroke-width:1.25;" width="7.5" x="50.625" y="1103.623"/><text fill="#000000" font-family="sans-serif" font-size="13.75" lengthAdjust="spacing" textLength="186.25" x="65.625" y="1112.8967">stepByStepNextButton : Button</text><rect fill="none" height="7.5" style="stroke:#C82930;stroke-width:1.25;" width="7.5" x="50.625" y="1120.918"/><text fill="#000000" font-family="sans-serif" font-size="13.75" lengthAdjust="spacing" textLength="178.75" x="65.625" y="1130.1917">stepByStepOffButton : Button</text><rect fill="none" height="7.5" style="stroke:#C82930;stroke-width:1.25;" width="7.5" x="50.625" y="1138.2129"/><text fill="#000000" font-family="sans-serif" font-size="13.75" lengthAdjust="spacing" textLength="176.25" x="65.625" y="1147.4866">stepByStepOnButton : Button</text><rect fill="none" height="7.5" style="stroke:#C82930;stroke-width:1.25;" width="7.5" x="50.625" y="1155.5078"/><text fill="#000000" font-family="sans-serif" font-size="13.75" lengthAdjust="spacing" textLength="177.5" x="65.625" y="1164.7815">stepByStepStateLabel : Label</text><rect fill="none" height="7.5" style="stroke:#C82930;stroke-width:1.25;" width="7.5" x="50.625" y="1172.8027"/><text fill="#000000" font-family="sans-serif" font-size="13.75" lengthAdjust="spacing" textLength="186.25" x="65.625" y="1182.0764">stopPickByHandButton : Button</text><rect fill="none" height="7.5" style="stroke:#C82930;stroke-width:1.25;" width="7.5" x="50.625" y="1190.0977"/><text fill="#000000" font-family="sans-serif" font-size="13.75" lengthAdjust="spacing" textLength="268.75" x="65.625" y="1199.3713">typeButton : ComboBox&lt;AbstractClustering&gt;</text><line style="stroke:#A80036;stroke-width:1.875;" x1="41.875" x2="340.625" y1="1207.3926" y2="1207.3926"/><ellipse cx="54.375" cy="1221.1426" fill="#84BE84" rx="3.75" ry="3.75" style="stroke:#038048;stroke-width:1.25;"/><text fill="#000000" font-family="sans-serif" font-size="13.75" lengthAdjust="spacing" textLength="156.25" x="65.625" y="1226.6663">addPointButtonOnAction()</text><ellipse cx="54.375" cy="1238.4375" fill="#84BE84" rx="3.75" ry="3.75" style="stroke:#038048;stroke-width:1.25;"/><text fill="#000000" font-family="sans-serif" font-size="13.75" lengthAdjust="spacing" textLength="140" x="65.625" y="1243.9612">checkButtonCondition()</text><ellipse cx="54.375" cy="1255.7324" fill="#84BE84" rx="3.75" ry="3.75" style="stroke:#038048;stroke-width:1.25;"/><text fill="#000000" font-family="sans-serif" font-size="13.75" lengthAdjust="spacing" textLength="165" x="65.625" y="1261.2561">forceStopButtonOnAction()</text><ellipse cx="54.375" cy="1273.0273" fill="#84BE84" rx="3.75" ry="3.75" style="stroke:#038048;stroke-width:1.25;"/><text fill="#000000" font-family="sans-serif" font-size="13.75" lengthAdjust="spacing" textLength="226.25" x="65.625" y="1278.551">generateNodeBaseOnNameOfClass()</text><ellipse cx="54.375" cy="1290.3223" fill="#84BE84" rx="3.75" ry="3.75" style="stroke:#038048;stroke-width:1.25;"/><text fill="#000000" font-family="sans-serif" font-size="13.75" lengthAdjust="spacing" textLength="245" x="65.625" y="1295.8459">getArgumentFromCustomArgumentBox()</text><ellipse cx="54.375" cy="1307.6172" fill="#84BE84" rx="3.75" ry="3.75" style="stroke:#038048;stroke-width:1.25;"/><text fill="#000000" font-family="sans-serif" font-size="13.75" lengthAdjust="spacing" textLength="117.5" x="65.625" y="1313.1409">getInforFromBoxs()</text><ellipse cx="54.375" cy="1324.9121" fill="#84BE84" rx="3.75" ry="3.75" style="stroke:#038048;stroke-width:1.25;"/><text fill="#000000" font-family="sans-serif" font-size="13.75" lengthAdjust="spacing" textLength="141.25" x="65.625" y="1330.4358">hyperLinkGitOnAction()</text><ellipse cx="54.375" cy="1342.207" fill="#84BE84" rx="3.75" ry="3.75" style="stroke:#038048;stroke-width:1.25;"/><text fill="#000000" font-family="sans-serif" font-size="13.75" lengthAdjust="spacing" textLength="127.5" x="65.625" y="1347.7307">initNodesFordisplay()</text><ellipse cx="54.375" cy="1359.502" fill="#84BE84" rx="3.75" ry="3.75" style="stroke:#038048;stroke-width:1.25;"/><text fill="#000000" font-family="sans-serif" font-size="13.75" lengthAdjust="spacing" textLength="56.25" x="65.625" y="1365.0256">initialize()</text><ellipse cx="54.375" cy="1376.7969" fill="#84BE84" rx="3.75" ry="3.75" style="stroke:#038048;stroke-width:1.25;"/><text fill="#000000" font-family="sans-serif" font-size="13.75" lengthAdjust="spacing" textLength="142.5" x="65.625" y="1382.3206">pauseButtonOnAction()</text><ellipse cx="54.375" cy="1394.0918" fill="#84BE84" rx="3.75" ry="3.75" style="stroke:#038048;stroke-width:1.25;"/><text fill="#000000" font-family="sans-serif" font-size="13.75" lengthAdjust="spacing" textLength="176.25" x="65.625" y="1399.6155">pickByHandButtonOnAction()</text><ellipse cx="54.375" cy="1411.3867" fill="#84BE84" rx="3.75" ry="3.75" style="stroke:#038048;stroke-width:1.25;"/><text fill="#000000" font-family="sans-serif" font-size="13.75" lengthAdjust="spacing" textLength="178.75" x="65.625" y="1416.9104">removePointButtonOnAction()</text><ellipse cx="54.375" cy="1428.6816" fill="#84BE84" rx="3.75" ry="3.75" style="stroke:#038048;stroke-width:1.25;"/><text fill="#000000" font-family="sans-serif" font-size="13.75" lengthAdjust="spacing" textLength="136.25" x="65.625" y="1434.2053">resetButtonOnAction()</text><ellipse cx="54.375" cy="1445.9766" fill="#84BE84" rx="3.75" ry="3.75" style="stroke:#038048;stroke-width:1.25;"/><text fill="#000000" font-family="sans-serif" font-size="13.75" lengthAdjust="spacing" textLength="85" x="65.625" y="1451.5002">resetDisplay()</text><ellipse cx="54.375" cy="1463.2715" fill="#84BE84" rx="3.75" ry="3.75" style="stroke:#038048;stroke-width:1.25;"/><text fill="#000000" font-family="sans-serif" font-size="13.75" lengthAdjust="spacing" textLength="123.75" x="65.625" y="1468.7952">setLoadingPicPane()</text><ellipse cx="54.375" cy="1480.5664" fill="#84BE84" rx="3.75" ry="3.75" style="stroke:#038048;stroke-width:1.25;"/><text fill="#000000" font-family="sans-serif" font-size="13.75" lengthAdjust="spacing" textLength="197.5" x="65.625" y="1486.0901">setTemplateFileButtonOnAction()</text><ellipse cx="54.375" cy="1497.8613" fill="#84BE84" rx="3.75" ry="3.75" style="stroke:#038048;stroke-width:1.25;"/><text fill="#000000" font-family="sans-serif" font-size="13.75" lengthAdjust="spacing" textLength="175" x="65.625" y="1503.385">showCreditButtonOnAction()</text><ellipse cx="54.375" cy="1515.1563" fill="#84BE84" rx="3.75" ry="3.75" style="stroke:#038048;stroke-width:1.25;"/><text fill="#000000" font-family="sans-serif" font-size="13.75" lengthAdjust="spacing" textLength="145" x="65.625" y="1520.6799">speedSliderOnChange()</text><ellipse cx="54.375" cy="1532.4512" fill="#84BE84" rx="3.75" ry="3.75" style="stroke:#038048;stroke-width:1.25;"/><text fill="#000000" font-family="sans-serif" font-size="13.75" lengthAdjust="spacing" textLength="132.5" x="65.625" y="1537.9749">startButtonOnAction()</text><ellipse cx="54.375" cy="1549.7461" fill="#84BE84" rx="3.75" ry="3.75" style="stroke:#038048;stroke-width:1.25;"/><text fill="#000000" font-family="sans-serif" font-size="13.75" lengthAdjust="spacing" textLength="195" x="65.625" y="1555.2698">stepByStepOffButtonOnAction()</text><ellipse cx="54.375" cy="1567.041" fill="#84BE84" rx="3.75" ry="3.75" style="stroke:#038048;stroke-width:1.25;"/><text fill="#000000" font-family="sans-serif" font-size="13.75" lengthAdjust="spacing" textLength="192.5" x="65.625" y="1572.5647">stepByStepOnButtonOnAction()</text><ellipse cx="54.375" cy="1584.3359" fill="#84BE84" rx="3.75" ry="3.75" style="stroke:#038048;stroke-width:1.25;"/><text fill="#000000" font-family="sans-serif" font-size="13.75" lengthAdjust="spacing" textLength="201.25" x="65.625" y="1589.8596">stepBystepNextButtonOnAction()</text><ellipse cx="54.375" cy="1601.6309" fill="#84BE84" rx="3.75" ry="3.75" style="stroke:#038048;stroke-width:1.25;"/><text fill="#000000" font-family="sans-serif" font-size="13.75" lengthAdjust="spacing" textLength="202.5" x="65.625" y="1607.1545">stopPickByHandButtonOnAction()</text><ellipse cx="54.375" cy="1618.9258" fill="#84BE84" rx="3.75" ry="3.75" style="stroke:#038048;stroke-width:1.25;"/><text fill="#000000" font-family="sans-serif" font-size="13.75" lengthAdjust="spacing" textLength="131.25" x="65.625" y="1624.4495">typeButtonOnAction()</text><polygon fill="#4177AF" points="54.375,1631.2207,49.375,1638.7207,59.375,1638.7207" style="stroke:#1963A0;stroke-width:1.25;"/><text fill="#000000" font-family="sans-serif" font-size="13.75" lengthAdjust="spacing" textLength="101.25" x="65.625" y="1641.7444">selectNumPoint()</text><!--MD5=[da8e1a5298732019b534a7b51e56be22]
class MainCode.HelpfullFunction--><rect codeLine="87" fill="#FEFECE" filter="url(#f84e4jspuwzc4)" height="129.1797" id="MainCode.HelpfullFunction" style="stroke:#A80036;stroke-width:1.875;" width="205" x="386.25" y="898.4766"/><ellipse cx="429.1875" cy="918.4766" fill="#ADD1B2" rx="13.75" ry="13.75" style="stroke:#A80036;stroke-width:1.25;"/><path d="M431.6875,914.1016 Q431.9414,913.4766 432.2344,913.1641 Q432.5273,912.8516 432.8594,912.8516 Q433.4453,912.8516 433.8164,913.2031 Q434.1875,913.5547 434.1875,914.375 L434.1875,916.3281 Q434.1875,917.1484 433.8359,917.5 Q433.4844,917.8516 432.9375,917.8516 Q432.4492,917.8516 432.1367,917.6367 Q431.8242,917.4219 431.6875,916.8555 Q431.6289,916.4648 431.4141,916.25 Q431.0234,915.8398 430.3203,915.6055 Q429.6172,915.3516 428.9141,915.3516 Q428.0352,915.3516 427.293,915.7031 Q426.5703,916.0547 426.0039,916.8359 Q425.4375,917.6172 425.4375,918.6914 L425.4375,919.8438 Q425.4375,921.1328 426.4922,921.9922 Q427.5469,922.8516 429.4219,922.8516 Q430.5352,922.8516 431.3164,922.5977 Q431.7656,922.4609 432.2734,922.0117 Q432.6055,921.7578 432.7813,921.6797 Q432.957,921.6016 433.1719,921.6016 Q433.582,921.6016 433.875,921.9336 Q434.1875,922.2461 434.1875,922.6953 Q434.1875,923.125 433.7578,923.6328 Q433.1328,924.375 432.1367,924.7852 Q430.8281,925.3516 429.2266,925.3516 Q427.3516,925.3516 425.8477,924.6094 Q424.6367,924.0234 423.7773,922.7539 Q422.9375,921.4844 422.9375,919.9805 L422.9375,918.6133 Q422.9375,917.0508 423.6797,915.6836 Q424.4414,914.3164 425.75,913.5938 Q427.0781,912.8516 428.5625,912.8516 Q429.4609,912.8516 430.2422,913.1641 Q431.0234,913.4766 431.6875,914.1016 Z " fill="#000000"/><text fill="#000000" font-family="sans-serif" font-size="15" lengthAdjust="spacing" textLength="111.25" x="452.0625" y="924.6143">HelpfullFunction</text><line style="stroke:#A80036;stroke-width:1.875;" x1="387.5" x2="590" y1="938.4766" y2="938.4766"/><line style="stroke:#A80036;stroke-width:1.875;" x1="387.5" x2="590" y1="948.4766" y2="948.4766"/><ellipse cx="400" cy="962.2266" fill="#84BE84" rx="3.75" ry="3.75" style="stroke:#038048;stroke-width:1.25;"/><text fill="#000000" font-family="sans-serif" font-size="13.75" lengthAdjust="spacing" text-decoration="underline" textLength="117.5" x="411.25" y="967.7502">getNodesFromFile()</text><ellipse cx="400" cy="979.5215" fill="#84BE84" rx="3.75" ry="3.75" style="stroke:#038048;stroke-width:1.25;"/><text fill="#000000" font-family="sans-serif" font-size="13.75" lengthAdjust="spacing" text-decoration="underline" textLength="112.5" x="411.25" y="985.0452">getRandomArray()</text><ellipse cx="400" cy="996.8164" fill="#84BE84" rx="3.75" ry="3.75" style="stroke:#038048;stroke-width:1.25;"/><text fill="#000000" font-family="sans-serif" font-size="13.75" lengthAdjust="spacing" text-decoration="underline" textLength="172.5" x="411.25" y="1002.3401">getRandomNumberInRange()</text><ellipse cx="400" cy="1014.1113" fill="#84BE84" rx="3.75" ry="3.75" style="stroke:#038048;stroke-width:1.25;"/><text fill="#000000" font-family="sans-serif" font-size="13.75" lengthAdjust="spacing" text-decoration="underline" textLength="103.75" x="411.25" y="1019.635">withMathRound()</text><!--MD5=[ebb2f4c26e7ad1c1b3429a33687eccc9]
class MainCode.Main--><rect codeLine="97" fill="#FEFECE" filter="url(#f84e4jspuwzc4)" height="94.5898" id="MainCode.Main" style="stroke:#A80036;stroke-width:1.875;" width="72.5" x="635" y="915.3516"/><ellipse cx="653.75" cy="935.3516" fill="#ADD1B2" rx="13.75" ry="13.75" style="stroke:#A80036;stroke-width:1.25;"/><path d="M656.25,930.9766 Q656.5039,930.3516 656.7969,930.0391 Q657.0898,929.7266 657.4219,929.7266 Q658.0078,929.7266 658.3789,930.0781 Q658.75,930.4297 658.75,931.25 L658.75,933.2031 Q658.75,934.0234 658.3984,934.375 Q658.0469,934.7266 657.5,934.7266 Q657.0117,934.7266 656.6992,934.5117 Q656.3867,934.2969 656.25,933.7305 Q656.1914,933.3398 655.9766,933.125 Q655.5859,932.7148 654.8828,932.4805 Q654.1797,932.2266 653.4766,932.2266 Q652.5977,932.2266 651.8555,932.5781 Q651.1328,932.9297 650.5664,933.7109 Q650,934.4922 650,935.5664 L650,936.7188 Q650,938.0078 651.0547,938.8672 Q652.1094,939.7266 653.9844,939.7266 Q655.0977,939.7266 655.8789,939.4727 Q656.3281,939.3359 656.8359,938.8867 Q657.168,938.6328 657.3438,938.5547 Q657.5195,938.4766 657.7344,938.4766 Q658.1445,938.4766 658.4375,938.8086 Q658.75,939.1211 658.75,939.5703 Q658.75,940 658.3203,940.5078 Q657.6953,941.25 656.6992,941.6602 Q655.3906,942.2266 653.7891,942.2266 Q651.9141,942.2266 650.4102,941.4844 Q649.1992,940.8984 648.3398,939.6289 Q647.5,938.3594 647.5,936.8555 L647.5,935.4883 Q647.5,933.9258 648.2422,932.5586 Q649.0039,931.1914 650.3125,930.4688 Q651.6406,929.7266 653.125,929.7266 Q654.0234,929.7266 654.8047,930.0391 Q655.5859,930.3516 656.25,930.9766 Z " fill="#000000"/><text fill="#000000" font-family="sans-serif" font-size="15" lengthAdjust="spacing" textLength="32.5" x="671.25" y="941.4893">Main</text><line style="stroke:#A80036;stroke-width:1.875;" x1="636.25" x2="706.25" y1="955.3516" y2="955.3516"/><line style="stroke:#A80036;stroke-width:1.875;" x1="636.25" x2="706.25" y1="965.3516" y2="965.3516"/><ellipse cx="648.75" cy="979.1016" fill="#84BE84" rx="3.75" ry="3.75" style="stroke:#038048;stroke-width:1.25;"/><text fill="#000000" font-family="sans-serif" font-size="13.75" lengthAdjust="spacing" text-decoration="underline" textLength="37.5" x="660" y="984.6252">main()</text><ellipse cx="648.75" cy="996.3965" fill="#84BE84" rx="3.75" ry="3.75" style="stroke:#038048;stroke-width:1.25;"/><text fill="#000000" font-family="sans-serif" font-size="13.75" lengthAdjust="spacing" textLength="37.5" x="660" y="1001.9202">start()</text><!--MD5=[31fa743df6c1bc332e3c7053163021f4]
class javafx.fxml.Initializable--><rect fill="#FEFECE" filter="url(#f84e4jspuwzc4)" height="60" id="javafx.fxml.Initializable" style="stroke:#A80036;stroke-width:1.875;" width="116.25" x="133.125" y="109.1016"/><ellipse cx="151.875" cy="129.1016" fill="#ADD1B2" rx="13.75" ry="13.75" style="stroke:#A80036;stroke-width:1.25;"/><path d="M154.375,124.7266 Q154.6289,124.1016 154.9219,123.7891 Q155.2148,123.4766 155.5469,123.4766 Q156.1328,123.4766 156.5039,123.8281 Q156.875,124.1797 156.875,125 L156.875,126.9531 Q156.875,127.7734 156.5234,128.125 Q156.1719,128.4766 155.625,128.4766 Q155.1367,128.4766 154.8242,128.2617 Q154.5117,128.0469 154.375,127.4805 Q154.3164,127.0898 154.1016,126.875 Q153.7109,126.4648 153.0078,126.2305 Q152.3047,125.9766 151.6016,125.9766 Q150.7227,125.9766 149.9805,126.3281 Q149.2578,126.6797 148.6914,127.4609 Q148.125,128.2422 148.125,129.3164 L148.125,130.4688 Q148.125,131.7578 149.1797,132.6172 Q150.2344,133.4766 152.1094,133.4766 Q153.2227,133.4766 154.0039,133.2227 Q154.4531,133.0859 154.9609,132.6367 Q155.293,132.3828 155.4688,132.3047 Q155.6445,132.2266 155.8594,132.2266 Q156.2695,132.2266 156.5625,132.5586 Q156.875,132.8711 156.875,133.3203 Q156.875,133.75 156.4453,134.2578 Q155.8203,135 154.8242,135.4102 Q153.5156,135.9766 151.9141,135.9766 Q150.0391,135.9766 148.5352,135.2344 Q147.3242,134.6484 146.4648,133.3789 Q145.625,132.1094 145.625,130.6055 L145.625,129.2383 Q145.625,127.6758 146.3672,126.3086 Q147.1289,124.9414 148.4375,124.2188 Q149.7656,123.4766 151.25,123.4766 Q152.1484,123.4766 152.9297,123.7891 Q153.7109,124.1016 154.375,124.7266 Z " fill="#000000"/><text fill="#000000" font-family="sans-serif" font-size="15" lengthAdjust="spacing" textLength="76.25" x="169.375" y="135.2393">Initializable</text><line style="stroke:#A80036;stroke-width:1.875;" x1="134.375" x2="248.125" y1="149.1016" y2="149.1016"/><line style="stroke:#A80036;stroke-width:1.875;" x1="134.375" x2="248.125" y1="159.1016" y2="159.1016"/><!--MD5=[be9959a86df3a81c25af57a84f14c57c]
class MainCode.InSetData.ListOfNodes--><rect fill="#FEFECE" filter="url(#f84e4jspuwzc4)" height="60" id="MainCode.InSetData.ListOfNodes" style="stroke:#A80036;stroke-width:1.875;" width="126.25" x="128.125" y="1777.8516"/><ellipse cx="146.875" cy="1797.8516" fill="#ADD1B2" rx="13.75" ry="13.75" style="stroke:#A80036;stroke-width:1.25;"/><path d="M149.375,1793.4766 Q149.6289,1792.8516 149.9219,1792.5391 Q150.2148,1792.2266 150.5469,1792.2266 Q151.1328,1792.2266 151.5039,1792.5781 Q151.875,1792.9297 151.875,1793.75 L151.875,1795.7031 Q151.875,1796.5234 151.5234,1796.875 Q151.1719,1797.2266 150.625,1797.2266 Q150.1367,1797.2266 149.8242,1797.0117 Q149.5117,1796.7969 149.375,1796.2305 Q149.3164,1795.8398 149.1016,1795.625 Q148.7109,1795.2148 148.0078,1794.9805 Q147.3047,1794.7266 146.6016,1794.7266 Q145.7227,1794.7266 144.9805,1795.0781 Q144.2578,1795.4297 143.6914,1796.2109 Q143.125,1796.9922 143.125,1798.0664 L143.125,1799.2188 Q143.125,1800.5078 144.1797,1801.3672 Q145.2344,1802.2266 147.1094,1802.2266 Q148.2227,1802.2266 149.0039,1801.9727 Q149.4531,1801.8359 149.9609,1801.3867 Q150.293,1801.1328 150.4688,1801.0547 Q150.6445,1800.9766 150.8594,1800.9766 Q151.2695,1800.9766 151.5625,1801.3086 Q151.875,1801.6211 151.875,1802.0703 Q151.875,1802.5 151.4453,1803.0078 Q150.8203,1803.75 149.8242,1804.1602 Q148.5156,1804.7266 146.9141,1804.7266 Q145.0391,1804.7266 143.5352,1803.9844 Q142.3242,1803.3984 141.4648,1802.1289 Q140.625,1800.8594 140.625,1799.3555 L140.625,1797.9883 Q140.625,1796.4258 141.3672,1795.0586 Q142.1289,1793.6914 143.4375,1792.9688 Q144.7656,1792.2266 146.25,1792.2266 Q147.1484,1792.2266 147.9297,1792.5391 Q148.7109,1792.8516 149.375,1793.4766 Z " fill="#000000"/><text fill="#000000" font-family="sans-serif" font-size="15" lengthAdjust="spacing" textLength="86.25" x="164.375" y="1803.9893">ListOfNodes</text><line style="stroke:#A80036;stroke-width:1.875;" x1="129.375" x2="253.125" y1="1817.8516" y2="1817.8516"/><line style="stroke:#A80036;stroke-width:1.875;" x1="129.375" x2="253.125" y1="1827.8516" y2="1827.8516"/><!--MD5=[e3612552781b2b3849880f2b7cc3064d]
class javafx.application.Application--><rect fill="#FEFECE" filter="url(#f84e4jspuwzc4)" height="60" id="javafx.application.Application" style="stroke:#A80036;stroke-width:1.875;" width="115" x="613.75" y="109.1016"/><ellipse cx="632.5" cy="129.1016" fill="#ADD1B2" rx="13.75" ry="13.75" style="stroke:#A80036;stroke-width:1.25;"/><path d="M635,124.7266 Q635.2539,124.1016 635.5469,123.7891 Q635.8398,123.4766 636.1719,123.4766 Q636.7578,123.4766 637.1289,123.8281 Q637.5,124.1797 637.5,125 L637.5,126.9531 Q637.5,127.7734 637.1484,128.125 Q636.7969,128.4766 636.25,128.4766 Q635.7617,128.4766 635.4492,128.2617 Q635.1367,128.0469 635,127.4805 Q634.9414,127.0898 634.7266,126.875 Q634.3359,126.4648 633.6328,126.2305 Q632.9297,125.9766 632.2266,125.9766 Q631.3477,125.9766 630.6055,126.3281 Q629.8828,126.6797 629.3164,127.4609 Q628.75,128.2422 628.75,129.3164 L628.75,130.4688 Q628.75,131.7578 629.8047,132.6172 Q630.8594,133.4766 632.7344,133.4766 Q633.8477,133.4766 634.6289,133.2227 Q635.0781,133.0859 635.5859,132.6367 Q635.918,132.3828 636.0938,132.3047 Q636.2695,132.2266 636.4844,132.2266 Q636.8945,132.2266 637.1875,132.5586 Q637.5,132.8711 637.5,133.3203 Q637.5,133.75 637.0703,134.2578 Q636.4453,135 635.4492,135.4102 Q634.1406,135.9766 632.5391,135.9766 Q630.6641,135.9766 629.1602,135.2344 Q627.9492,134.6484 627.0898,133.3789 Q626.25,132.1094 626.25,130.6055 L626.25,129.2383 Q626.25,127.6758 626.9922,126.3086 Q627.7539,124.9414 629.0625,124.2188 Q630.3906,123.4766 631.875,123.4766 Q632.7734,123.4766 633.5547,123.7891 Q634.3359,124.1016 635,124.7266 Z " fill="#000000"/><text fill="#000000" font-family="sans-serif" font-size="15" lengthAdjust="spacing" textLength="75" x="650" y="135.2393">Application</text><line style="stroke:#A80036;stroke-width:1.875;" x1="615" x2="727.5" y1="149.1016" y2="149.1016"/><line style="stroke:#A80036;stroke-width:1.875;" x1="615" x2="727.5" y1="159.1016" y2="159.1016"/><!--MD5=[a3ce29783190881fee16dfd9a3effd74]
reverse link javafx.fxml.Initializable to MainCode.Controller--><path codeLine="104" d="M191.25,194.7766 C191.25,216.5141 191.25,243.8766 191.25,275.2266 " fill="none" id="javafx.fxml.Initializable-backto-MainCode.Controller" style="stroke:#A80036;stroke-width:1.25;stroke-dasharray:7.0,7.0;"/><polygon fill="none" points="182.5,194.5766,191.25,169.5766,200,194.5766,182.5,194.5766" style="stroke:#A80036;stroke-width:1.25;"/><!--MD5=[8d68ad03fbb75de4f8316242d925b09a]
reverse link MainCode.Controller to MainCode.InSetData.ListOfNodes--><path codeLine="105" d="M191.25,1666.9891 C191.25,1714.3266 191.25,1752.9141 191.25,1777.4266 " fill="none" id="MainCode.Controller-backto-MainCode.InSetData.ListOfNodes" style="stroke:#A80036;stroke-width:1.25;"/><polygon fill="#FFFFFF" points="191.25,1650.6016,186.25,1658.1016,191.25,1665.6016,196.25,1658.1016,191.25,1650.6016" style="stroke:#A80036;stroke-width:1.25;"/><text fill="#000000" font-family="sans-serif" font-size="16.25" lengthAdjust="spacing" textLength="83.75" x="192.5" y="1708.4705">listOfNodes</text><!--MD5=[175d3b6db32426d4b9b03b6615bcfb46]
reverse link javafx.application.Application to MainCode.Main--><path codeLine="106" d="M671.25,195.0391 C671.25,347.1391 671.25,773.2516 671.25,915.0516 " fill="none" id="javafx.application.Application-backto-MainCode.Main" style="stroke:#A80036;stroke-width:1.25;"/><polygon fill="none" points="662.5,194.5766,671.25,169.5766,680,194.5766,662.5,194.5766" style="stroke:#A80036;stroke-width:1.25;"/><text fill="#888888" font-family="sans-serif" font-size="12.5" lengthAdjust="spacing" textLength="0" x="763.75" y="1878.3276"/><text fill="#888888" font-family="sans-serif" font-size="12.5" lengthAdjust="spacing" textLength="0" x="763.75" y="1894.0503"/><text fill="#888888" font-family="sans-serif" font-size="12.5" lengthAdjust="spacing" textLength="490" x="273.75" y="1909.7729">PlantUML diagram generated by SketchIt! (https://bitbucket.org/pmesmeur/sketch.it)</text><text fill="#888888" font-family="sans-serif" font-size="12.5" lengthAdjust="spacing" textLength="492.5" x="271.25" y="1925.4956">For more information about this tool, please contact philippe.mesmeur@gmail.com</text><!--MD5=[19fe07a24541b79516c82a4d75a1a0f1]
@startuml

title __MAINCODE's Class Diagram__\n

  namespace MainCode {
    class MainCode.Controller {
        {static} + MAX_DIVERSITY : int
        {static} + MAX_K : int
        {static} + MAX_OPTIMIXE_G : int
        {static} + NORMAL_NODE_RADIUS : int
        {static} + NO_OF_NODES : int
        {static} + SPEED : double
        {static} + abstractClustering : AbstractClustering
        ~ currentTransition : int
        ~ dForGenerate : int
        ~ k : int
        ~ optionForCenterPoint : int
        ~ running : boolean
        ~ stArray : ArrayList<SequentialTransition>
        ~ stepByStepState : int
        - addPointButton : Button
        - credit : VBox
        - creditShow : int
        - customKField : TextField
        - delayOfSpeedField : TextField
        - display : Pane
        - diversityForGenerateField : TextField
        - dragTemplateFileTextFiled : TextField
        - dropDragTemplateFileTarget : HBox
        - errorAndWarning : Label
        - forceStopButton : Button
        - hyperLinkGit : Hyperlink
        - loadingParraTrans : ParallelTransition
        - loadingPicPane : Pane
        - nameOfAlgorithm : Label
        - nameOfClass : String
        - numOfNodes : Label
        - numPointLabel : Label
        - numberPointButton : ComboBox<Integer>
        - optionForGenerateField : TextField
        - pauseButton : Button
        - pickByHandButton : Button
        - removePointButton : Button
        - resetButton : Button
        - setTemplateFileButton : Button
        - showCreditButton : ToggleButton
        - speedDisplay : Label
        - speedMul : double
        - speedSlider : Slider
        - startButton : Button
        - statusLabel : Label
        - stepByStepNextButton : Button
        - stepByStepOffButton : Button
        - stepByStepOnButton : Button
        - stepByStepStateLabel : Label
        - stopPickByHandButton : Button
        - typeButton : ComboBox<AbstractClustering>
        + addPointButtonOnAction()
        + checkButtonCondition()
        + forceStopButtonOnAction()
        + generateNodeBaseOnNameOfClass()
        + getArgumentFromCustomArgumentBox()
        + getInforFromBoxs()
        + hyperLinkGitOnAction()
        + initNodesFordisplay()
        + initialize()
        + pauseButtonOnAction()
        + pickByHandButtonOnAction()
        + removePointButtonOnAction()
        + resetButtonOnAction()
        + resetDisplay()
        + setLoadingPicPane()
        + setTemplateFileButtonOnAction()
        + showCreditButtonOnAction()
        + speedSliderOnChange()
        + startButtonOnAction()
        + stepByStepOffButtonOnAction()
        + stepByStepOnButtonOnAction()
        + stepBystepNextButtonOnAction()
        + stopPickByHandButtonOnAction()
        + typeButtonOnAction()
        ~ selectNumPoint()
    }
  }
  

  namespace MainCode {
    class MainCode.HelpfullFunction {
        {static} + getNodesFromFile()
        {static} + getRandomArray()
        {static} + getRandomNumberInRange()
        {static} + withMathRound()
    }
  }
  

  namespace MainCode {
    class MainCode.Main {
        {static} + main()
        + start()
    }
  }
  

  MainCode.Controller .up.|> javafx.fxml.Initializable
  MainCode.Controller o- - MainCode.InSetData.ListOfNodes : listOfNodes
  MainCode.Main -up-|> javafx.application.Application


right footer


PlantUML diagram generated by SketchIt! (https://bitbucket.org/pmesmeur/sketch.it)
For more information about this tool, please contact philippe.mesmeur@gmail.com
endfooter

@enduml

PlantUML version 1.2021.00(Sun Jan 10 17:25:05 ICT 2021)
(GPL source distribution)
Java Runtime: OpenJDK Runtime Environment
JVM: OpenJDK 64-Bit Server VM
Default Encoding: Cp1252
Language: en
Country: US
--></g></svg>