<?xml version="1.0" encoding="UTF-8" standalone="no"?><svg xmlns="http://www.w3.org/2000/svg" xmlns:xlink="http://www.w3.org/1999/xlink" contentScriptType="application/ecmascript" contentStyleType="text/css" height="947.5px" preserveAspectRatio="none" style="width:1880px;height:947px;" version="1.1" viewBox="0 0 1880 947" width="1880px" zoomAndPan="magnify"><defs><filter height="300%" id="f1ltt8edq2g8d1" width="300%" x="-1" y="-1"><feGaussianBlur result="blurOut" stdDeviation="2.5"/><feColorMatrix in="blurOut" result="blurOut2" type="matrix" values="0 0 0 0 0 0 0 0 0 0 0 0 0 0 0 0 0 0 .4 0"/><feOffset dx="5.0" dy="5.0" in="blurOut2" result="blurOut3"/><feBlend in="SourceGraphic" in2="blurOut3" mode="normal"/></filter></defs><g><text fill="#000000" font-family="sans-serif" font-size="22.5" lengthAdjust="spacing" text-decoration="underline" textLength="225" x="819.375" y="23.3569">VER4's Class Diagram</text><text fill="#000000" font-family="sans-serif" font-size="22.5" lengthAdjust="spacing" textLength="0" x="935" y="51.6577"/><!--MD5=[b2031b1a8a393d7e2b81067e5168f2f9]
cluster MainCode--><polygon fill="#FFFFFF" filter="url(#f1ltt8edq2g8d1)" points="240,230.3516,336.25,230.3516,345,259.8633,1858.75,259.8633,1858.75,870.3516,240,870.3516,240,230.3516" style="stroke:#000000;stroke-width:1.875;"/><line style="stroke:#000000;stroke-width:1.875;" x1="240" x2="345" y1="259.8633" y2="259.8633"/><text fill="#000000" font-family="sans-serif" font-size="17.5" font-weight="bold" lengthAdjust="spacing" textLength="88.75" x="245" y="251.0181">MainCode</text><!--MD5=[3f105b170190e3af24ae83e15e622de5]
cluster MainCode.ClusteringAlgorithm--><polygon fill="#FFFFFF" filter="url(#f1ltt8edq2g8d1)" points="1411.25,285.3516,1593.75,285.3516,1602.5,314.8633,1828.75,314.8633,1828.75,810.3516,1411.25,810.3516,1411.25,285.3516" style="stroke:#000000;stroke-width:1.875;"/><line style="stroke:#000000;stroke-width:1.875;" x1="1411.25" x2="1602.5" y1="314.8633" y2="314.8633"/><text fill="#000000" font-family="sans-serif" font-size="17.5" font-weight="bold" lengthAdjust="spacing" textLength="175" x="1416.25" y="306.0181">ClusteringAlgorithm</text><!--MD5=[efacd1637c727b3c7211f21bf1598582]
cluster MainCode.InSetData--><polygon fill="#FFFFFF" filter="url(#f1ltt8edq2g8d1)" points="270,470.3516,361.25,470.3516,370,499.8633,1381.25,499.8633,1381.25,840.3516,270,840.3516,270,470.3516" style="stroke:#000000;stroke-width:1.875;"/><line style="stroke:#000000;stroke-width:1.875;" x1="270" x2="370" y1="499.8633" y2="499.8633"/><text fill="#000000" font-family="sans-serif" font-size="17.5" font-weight="bold" lengthAdjust="spacing" textLength="83.75" x="275" y="491.0181">InSetData</text><!--MD5=[9ed48392bc820af335585fb1156492ea]
cluster MainCode.InSetData.GenerateNode--><polygon fill="#FFFFFF" filter="url(#f1ltt8edq2g8d1)" points="437.5,525.3516,573.75,525.3516,582.5,554.8633,1260,554.8633,1260,810.3516,437.5,810.3516,437.5,525.3516" style="stroke:#000000;stroke-width:1.875;"/><line style="stroke:#000000;stroke-width:1.875;" x1="437.5" x2="582.5" y1="554.8633" y2="554.8633"/><text fill="#000000" font-family="sans-serif" font-size="17.5" font-weight="bold" lengthAdjust="spacing" textLength="128.75" x="442.5" y="546.0181">GenerateNode</text><!--MD5=[038b3b634a15bdf03051a317fd208e11]
cluster javafx.fxml--><polygon fill="#FFFFFF" filter="url(#f1ltt8edq2g8d1)" points="275,64.1016,376.25,64.1016,385,93.6133,432.5,93.6133,432.5,189.1016,275,189.1016,275,64.1016" style="stroke:#000000;stroke-width:1.875;"/><line style="stroke:#000000;stroke-width:1.875;" x1="275" x2="385" y1="93.6133" y2="93.6133"/><text fill="#000000" font-family="sans-serif" font-size="17.5" font-weight="bold" lengthAdjust="spacing" textLength="93.75" x="280" y="84.7681">javafx.fxml</text><!--MD5=[832cfce525ca280bda851355cc57458b]
cluster javafx.scene.shape--><polygon fill="#FFFFFF" filter="url(#f1ltt8edq2g8d1)" points="20,525.3516,197.5,525.3516,206.25,554.8633,210,554.8633,210,650.3516,20,650.3516,20,525.3516" style="stroke:#000000;stroke-width:1.875;"/><line style="stroke:#000000;stroke-width:1.875;" x1="20" x2="206.25" y1="554.8633" y2="554.8633"/><text fill="#000000" font-family="sans-serif" font-size="17.5" font-weight="bold" lengthAdjust="spacing" textLength="170" x="25" y="546.0181">javafx.scene.shape</text><!--MD5=[315bf7c36bcdbdaee5bb7549ab6e8767]
cluster javafx.application--><polygon fill="#FFFFFF" filter="url(#f1ltt8edq2g8d1)" points="1100,64.1016,1261.25,64.1016,1270,93.6133,1273.75,93.6133,1273.75,189.1016,1100,189.1016,1100,64.1016" style="stroke:#000000;stroke-width:1.875;"/><line style="stroke:#000000;stroke-width:1.875;" x1="1100" x2="1270" y1="93.6133" y2="93.6133"/><text fill="#000000" font-family="sans-serif" font-size="17.5" font-weight="bold" lengthAdjust="spacing" textLength="153.75" x="1105" y="84.7681">javafx.application</text><!--MD5=[882ee3304463f7367a637e7659ef903a]
class MainCode.Controller--><rect codeLine="45" fill="#FEFECE" filter="url(#f1ltt8edq2g8d1)" height="60" id="MainCode.Controller" style="stroke:#A80036;stroke-width:1.875;" width="107.5" x="300" y="330.3516"/><ellipse cx="318.75" cy="350.3516" fill="#ADD1B2" rx="13.75" ry="13.75" style="stroke:#A80036;stroke-width:1.25;"/><path d="M321.25,345.9766 Q321.5039,345.3516 321.7969,345.0391 Q322.0898,344.7266 322.4219,344.7266 Q323.0078,344.7266 323.3789,345.0781 Q323.75,345.4297 323.75,346.25 L323.75,348.2031 Q323.75,349.0234 323.3984,349.375 Q323.0469,349.7266 322.5,349.7266 Q322.0117,349.7266 321.6992,349.5117 Q321.3867,349.2969 321.25,348.7305 Q321.1914,348.3398 320.9766,348.125 Q320.5859,347.7148 319.8828,347.4805 Q319.1797,347.2266 318.4766,347.2266 Q317.5977,347.2266 316.8555,347.5781 Q316.1328,347.9297 315.5664,348.7109 Q315,349.4922 315,350.5664 L315,351.7188 Q315,353.0078 316.0547,353.8672 Q317.1094,354.7266 318.9844,354.7266 Q320.0977,354.7266 320.8789,354.4727 Q321.3281,354.3359 321.8359,353.8867 Q322.168,353.6328 322.3438,353.5547 Q322.5195,353.4766 322.7344,353.4766 Q323.1445,353.4766 323.4375,353.8086 Q323.75,354.1211 323.75,354.5703 Q323.75,355 323.3203,355.5078 Q322.6953,356.25 321.6992,356.6602 Q320.3906,357.2266 318.7891,357.2266 Q316.9141,357.2266 315.4102,356.4844 Q314.1992,355.8984 313.3398,354.6289 Q312.5,353.3594 312.5,351.8555 L312.5,350.4883 Q312.5,348.9258 313.2422,347.5586 Q314.0039,346.1914 315.3125,345.4688 Q316.6406,344.7266 318.125,344.7266 Q319.0234,344.7266 319.8047,345.0391 Q320.5859,345.3516 321.25,345.9766 Z " fill="#000000"/><text fill="#000000" font-family="sans-serif" font-size="15" lengthAdjust="spacing" textLength="67.5" x="336.25" y="356.4893">Controller</text><line style="stroke:#A80036;stroke-width:1.875;" x1="301.25" x2="406.25" y1="370.3516" y2="370.3516"/><line style="stroke:#A80036;stroke-width:1.875;" x1="301.25" x2="406.25" y1="380.3516" y2="380.3516"/><!--MD5=[da8e1a5298732019b534a7b51e56be22]
class MainCode.HelpfullFunction--><rect codeLine="51" fill="#FEFECE" filter="url(#f1ltt8edq2g8d1)" height="60" id="MainCode.HelpfullFunction" style="stroke:#A80036;stroke-width:1.875;" width="151.25" x="786.875" y="330.3516"/><ellipse cx="805.625" cy="350.3516" fill="#ADD1B2" rx="13.75" ry="13.75" style="stroke:#A80036;stroke-width:1.25;"/><path d="M808.125,345.9766 Q808.3789,345.3516 808.6719,345.0391 Q808.9648,344.7266 809.2969,344.7266 Q809.8828,344.7266 810.2539,345.0781 Q810.625,345.4297 810.625,346.25 L810.625,348.2031 Q810.625,349.0234 810.2734,349.375 Q809.9219,349.7266 809.375,349.7266 Q808.8867,349.7266 808.5742,349.5117 Q808.2617,349.2969 808.125,348.7305 Q808.0664,348.3398 807.8516,348.125 Q807.4609,347.7148 806.7578,347.4805 Q806.0547,347.2266 805.3516,347.2266 Q804.4727,347.2266 803.7305,347.5781 Q803.0078,347.9297 802.4414,348.7109 Q801.875,349.4922 801.875,350.5664 L801.875,351.7188 Q801.875,353.0078 802.9297,353.8672 Q803.9844,354.7266 805.8594,354.7266 Q806.9727,354.7266 807.7539,354.4727 Q808.2031,354.3359 808.7109,353.8867 Q809.043,353.6328 809.2188,353.5547 Q809.3945,353.4766 809.6094,353.4766 Q810.0195,353.4766 810.3125,353.8086 Q810.625,354.1211 810.625,354.5703 Q810.625,355 810.1953,355.5078 Q809.5703,356.25 808.5742,356.6602 Q807.2656,357.2266 805.6641,357.2266 Q803.7891,357.2266 802.2852,356.4844 Q801.0742,355.8984 800.2148,354.6289 Q799.375,353.3594 799.375,351.8555 L799.375,350.4883 Q799.375,348.9258 800.1172,347.5586 Q800.8789,346.1914 802.1875,345.4688 Q803.5156,344.7266 805,344.7266 Q805.8984,344.7266 806.6797,345.0391 Q807.4609,345.3516 808.125,345.9766 Z " fill="#000000"/><text fill="#000000" font-family="sans-serif" font-size="15" lengthAdjust="spacing" textLength="111.25" x="823.125" y="356.4893">HelpfullFunction</text><line style="stroke:#A80036;stroke-width:1.875;" x1="788.125" x2="936.875" y1="370.3516" y2="370.3516"/><line style="stroke:#A80036;stroke-width:1.875;" x1="788.125" x2="936.875" y1="380.3516" y2="380.3516"/><!--MD5=[ebb2f4c26e7ad1c1b3429a33687eccc9]
class MainCode.Main--><rect codeLine="133" fill="#FEFECE" filter="url(#f1ltt8edq2g8d1)" height="60" id="MainCode.Main" style="stroke:#A80036;stroke-width:1.875;" width="72.5" x="1150" y="330.3516"/><ellipse cx="1168.75" cy="350.3516" fill="#ADD1B2" rx="13.75" ry="13.75" style="stroke:#A80036;stroke-width:1.25;"/><path d="M1171.25,345.9766 Q1171.5039,345.3516 1171.7969,345.0391 Q1172.0898,344.7266 1172.4219,344.7266 Q1173.0078,344.7266 1173.3789,345.0781 Q1173.75,345.4297 1173.75,346.25 L1173.75,348.2031 Q1173.75,349.0234 1173.3984,349.375 Q1173.0469,349.7266 1172.5,349.7266 Q1172.0117,349.7266 1171.6992,349.5117 Q1171.3867,349.2969 1171.25,348.7305 Q1171.1914,348.3398 1170.9766,348.125 Q1170.5859,347.7148 1169.8828,347.4805 Q1169.1797,347.2266 1168.4766,347.2266 Q1167.5977,347.2266 1166.8555,347.5781 Q1166.1328,347.9297 1165.5664,348.7109 Q1165,349.4922 1165,350.5664 L1165,351.7188 Q1165,353.0078 1166.0547,353.8672 Q1167.1094,354.7266 1168.9844,354.7266 Q1170.0977,354.7266 1170.8789,354.4727 Q1171.3281,354.3359 1171.8359,353.8867 Q1172.168,353.6328 1172.3438,353.5547 Q1172.5195,353.4766 1172.7344,353.4766 Q1173.1445,353.4766 1173.4375,353.8086 Q1173.75,354.1211 1173.75,354.5703 Q1173.75,355 1173.3203,355.5078 Q1172.6953,356.25 1171.6992,356.6602 Q1170.3906,357.2266 1168.7891,357.2266 Q1166.9141,357.2266 1165.4102,356.4844 Q1164.1992,355.8984 1163.3398,354.6289 Q1162.5,353.3594 1162.5,351.8555 L1162.5,350.4883 Q1162.5,348.9258 1163.2422,347.5586 Q1164.0039,346.1914 1165.3125,345.4688 Q1166.6406,344.7266 1168.125,344.7266 Q1169.0234,344.7266 1169.8047,345.0391 Q1170.5859,345.3516 1171.25,345.9766 Z " fill="#000000"/><text fill="#000000" font-family="sans-serif" font-size="15" lengthAdjust="spacing" textLength="32.5" x="1186.25" y="356.4893">Main</text><line style="stroke:#A80036;stroke-width:1.875;" x1="1151.25" x2="1221.25" y1="370.3516" y2="370.3516"/><line style="stroke:#A80036;stroke-width:1.875;" x1="1151.25" x2="1221.25" y1="380.3516" y2="380.3516"/><!--MD5=[3fc2dca49e3b3dd8ed7cd711ed5c50e9]
class MainCode.ClusteringAlgorithm.AbstractClustering--><rect codeLine="6" fill="#FEFECE" filter="url(#f1ltt8edq2g8d1)" height="60" id="MainCode.ClusteringAlgorithm.AbstractClustering" style="stroke:#A80036;stroke-width:1.875;" width="166.25" x="1538.125" y="330.3516"/><ellipse cx="1556.875" cy="350.3516" fill="#A9DCDF" rx="13.75" ry="13.75" style="stroke:#A80036;stroke-width:1.25;"/><path d="M1559.0625,352.2266 L1554.9414,352.2266 L1554.3945,353.4766 L1554.3945,353.4766 L1554.9805,353.4766 L1555.625,354.2578 L1555.625,354.7266 L1555.625,355.1953 L1554.9805,355.9766 L1554.3945,355.9766 L1552.0313,355.9766 L1551.2695,355.9766 L1550.625,355.1953 L1550.625,354.7266 L1550.625,354.2578 L1551.2695,353.4766 L1552.0313,353.4766 L1554.9219,345.9766 L1553.8281,345.9766 L1552.5195,345.9766 L1551.875,345.1953 L1551.875,344.7266 L1551.875,344.2578 L1552.5195,343.4766 L1553.8281,343.4766 L1558.418,343.4766 L1561.7773,353.4766 L1562.4805,353.4766 L1562.4805,353.4766 L1563.125,354.2578 L1563.125,354.7266 L1563.125,355.1953 L1562.4805,355.9766 L1561.7773,355.9766 L1559.4141,355.9766 L1558.7695,355.9766 L1558.125,355.1953 L1558.125,354.7266 L1558.125,354.2578 L1558.7695,353.4766 L1559.4141,353.4766 L1559.4141,353.4766 L1559.0625,352.2266 Z M1558.3789,349.7266 L1556.875,345.2539 L1555.5859,349.7266 L1558.3789,349.7266 Z " fill="#000000"/><text fill="#000000" font-family="sans-serif" font-size="15" font-style="italic" lengthAdjust="spacing" textLength="126.25" x="1574.375" y="356.4893">AbstractClustering</text><line style="stroke:#A80036;stroke-width:1.875;" x1="1539.375" x2="1703.125" y1="370.3516" y2="370.3516"/><line style="stroke:#A80036;stroke-width:1.875;" x1="1539.375" x2="1703.125" y1="380.3516" y2="380.3516"/><!--MD5=[16b620ebc4200ee5ee41e1728191622a]
class MainCode.ClusteringAlgorithm.KMAndMSGeneral--><rect codeLine="14" fill="#FEFECE" filter="url(#f1ltt8edq2g8d1)" height="60" id="MainCode.ClusteringAlgorithm.KMAndMSGeneral" style="stroke:#A80036;stroke-width:1.875;" width="163.75" x="1644.375" y="570.3516"/><ellipse cx="1663.125" cy="590.3516" fill="#ADD1B2" rx="13.75" ry="13.75" style="stroke:#A80036;stroke-width:1.25;"/><path d="M1665.625,585.9766 Q1665.8789,585.3516 1666.1719,585.0391 Q1666.4648,584.7266 1666.7969,584.7266 Q1667.3828,584.7266 1667.7539,585.0781 Q1668.125,585.4297 1668.125,586.25 L1668.125,588.2031 Q1668.125,589.0234 1667.7734,589.375 Q1667.4219,589.7266 1666.875,589.7266 Q1666.3867,589.7266 1666.0742,589.5117 Q1665.7617,589.2969 1665.625,588.7305 Q1665.5664,588.3398 1665.3516,588.125 Q1664.9609,587.7148 1664.2578,587.4805 Q1663.5547,587.2266 1662.8516,587.2266 Q1661.9727,587.2266 1661.2305,587.5781 Q1660.5078,587.9297 1659.9414,588.7109 Q1659.375,589.4922 1659.375,590.5664 L1659.375,591.7188 Q1659.375,593.0078 1660.4297,593.8672 Q1661.4844,594.7266 1663.3594,594.7266 Q1664.4727,594.7266 1665.2539,594.4727 Q1665.7031,594.3359 1666.2109,593.8867 Q1666.543,593.6328 1666.7188,593.5547 Q1666.8945,593.4766 1667.1094,593.4766 Q1667.5195,593.4766 1667.8125,593.8086 Q1668.125,594.1211 1668.125,594.5703 Q1668.125,595 1667.6953,595.5078 Q1667.0703,596.25 1666.0742,596.6602 Q1664.7656,597.2266 1663.1641,597.2266 Q1661.2891,597.2266 1659.7852,596.4844 Q1658.5742,595.8984 1657.7148,594.6289 Q1656.875,593.3594 1656.875,591.8555 L1656.875,590.4883 Q1656.875,588.9258 1657.6172,587.5586 Q1658.3789,586.1914 1659.6875,585.4688 Q1661.0156,584.7266 1662.5,584.7266 Q1663.3984,584.7266 1664.1797,585.0391 Q1664.9609,585.3516 1665.625,585.9766 Z " fill="#000000"/><text fill="#000000" font-family="sans-serif" font-size="15" lengthAdjust="spacing" textLength="123.75" x="1680.625" y="596.4893">KMAndMSGeneral</text><line style="stroke:#A80036;stroke-width:1.875;" x1="1645.625" x2="1806.875" y1="610.3516" y2="610.3516"/><line style="stroke:#A80036;stroke-width:1.875;" x1="1645.625" x2="1806.875" y1="620.3516" y2="620.3516"/><!--MD5=[74b59eb449cc10b2a6c2b39a7fb2a78a]
class MainCode.ClusteringAlgorithm.KMeans--><rect codeLine="22" fill="#FEFECE" filter="url(#f1ltt8edq2g8d1)" height="60" id="MainCode.ClusteringAlgorithm.KMeans" style="stroke:#A80036;stroke-width:1.875;" width="96.25" x="1553.125" y="730.3516"/><ellipse cx="1571.875" cy="750.3516" fill="#ADD1B2" rx="13.75" ry="13.75" style="stroke:#A80036;stroke-width:1.25;"/><path d="M1574.375,745.9766 Q1574.6289,745.3516 1574.9219,745.0391 Q1575.2148,744.7266 1575.5469,744.7266 Q1576.1328,744.7266 1576.5039,745.0781 Q1576.875,745.4297 1576.875,746.25 L1576.875,748.2031 Q1576.875,749.0234 1576.5234,749.375 Q1576.1719,749.7266 1575.625,749.7266 Q1575.1367,749.7266 1574.8242,749.5117 Q1574.5117,749.2969 1574.375,748.7305 Q1574.3164,748.3398 1574.1016,748.125 Q1573.7109,747.7148 1573.0078,747.4805 Q1572.3047,747.2266 1571.6016,747.2266 Q1570.7227,747.2266 1569.9805,747.5781 Q1569.2578,747.9297 1568.6914,748.7109 Q1568.125,749.4922 1568.125,750.5664 L1568.125,751.7188 Q1568.125,753.0078 1569.1797,753.8672 Q1570.2344,754.7266 1572.1094,754.7266 Q1573.2227,754.7266 1574.0039,754.4727 Q1574.4531,754.3359 1574.9609,753.8867 Q1575.293,753.6328 1575.4688,753.5547 Q1575.6445,753.4766 1575.8594,753.4766 Q1576.2695,753.4766 1576.5625,753.8086 Q1576.875,754.1211 1576.875,754.5703 Q1576.875,755 1576.4453,755.5078 Q1575.8203,756.25 1574.8242,756.6602 Q1573.5156,757.2266 1571.9141,757.2266 Q1570.0391,757.2266 1568.5352,756.4844 Q1567.3242,755.8984 1566.4648,754.6289 Q1565.625,753.3594 1565.625,751.8555 L1565.625,750.4883 Q1565.625,748.9258 1566.3672,747.5586 Q1567.1289,746.1914 1568.4375,745.4688 Q1569.7656,744.7266 1571.25,744.7266 Q1572.1484,744.7266 1572.9297,745.0391 Q1573.7109,745.3516 1574.375,745.9766 Z " fill="#000000"/><text fill="#000000" font-family="sans-serif" font-size="15" lengthAdjust="spacing" textLength="56.25" x="1589.375" y="756.4893">KMeans</text><line style="stroke:#A80036;stroke-width:1.875;" x1="1554.375" x2="1648.125" y1="770.3516" y2="770.3516"/><line style="stroke:#A80036;stroke-width:1.875;" x1="1554.375" x2="1648.125" y1="780.3516" y2="780.3516"/><!--MD5=[16fb17108ced37403df2c566d0a08015]
class MainCode.ClusteringAlgorithm.KNearestNeighbor--><rect codeLine="30" fill="#FEFECE" filter="url(#f1ltt8edq2g8d1)" height="60" id="MainCode.ClusteringAlgorithm.KNearestNeighbor" style="stroke:#A80036;stroke-width:1.875;" width="168.75" x="1431.875" y="570.3516"/><ellipse cx="1450.625" cy="590.3516" fill="#ADD1B2" rx="13.75" ry="13.75" style="stroke:#A80036;stroke-width:1.25;"/><path d="M1453.125,585.9766 Q1453.3789,585.3516 1453.6719,585.0391 Q1453.9648,584.7266 1454.2969,584.7266 Q1454.8828,584.7266 1455.2539,585.0781 Q1455.625,585.4297 1455.625,586.25 L1455.625,588.2031 Q1455.625,589.0234 1455.2734,589.375 Q1454.9219,589.7266 1454.375,589.7266 Q1453.8867,589.7266 1453.5742,589.5117 Q1453.2617,589.2969 1453.125,588.7305 Q1453.0664,588.3398 1452.8516,588.125 Q1452.4609,587.7148 1451.7578,587.4805 Q1451.0547,587.2266 1450.3516,587.2266 Q1449.4727,587.2266 1448.7305,587.5781 Q1448.0078,587.9297 1447.4414,588.7109 Q1446.875,589.4922 1446.875,590.5664 L1446.875,591.7188 Q1446.875,593.0078 1447.9297,593.8672 Q1448.9844,594.7266 1450.8594,594.7266 Q1451.9727,594.7266 1452.7539,594.4727 Q1453.2031,594.3359 1453.7109,593.8867 Q1454.043,593.6328 1454.2188,593.5547 Q1454.3945,593.4766 1454.6094,593.4766 Q1455.0195,593.4766 1455.3125,593.8086 Q1455.625,594.1211 1455.625,594.5703 Q1455.625,595 1455.1953,595.5078 Q1454.5703,596.25 1453.5742,596.6602 Q1452.2656,597.2266 1450.6641,597.2266 Q1448.7891,597.2266 1447.2852,596.4844 Q1446.0742,595.8984 1445.2148,594.6289 Q1444.375,593.3594 1444.375,591.8555 L1444.375,590.4883 Q1444.375,588.9258 1445.1172,587.5586 Q1445.8789,586.1914 1447.1875,585.4688 Q1448.5156,584.7266 1450,584.7266 Q1450.8984,584.7266 1451.6797,585.0391 Q1452.4609,585.3516 1453.125,585.9766 Z " fill="#000000"/><text fill="#000000" font-family="sans-serif" font-size="15" lengthAdjust="spacing" textLength="128.75" x="1468.125" y="596.4893">KNearestNeighbor</text><line style="stroke:#A80036;stroke-width:1.875;" x1="1433.125" x2="1599.375" y1="610.3516" y2="610.3516"/><line style="stroke:#A80036;stroke-width:1.875;" x1="1433.125" x2="1599.375" y1="620.3516" y2="620.3516"/><!--MD5=[c56c352f5361cd094006ab34ea2c31e2]
class MainCode.ClusteringAlgorithm.MeanShift--><rect codeLine="38" fill="#FEFECE" filter="url(#f1ltt8edq2g8d1)" height="60" id="MainCode.ClusteringAlgorithm.MeanShift" style="stroke:#A80036;stroke-width:1.875;" width="107.5" x="1693.75" y="730.3516"/><ellipse cx="1712.5" cy="750.3516" fill="#ADD1B2" rx="13.75" ry="13.75" style="stroke:#A80036;stroke-width:1.25;"/><path d="M1715,745.9766 Q1715.2539,745.3516 1715.5469,745.0391 Q1715.8398,744.7266 1716.1719,744.7266 Q1716.7578,744.7266 1717.1289,745.0781 Q1717.5,745.4297 1717.5,746.25 L1717.5,748.2031 Q1717.5,749.0234 1717.1484,749.375 Q1716.7969,749.7266 1716.25,749.7266 Q1715.7617,749.7266 1715.4492,749.5117 Q1715.1367,749.2969 1715,748.7305 Q1714.9414,748.3398 1714.7266,748.125 Q1714.3359,747.7148 1713.6328,747.4805 Q1712.9297,747.2266 1712.2266,747.2266 Q1711.3477,747.2266 1710.6055,747.5781 Q1709.8828,747.9297 1709.3164,748.7109 Q1708.75,749.4922 1708.75,750.5664 L1708.75,751.7188 Q1708.75,753.0078 1709.8047,753.8672 Q1710.8594,754.7266 1712.7344,754.7266 Q1713.8477,754.7266 1714.6289,754.4727 Q1715.0781,754.3359 1715.5859,753.8867 Q1715.918,753.6328 1716.0938,753.5547 Q1716.2695,753.4766 1716.4844,753.4766 Q1716.8945,753.4766 1717.1875,753.8086 Q1717.5,754.1211 1717.5,754.5703 Q1717.5,755 1717.0703,755.5078 Q1716.4453,756.25 1715.4492,756.6602 Q1714.1406,757.2266 1712.5391,757.2266 Q1710.6641,757.2266 1709.1602,756.4844 Q1707.9492,755.8984 1707.0898,754.6289 Q1706.25,753.3594 1706.25,751.8555 L1706.25,750.4883 Q1706.25,748.9258 1706.9922,747.5586 Q1707.7539,746.1914 1709.0625,745.4688 Q1710.3906,744.7266 1711.875,744.7266 Q1712.7734,744.7266 1713.5547,745.0391 Q1714.3359,745.3516 1715,745.9766 Z " fill="#000000"/><text fill="#000000" font-family="sans-serif" font-size="15" lengthAdjust="spacing" textLength="67.5" x="1730" y="756.4893">MeanShift</text><line style="stroke:#A80036;stroke-width:1.875;" x1="1695" x2="1800" y1="770.3516" y2="770.3516"/><line style="stroke:#A80036;stroke-width:1.875;" x1="1695" x2="1800" y1="780.3516" y2="780.3516"/><!--MD5=[be9959a86df3a81c25af57a84f14c57c]
class MainCode.InSetData.ListOfNodes--><rect codeLine="118" fill="#FEFECE" filter="url(#f1ltt8edq2g8d1)" height="60" id="MainCode.InSetData.ListOfNodes" style="stroke:#A80036;stroke-width:1.875;" width="126.25" x="290.625" y="570.3516"/><ellipse cx="309.375" cy="590.3516" fill="#ADD1B2" rx="13.75" ry="13.75" style="stroke:#A80036;stroke-width:1.25;"/><path d="M311.875,585.9766 Q312.1289,585.3516 312.4219,585.0391 Q312.7148,584.7266 313.0469,584.7266 Q313.6328,584.7266 314.0039,585.0781 Q314.375,585.4297 314.375,586.25 L314.375,588.2031 Q314.375,589.0234 314.0234,589.375 Q313.6719,589.7266 313.125,589.7266 Q312.6367,589.7266 312.3242,589.5117 Q312.0117,589.2969 311.875,588.7305 Q311.8164,588.3398 311.6016,588.125 Q311.2109,587.7148 310.5078,587.4805 Q309.8047,587.2266 309.1016,587.2266 Q308.2227,587.2266 307.4805,587.5781 Q306.7578,587.9297 306.1914,588.7109 Q305.625,589.4922 305.625,590.5664 L305.625,591.7188 Q305.625,593.0078 306.6797,593.8672 Q307.7344,594.7266 309.6094,594.7266 Q310.7227,594.7266 311.5039,594.4727 Q311.9531,594.3359 312.4609,593.8867 Q312.793,593.6328 312.9688,593.5547 Q313.1445,593.4766 313.3594,593.4766 Q313.7695,593.4766 314.0625,593.8086 Q314.375,594.1211 314.375,594.5703 Q314.375,595 313.9453,595.5078 Q313.3203,596.25 312.3242,596.6602 Q311.0156,597.2266 309.4141,597.2266 Q307.5391,597.2266 306.0352,596.4844 Q304.8242,595.8984 303.9648,594.6289 Q303.125,593.3594 303.125,591.8555 L303.125,590.4883 Q303.125,588.9258 303.8672,587.5586 Q304.6289,586.1914 305.9375,585.4688 Q307.2656,584.7266 308.75,584.7266 Q309.6484,584.7266 310.4297,585.0391 Q311.2109,585.3516 311.875,585.9766 Z " fill="#000000"/><text fill="#000000" font-family="sans-serif" font-size="15" lengthAdjust="spacing" textLength="86.25" x="326.875" y="596.4893">ListOfNodes</text><line style="stroke:#A80036;stroke-width:1.875;" x1="291.875" x2="415.625" y1="610.3516" y2="610.3516"/><line style="stroke:#A80036;stroke-width:1.875;" x1="291.875" x2="415.625" y1="620.3516" y2="620.3516"/><!--MD5=[c5626ac6ea7417fa3ba883bc6ce8c57e]
class MainCode.InSetData.Node--><rect codeLine="126" fill="#FEFECE" filter="url(#f1ltt8edq2g8d1)" height="60" id="MainCode.InSetData.Node" style="stroke:#A80036;stroke-width:1.875;" width="77.5" x="1283.75" y="730.3516"/><ellipse cx="1302.5" cy="750.3516" fill="#ADD1B2" rx="13.75" ry="13.75" style="stroke:#A80036;stroke-width:1.25;"/><path d="M1305,745.9766 Q1305.2539,745.3516 1305.5469,745.0391 Q1305.8398,744.7266 1306.1719,744.7266 Q1306.7578,744.7266 1307.1289,745.0781 Q1307.5,745.4297 1307.5,746.25 L1307.5,748.2031 Q1307.5,749.0234 1307.1484,749.375 Q1306.7969,749.7266 1306.25,749.7266 Q1305.7617,749.7266 1305.4492,749.5117 Q1305.1367,749.2969 1305,748.7305 Q1304.9414,748.3398 1304.7266,748.125 Q1304.3359,747.7148 1303.6328,747.4805 Q1302.9297,747.2266 1302.2266,747.2266 Q1301.3477,747.2266 1300.6055,747.5781 Q1299.8828,747.9297 1299.3164,748.7109 Q1298.75,749.4922 1298.75,750.5664 L1298.75,751.7188 Q1298.75,753.0078 1299.8047,753.8672 Q1300.8594,754.7266 1302.7344,754.7266 Q1303.8477,754.7266 1304.6289,754.4727 Q1305.0781,754.3359 1305.5859,753.8867 Q1305.918,753.6328 1306.0938,753.5547 Q1306.2695,753.4766 1306.4844,753.4766 Q1306.8945,753.4766 1307.1875,753.8086 Q1307.5,754.1211 1307.5,754.5703 Q1307.5,755 1307.0703,755.5078 Q1306.4453,756.25 1305.4492,756.6602 Q1304.1406,757.2266 1302.5391,757.2266 Q1300.6641,757.2266 1299.1602,756.4844 Q1297.9492,755.8984 1297.0898,754.6289 Q1296.25,753.3594 1296.25,751.8555 L1296.25,750.4883 Q1296.25,748.9258 1296.9922,747.5586 Q1297.7539,746.1914 1299.0625,745.4688 Q1300.3906,744.7266 1301.875,744.7266 Q1302.7734,744.7266 1303.5547,745.0391 Q1304.3359,745.3516 1305,745.9766 Z " fill="#000000"/><text fill="#000000" font-family="sans-serif" font-size="15" lengthAdjust="spacing" textLength="37.5" x="1320" y="756.4893">Node</text><line style="stroke:#A80036;stroke-width:1.875;" x1="1285" x2="1360" y1="770.3516" y2="770.3516"/><line style="stroke:#A80036;stroke-width:1.875;" x1="1285" x2="1360" y1="780.3516" y2="780.3516"/><!--MD5=[9423c954acc0352f99e5505f6cdd5964]
class MainCode.InSetData.GenerateNode.AbstractGenerateNodes--><rect codeLine="59" fill="#FEFECE" filter="url(#f1ltt8edq2g8d1)" height="60" id="MainCode.InSetData.GenerateNode.AbstractGenerateNodes" style="stroke:#A80036;stroke-width:1.875;" width="205" x="782.5" y="570.3516"/><ellipse cx="801.25" cy="590.3516" fill="#A9DCDF" rx="13.75" ry="13.75" style="stroke:#A80036;stroke-width:1.25;"/><path d="M803.4375,592.2266 L799.3164,592.2266 L798.7695,593.4766 L798.7695,593.4766 L799.3555,593.4766 L800,594.2578 L800,594.7266 L800,595.1953 L799.3555,595.9766 L798.7695,595.9766 L796.4063,595.9766 L795.6445,595.9766 L795,595.1953 L795,594.7266 L795,594.2578 L795.6445,593.4766 L796.4063,593.4766 L799.2969,585.9766 L798.2031,585.9766 L796.8945,585.9766 L796.25,585.1953 L796.25,584.7266 L796.25,584.2578 L796.8945,583.4766 L798.2031,583.4766 L802.793,583.4766 L806.1523,593.4766 L806.8555,593.4766 L806.8555,593.4766 L807.5,594.2578 L807.5,594.7266 L807.5,595.1953 L806.8555,595.9766 L806.1523,595.9766 L803.7891,595.9766 L803.1445,595.9766 L802.5,595.1953 L802.5,594.7266 L802.5,594.2578 L803.1445,593.4766 L803.7891,593.4766 L803.7891,593.4766 L803.4375,592.2266 Z M802.7539,589.7266 L801.25,585.2539 L799.9609,589.7266 L802.7539,589.7266 Z " fill="#000000"/><text fill="#000000" font-family="sans-serif" font-size="15" font-style="italic" lengthAdjust="spacing" textLength="165" x="818.75" y="596.4893">AbstractGenerateNodes</text><line style="stroke:#A80036;stroke-width:1.875;" x1="783.75" x2="986.25" y1="610.3516" y2="610.3516"/><line style="stroke:#A80036;stroke-width:1.875;" x1="783.75" x2="986.25" y1="620.3516" y2="620.3516"/><!--MD5=[df7b0a512bc4f0d3d0ca23f8692a30f2]
class MainCode.InSetData.GenerateNode.GenarateANodeWithXY--><rect codeLine="69" fill="#FEFECE" filter="url(#f1ltt8edq2g8d1)" height="60" id="MainCode.InSetData.GenerateNode.GenarateANodeWithXY" style="stroke:#A80036;stroke-width:1.875;" width="197.5" x="1042.5" y="570.3516"/><ellipse cx="1061.25" cy="590.3516" fill="#ADD1B2" rx="13.75" ry="13.75" style="stroke:#A80036;stroke-width:1.25;"/><path d="M1063.75,585.9766 Q1064.0039,585.3516 1064.2969,585.0391 Q1064.5898,584.7266 1064.9219,584.7266 Q1065.5078,584.7266 1065.8789,585.0781 Q1066.25,585.4297 1066.25,586.25 L1066.25,588.2031 Q1066.25,589.0234 1065.8984,589.375 Q1065.5469,589.7266 1065,589.7266 Q1064.5117,589.7266 1064.1992,589.5117 Q1063.8867,589.2969 1063.75,588.7305 Q1063.6914,588.3398 1063.4766,588.125 Q1063.0859,587.7148 1062.3828,587.4805 Q1061.6797,587.2266 1060.9766,587.2266 Q1060.0977,587.2266 1059.3555,587.5781 Q1058.6328,587.9297 1058.0664,588.7109 Q1057.5,589.4922 1057.5,590.5664 L1057.5,591.7188 Q1057.5,593.0078 1058.5547,593.8672 Q1059.6094,594.7266 1061.4844,594.7266 Q1062.5977,594.7266 1063.3789,594.4727 Q1063.8281,594.3359 1064.3359,593.8867 Q1064.668,593.6328 1064.8438,593.5547 Q1065.0195,593.4766 1065.2344,593.4766 Q1065.6445,593.4766 1065.9375,593.8086 Q1066.25,594.1211 1066.25,594.5703 Q1066.25,595 1065.8203,595.5078 Q1065.1953,596.25 1064.1992,596.6602 Q1062.8906,597.2266 1061.2891,597.2266 Q1059.4141,597.2266 1057.9102,596.4844 Q1056.6992,595.8984 1055.8398,594.6289 Q1055,593.3594 1055,591.8555 L1055,590.4883 Q1055,588.9258 1055.7422,587.5586 Q1056.5039,586.1914 1057.8125,585.4688 Q1059.1406,584.7266 1060.625,584.7266 Q1061.5234,584.7266 1062.3047,585.0391 Q1063.0859,585.3516 1063.75,585.9766 Z " fill="#000000"/><text fill="#000000" font-family="sans-serif" font-size="15" lengthAdjust="spacing" textLength="157.5" x="1078.75" y="596.4893">GenarateANodeWithXY</text><line style="stroke:#A80036;stroke-width:1.875;" x1="1043.75" x2="1238.75" y1="610.3516" y2="610.3516"/><line style="stroke:#A80036;stroke-width:1.875;" x1="1043.75" x2="1238.75" y1="620.3516" y2="620.3516"/><!--MD5=[16358d0dedcadad7fadb2c867d7f8d3e]
class MainCode.InSetData.GenerateNode.GenerateCentroids--><rect codeLine="79" fill="#FEFECE" filter="url(#f1ltt8edq2g8d1)" height="60" id="MainCode.InSetData.GenerateNode.GenerateCentroids" style="stroke:#A80036;stroke-width:1.875;" width="171.25" x="514.375" y="570.3516"/><ellipse cx="533.125" cy="590.3516" fill="#ADD1B2" rx="13.75" ry="13.75" style="stroke:#A80036;stroke-width:1.25;"/><path d="M535.625,585.9766 Q535.8789,585.3516 536.1719,585.0391 Q536.4648,584.7266 536.7969,584.7266 Q537.3828,584.7266 537.7539,585.0781 Q538.125,585.4297 538.125,586.25 L538.125,588.2031 Q538.125,589.0234 537.7734,589.375 Q537.4219,589.7266 536.875,589.7266 Q536.3867,589.7266 536.0742,589.5117 Q535.7617,589.2969 535.625,588.7305 Q535.5664,588.3398 535.3516,588.125 Q534.9609,587.7148 534.2578,587.4805 Q533.5547,587.2266 532.8516,587.2266 Q531.9727,587.2266 531.2305,587.5781 Q530.5078,587.9297 529.9414,588.7109 Q529.375,589.4922 529.375,590.5664 L529.375,591.7188 Q529.375,593.0078 530.4297,593.8672 Q531.4844,594.7266 533.3594,594.7266 Q534.4727,594.7266 535.2539,594.4727 Q535.7031,594.3359 536.2109,593.8867 Q536.543,593.6328 536.7188,593.5547 Q536.8945,593.4766 537.1094,593.4766 Q537.5195,593.4766 537.8125,593.8086 Q538.125,594.1211 538.125,594.5703 Q538.125,595 537.6953,595.5078 Q537.0703,596.25 536.0742,596.6602 Q534.7656,597.2266 533.1641,597.2266 Q531.2891,597.2266 529.7852,596.4844 Q528.5742,595.8984 527.7148,594.6289 Q526.875,593.3594 526.875,591.8555 L526.875,590.4883 Q526.875,588.9258 527.6172,587.5586 Q528.3789,586.1914 529.6875,585.4688 Q531.0156,584.7266 532.5,584.7266 Q533.3984,584.7266 534.1797,585.0391 Q534.9609,585.3516 535.625,585.9766 Z " fill="#000000"/><text fill="#000000" font-family="sans-serif" font-size="15" lengthAdjust="spacing" textLength="131.25" x="550.625" y="596.4893">GenerateCentroids</text><line style="stroke:#A80036;stroke-width:1.875;" x1="515.625" x2="684.375" y1="610.3516" y2="610.3516"/><line style="stroke:#A80036;stroke-width:1.875;" x1="515.625" x2="684.375" y1="620.3516" y2="620.3516"/><!--MD5=[af44ba6cb90bbe2c3c4c9364bed78c04]
class MainCode.InSetData.GenerateNode.KMeansGenerateNodes--><rect codeLine="89" fill="#FEFECE" filter="url(#f1ltt8edq2g8d1)" height="60" id="MainCode.InSetData.GenerateNode.KMeansGenerateNodes" style="stroke:#A80036;stroke-width:1.875;" width="206.25" x="1033.125" y="730.3516"/><ellipse cx="1051.875" cy="750.3516" fill="#ADD1B2" rx="13.75" ry="13.75" style="stroke:#A80036;stroke-width:1.25;"/><path d="M1054.375,745.9766 Q1054.6289,745.3516 1054.9219,745.0391 Q1055.2148,744.7266 1055.5469,744.7266 Q1056.1328,744.7266 1056.5039,745.0781 Q1056.875,745.4297 1056.875,746.25 L1056.875,748.2031 Q1056.875,749.0234 1056.5234,749.375 Q1056.1719,749.7266 1055.625,749.7266 Q1055.1367,749.7266 1054.8242,749.5117 Q1054.5117,749.2969 1054.375,748.7305 Q1054.3164,748.3398 1054.1016,748.125 Q1053.7109,747.7148 1053.0078,747.4805 Q1052.3047,747.2266 1051.6016,747.2266 Q1050.7227,747.2266 1049.9805,747.5781 Q1049.2578,747.9297 1048.6914,748.7109 Q1048.125,749.4922 1048.125,750.5664 L1048.125,751.7188 Q1048.125,753.0078 1049.1797,753.8672 Q1050.2344,754.7266 1052.1094,754.7266 Q1053.2227,754.7266 1054.0039,754.4727 Q1054.4531,754.3359 1054.9609,753.8867 Q1055.293,753.6328 1055.4688,753.5547 Q1055.6445,753.4766 1055.8594,753.4766 Q1056.2695,753.4766 1056.5625,753.8086 Q1056.875,754.1211 1056.875,754.5703 Q1056.875,755 1056.4453,755.5078 Q1055.8203,756.25 1054.8242,756.6602 Q1053.5156,757.2266 1051.9141,757.2266 Q1050.0391,757.2266 1048.5352,756.4844 Q1047.3242,755.8984 1046.4648,754.6289 Q1045.625,753.3594 1045.625,751.8555 L1045.625,750.4883 Q1045.625,748.9258 1046.3672,747.5586 Q1047.1289,746.1914 1048.4375,745.4688 Q1049.7656,744.7266 1051.25,744.7266 Q1052.1484,744.7266 1052.9297,745.0391 Q1053.7109,745.3516 1054.375,745.9766 Z " fill="#000000"/><text fill="#000000" font-family="sans-serif" font-size="15" lengthAdjust="spacing" textLength="166.25" x="1069.375" y="756.4893">KMeansGenerateNodes</text><line style="stroke:#A80036;stroke-width:1.875;" x1="1034.375" x2="1238.125" y1="770.3516" y2="770.3516"/><line style="stroke:#A80036;stroke-width:1.875;" x1="1034.375" x2="1238.125" y1="780.3516" y2="780.3516"/><!--MD5=[7a2836406f5079981422e133d4a01423]
class MainCode.InSetData.GenerateNode.KNearestNeighborGenerateNodes--><rect codeLine="99" fill="#FEFECE" filter="url(#f1ltt8edq2g8d1)" height="60" id="MainCode.InSetData.GenerateNode.KNearestNeighborGenerateNodes" style="stroke:#A80036;stroke-width:1.875;" width="278.75" x="458.125" y="730.3516"/><ellipse cx="476.875" cy="750.3516" fill="#ADD1B2" rx="13.75" ry="13.75" style="stroke:#A80036;stroke-width:1.25;"/><path d="M479.375,745.9766 Q479.6289,745.3516 479.9219,745.0391 Q480.2148,744.7266 480.5469,744.7266 Q481.1328,744.7266 481.5039,745.0781 Q481.875,745.4297 481.875,746.25 L481.875,748.2031 Q481.875,749.0234 481.5234,749.375 Q481.1719,749.7266 480.625,749.7266 Q480.1367,749.7266 479.8242,749.5117 Q479.5117,749.2969 479.375,748.7305 Q479.3164,748.3398 479.1016,748.125 Q478.7109,747.7148 478.0078,747.4805 Q477.3047,747.2266 476.6016,747.2266 Q475.7227,747.2266 474.9805,747.5781 Q474.2578,747.9297 473.6914,748.7109 Q473.125,749.4922 473.125,750.5664 L473.125,751.7188 Q473.125,753.0078 474.1797,753.8672 Q475.2344,754.7266 477.1094,754.7266 Q478.2227,754.7266 479.0039,754.4727 Q479.4531,754.3359 479.9609,753.8867 Q480.293,753.6328 480.4688,753.5547 Q480.6445,753.4766 480.8594,753.4766 Q481.2695,753.4766 481.5625,753.8086 Q481.875,754.1211 481.875,754.5703 Q481.875,755 481.4453,755.5078 Q480.8203,756.25 479.8242,756.6602 Q478.5156,757.2266 476.9141,757.2266 Q475.0391,757.2266 473.5352,756.4844 Q472.3242,755.8984 471.4648,754.6289 Q470.625,753.3594 470.625,751.8555 L470.625,750.4883 Q470.625,748.9258 471.3672,747.5586 Q472.1289,746.1914 473.4375,745.4688 Q474.7656,744.7266 476.25,744.7266 Q477.1484,744.7266 477.9297,745.0391 Q478.7109,745.3516 479.375,745.9766 Z " fill="#000000"/><text fill="#000000" font-family="sans-serif" font-size="15" lengthAdjust="spacing" textLength="238.75" x="494.375" y="756.4893">KNearestNeighborGenerateNodes</text><line style="stroke:#A80036;stroke-width:1.875;" x1="459.375" x2="735.625" y1="770.3516" y2="770.3516"/><line style="stroke:#A80036;stroke-width:1.875;" x1="459.375" x2="735.625" y1="780.3516" y2="780.3516"/><!--MD5=[53849dcf9ec6fdaca7e24223f05055d7]
class MainCode.InSetData.GenerateNode.MeanShiftGenerateNode--><rect codeLine="109" fill="#FEFECE" filter="url(#f1ltt8edq2g8d1)" height="60" id="MainCode.InSetData.GenerateNode.MeanShiftGenerateNode" style="stroke:#A80036;stroke-width:1.875;" width="208.75" x="780.625" y="730.3516"/><ellipse cx="799.375" cy="750.3516" fill="#ADD1B2" rx="13.75" ry="13.75" style="stroke:#A80036;stroke-width:1.25;"/><path d="M801.875,745.9766 Q802.1289,745.3516 802.4219,745.0391 Q802.7148,744.7266 803.0469,744.7266 Q803.6328,744.7266 804.0039,745.0781 Q804.375,745.4297 804.375,746.25 L804.375,748.2031 Q804.375,749.0234 804.0234,749.375 Q803.6719,749.7266 803.125,749.7266 Q802.6367,749.7266 802.3242,749.5117 Q802.0117,749.2969 801.875,748.7305 Q801.8164,748.3398 801.6016,748.125 Q801.2109,747.7148 800.5078,747.4805 Q799.8047,747.2266 799.1016,747.2266 Q798.2227,747.2266 797.4805,747.5781 Q796.7578,747.9297 796.1914,748.7109 Q795.625,749.4922 795.625,750.5664 L795.625,751.7188 Q795.625,753.0078 796.6797,753.8672 Q797.7344,754.7266 799.6094,754.7266 Q800.7227,754.7266 801.5039,754.4727 Q801.9531,754.3359 802.4609,753.8867 Q802.793,753.6328 802.9688,753.5547 Q803.1445,753.4766 803.3594,753.4766 Q803.7695,753.4766 804.0625,753.8086 Q804.375,754.1211 804.375,754.5703 Q804.375,755 803.9453,755.5078 Q803.3203,756.25 802.3242,756.6602 Q801.0156,757.2266 799.4141,757.2266 Q797.5391,757.2266 796.0352,756.4844 Q794.8242,755.8984 793.9648,754.6289 Q793.125,753.3594 793.125,751.8555 L793.125,750.4883 Q793.125,748.9258 793.8672,747.5586 Q794.6289,746.1914 795.9375,745.4688 Q797.2656,744.7266 798.75,744.7266 Q799.6484,744.7266 800.4297,745.0391 Q801.2109,745.3516 801.875,745.9766 Z " fill="#000000"/><text fill="#000000" font-family="sans-serif" font-size="15" lengthAdjust="spacing" textLength="168.75" x="816.875" y="756.4893">MeanShiftGenerateNode</text><line style="stroke:#A80036;stroke-width:1.875;" x1="781.875" x2="988.125" y1="770.3516" y2="770.3516"/><line style="stroke:#A80036;stroke-width:1.875;" x1="781.875" x2="988.125" y1="780.3516" y2="780.3516"/><!--MD5=[31fa743df6c1bc332e3c7053163021f4]
class javafx.fxml.Initializable--><rect fill="#FEFECE" filter="url(#f1ltt8edq2g8d1)" height="60" id="javafx.fxml.Initializable" style="stroke:#A80036;stroke-width:1.875;" width="116.25" x="295.625" y="109.1016"/><ellipse cx="314.375" cy="129.1016" fill="#ADD1B2" rx="13.75" ry="13.75" style="stroke:#A80036;stroke-width:1.25;"/><path d="M316.875,124.7266 Q317.1289,124.1016 317.4219,123.7891 Q317.7148,123.4766 318.0469,123.4766 Q318.6328,123.4766 319.0039,123.8281 Q319.375,124.1797 319.375,125 L319.375,126.9531 Q319.375,127.7734 319.0234,128.125 Q318.6719,128.4766 318.125,128.4766 Q317.6367,128.4766 317.3242,128.2617 Q317.0117,128.0469 316.875,127.4805 Q316.8164,127.0898 316.6016,126.875 Q316.2109,126.4648 315.5078,126.2305 Q314.8047,125.9766 314.1016,125.9766 Q313.2227,125.9766 312.4805,126.3281 Q311.7578,126.6797 311.1914,127.4609 Q310.625,128.2422 310.625,129.3164 L310.625,130.4688 Q310.625,131.7578 311.6797,132.6172 Q312.7344,133.4766 314.6094,133.4766 Q315.7227,133.4766 316.5039,133.2227 Q316.9531,133.0859 317.4609,132.6367 Q317.793,132.3828 317.9688,132.3047 Q318.1445,132.2266 318.3594,132.2266 Q318.7695,132.2266 319.0625,132.5586 Q319.375,132.8711 319.375,133.3203 Q319.375,133.75 318.9453,134.2578 Q318.3203,135 317.3242,135.4102 Q316.0156,135.9766 314.4141,135.9766 Q312.5391,135.9766 311.0352,135.2344 Q309.8242,134.6484 308.9648,133.3789 Q308.125,132.1094 308.125,130.6055 L308.125,129.2383 Q308.125,127.6758 308.8672,126.3086 Q309.6289,124.9414 310.9375,124.2188 Q312.2656,123.4766 313.75,123.4766 Q314.6484,123.4766 315.4297,123.7891 Q316.2109,124.1016 316.875,124.7266 Z " fill="#000000"/><text fill="#000000" font-family="sans-serif" font-size="15" lengthAdjust="spacing" textLength="76.25" x="331.875" y="135.2393">Initializable</text><line style="stroke:#A80036;stroke-width:1.875;" x1="296.875" x2="410.625" y1="149.1016" y2="149.1016"/><line style="stroke:#A80036;stroke-width:1.875;" x1="296.875" x2="410.625" y1="159.1016" y2="159.1016"/><!--MD5=[5670e7cb7c152ac72a1c0084cfffe9d8]
class javafx.scene.shape.Circle--><rect fill="#FEFECE" filter="url(#f1ltt8edq2g8d1)" height="60" id="javafx.scene.shape.Circle" style="stroke:#A80036;stroke-width:1.875;" width="80" x="110" y="570.3516"/><ellipse cx="128.75" cy="590.3516" fill="#ADD1B2" rx="13.75" ry="13.75" style="stroke:#A80036;stroke-width:1.25;"/><path d="M131.25,585.9766 Q131.5039,585.3516 131.7969,585.0391 Q132.0898,584.7266 132.4219,584.7266 Q133.0078,584.7266 133.3789,585.0781 Q133.75,585.4297 133.75,586.25 L133.75,588.2031 Q133.75,589.0234 133.3984,589.375 Q133.0469,589.7266 132.5,589.7266 Q132.0117,589.7266 131.6992,589.5117 Q131.3867,589.2969 131.25,588.7305 Q131.1914,588.3398 130.9766,588.125 Q130.5859,587.7148 129.8828,587.4805 Q129.1797,587.2266 128.4766,587.2266 Q127.5977,587.2266 126.8555,587.5781 Q126.1328,587.9297 125.5664,588.7109 Q125,589.4922 125,590.5664 L125,591.7188 Q125,593.0078 126.0547,593.8672 Q127.1094,594.7266 128.9844,594.7266 Q130.0977,594.7266 130.8789,594.4727 Q131.3281,594.3359 131.8359,593.8867 Q132.168,593.6328 132.3438,593.5547 Q132.5195,593.4766 132.7344,593.4766 Q133.1445,593.4766 133.4375,593.8086 Q133.75,594.1211 133.75,594.5703 Q133.75,595 133.3203,595.5078 Q132.6953,596.25 131.6992,596.6602 Q130.3906,597.2266 128.7891,597.2266 Q126.9141,597.2266 125.4102,596.4844 Q124.1992,595.8984 123.3398,594.6289 Q122.5,593.3594 122.5,591.8555 L122.5,590.4883 Q122.5,588.9258 123.2422,587.5586 Q124.0039,586.1914 125.3125,585.4688 Q126.6406,584.7266 128.125,584.7266 Q129.0234,584.7266 129.8047,585.0391 Q130.5859,585.3516 131.25,585.9766 Z " fill="#000000"/><text fill="#000000" font-family="sans-serif" font-size="15" lengthAdjust="spacing" textLength="40" x="146.25" y="596.4893">Circle</text><line style="stroke:#A80036;stroke-width:1.875;" x1="111.25" x2="188.75" y1="610.3516" y2="610.3516"/><line style="stroke:#A80036;stroke-width:1.875;" x1="111.25" x2="188.75" y1="620.3516" y2="620.3516"/><!--MD5=[e3612552781b2b3849880f2b7cc3064d]
class javafx.application.Application--><rect fill="#FEFECE" filter="url(#f1ltt8edq2g8d1)" height="60" id="javafx.application.Application" style="stroke:#A80036;stroke-width:1.875;" width="115" x="1128.75" y="109.1016"/><ellipse cx="1147.5" cy="129.1016" fill="#ADD1B2" rx="13.75" ry="13.75" style="stroke:#A80036;stroke-width:1.25;"/><path d="M1150,124.7266 Q1150.2539,124.1016 1150.5469,123.7891 Q1150.8398,123.4766 1151.1719,123.4766 Q1151.7578,123.4766 1152.1289,123.8281 Q1152.5,124.1797 1152.5,125 L1152.5,126.9531 Q1152.5,127.7734 1152.1484,128.125 Q1151.7969,128.4766 1151.25,128.4766 Q1150.7617,128.4766 1150.4492,128.2617 Q1150.1367,128.0469 1150,127.4805 Q1149.9414,127.0898 1149.7266,126.875 Q1149.3359,126.4648 1148.6328,126.2305 Q1147.9297,125.9766 1147.2266,125.9766 Q1146.3477,125.9766 1145.6055,126.3281 Q1144.8828,126.6797 1144.3164,127.4609 Q1143.75,128.2422 1143.75,129.3164 L1143.75,130.4688 Q1143.75,131.7578 1144.8047,132.6172 Q1145.8594,133.4766 1147.7344,133.4766 Q1148.8477,133.4766 1149.6289,133.2227 Q1150.0781,133.0859 1150.5859,132.6367 Q1150.918,132.3828 1151.0938,132.3047 Q1151.2695,132.2266 1151.4844,132.2266 Q1151.8945,132.2266 1152.1875,132.5586 Q1152.5,132.8711 1152.5,133.3203 Q1152.5,133.75 1152.0703,134.2578 Q1151.4453,135 1150.4492,135.4102 Q1149.1406,135.9766 1147.5391,135.9766 Q1145.6641,135.9766 1144.1602,135.2344 Q1142.9492,134.6484 1142.0898,133.3789 Q1141.25,132.1094 1141.25,130.6055 L1141.25,129.2383 Q1141.25,127.6758 1141.9922,126.3086 Q1142.7539,124.9414 1144.0625,124.2188 Q1145.3906,123.4766 1146.875,123.4766 Q1147.7734,123.4766 1148.5547,123.7891 Q1149.3359,124.1016 1150,124.7266 Z " fill="#000000"/><text fill="#000000" font-family="sans-serif" font-size="15" lengthAdjust="spacing" textLength="75" x="1165" y="135.2393">Application</text><line style="stroke:#A80036;stroke-width:1.875;" x1="1130" x2="1242.5" y1="149.1016" y2="149.1016"/><line style="stroke:#A80036;stroke-width:1.875;" x1="1130" x2="1242.5" y1="159.1016" y2="159.1016"/><!--MD5=[95d3b66dc162223af976d91598873ada]
reverse link MainCode.ClusteringAlgorithm.AbstractClustering to MainCode.ClusteringAlgorithm.KMAndMSGeneral--><path codeLine="138" d="M1644.2375,413.6016 C1665.475,461.6391 1696.2625,531.2641 1713.4375,570.1141 " fill="none" id="MainCode.ClusteringAlgorithm.AbstractClustering-backto-MainCode.ClusteringAlgorithm.KMAndMSGeneral" style="stroke:#A80036;stroke-width:1.25;"/><polygon fill="none" points="1636.225,417.1266,1634.125,390.7266,1652.2375,410.0516,1636.225,417.1266" style="stroke:#A80036;stroke-width:1.25;"/><!--MD5=[1d0650b372a028613f3b84e9725800e7]
reverse link MainCode.ClusteringAlgorithm.KMAndMSGeneral to MainCode.ClusteringAlgorithm.KMeans--><path codeLine="139" d="M1687.5125,650.4141 C1666.85,676.4391 1642.125,707.6016 1624.45,729.8641 " fill="none" id="MainCode.ClusteringAlgorithm.KMAndMSGeneral-backto-MainCode.ClusteringAlgorithm.KMeans" style="stroke:#A80036;stroke-width:1.25;"/><polygon fill="none" points="1680.925,644.6266,1703.325,630.4891,1694.6375,655.5141,1680.925,644.6266" style="stroke:#A80036;stroke-width:1.25;"/><!--MD5=[f302681acc89753eb85f7dc52c2c8487]
reverse link MainCode.ClusteringAlgorithm.AbstractClustering to MainCode.ClusteringAlgorithm.KNearestNeighbor--><path codeLine="140" d="M1598.2625,413.6016 C1577.025,461.6391 1546.2375,531.2641 1529.0625,570.1141 " fill="none" id="MainCode.ClusteringAlgorithm.AbstractClustering-backto-MainCode.ClusteringAlgorithm.KNearestNeighbor" style="stroke:#A80036;stroke-width:1.25;"/><polygon fill="none" points="1590.2625,410.0516,1608.375,390.7266,1606.275,417.1266,1590.2625,410.0516" style="stroke:#A80036;stroke-width:1.25;"/><!--MD5=[05356bdae02b1be86347eaf12456cee4]
reverse link MainCode.ClusteringAlgorithm.KNearestNeighbor to MainCode.InSetData.Node--><path codeLine="141" d="M1467.775,641.0016 C1433.725,668.6891 1388.9375,705.1016 1358.1375,730.1266 " fill="none" id="MainCode.ClusteringAlgorithm.KNearestNeighbor-backto-MainCode.InSetData.Node" style="stroke:#A80036;stroke-width:1.25;"/><polygon fill="#FFFFFF" points="1480.7125,630.4891,1471.739,631.3408,1469.0738,639.9517,1478.0474,639.0999,1480.7125,630.4891" style="stroke:#A80036;stroke-width:1.25;"/><text fill="#000000" font-family="sans-serif" font-size="16.25" lengthAdjust="spacing" textLength="66.25" x="1431.25" y="688.4705">centroids</text><!--MD5=[b1944705ce6fb43c9413118b9521c70f]
reverse link MainCode.ClusteringAlgorithm.KMAndMSGeneral to MainCode.ClusteringAlgorithm.MeanShift--><path codeLine="142" d="M1733.525,655.5266 C1736.8875,680.4391 1740.75,709.0391 1743.55,729.8641 " fill="none" id="MainCode.ClusteringAlgorithm.KMAndMSGeneral-backto-MainCode.ClusteringAlgorithm.MeanShift" style="stroke:#A80036;stroke-width:1.25;"/><polygon fill="none" points="1724.825,656.4391,1730.15,630.4891,1742.1625,654.0891,1724.825,656.4391" style="stroke:#A80036;stroke-width:1.25;"/><!--MD5=[a3ce29783190881fee16dfd9a3effd74]
reverse link javafx.fxml.Initializable to MainCode.Controller--><path codeLine="143" d="M353.75,194.4016 C353.75,237.3766 353.75,295.8016 353.75,330.2766 " fill="none" id="javafx.fxml.Initializable-backto-MainCode.Controller" style="stroke:#A80036;stroke-width:1.25;stroke-dasharray:7.0,7.0;"/><polygon fill="none" points="345,194.4016,353.75,169.4016,362.5,194.4016,345,194.4016" style="stroke:#A80036;stroke-width:1.25;"/><!--MD5=[8d68ad03fbb75de4f8316242d925b09a]
reverse link MainCode.Controller to MainCode.InSetData.ListOfNodes--><path codeLine="144" d="M353.75,407.1266 C353.75,455.1891 353.75,529.4766 353.75,570.1141 " fill="none" id="MainCode.Controller-backto-MainCode.InSetData.ListOfNodes" style="stroke:#A80036;stroke-width:1.25;"/><polygon fill="#FFFFFF" points="353.75,390.7266,348.75,398.2266,353.75,405.7266,358.75,398.2266,353.75,390.7266" style="stroke:#A80036;stroke-width:1.25;"/><text fill="#000000" font-family="sans-serif" font-size="16.25" lengthAdjust="spacing" textLength="83.75" x="355" y="445.9705">listOfNodes</text><!--MD5=[99861f4a80faaa362e0900aea7d76ec6]
reverse link MainCode.InSetData.GenerateNode.GenarateANodeWithXY to MainCode.InSetData.Node--><path codeLine="145" d="M1186.975,641.3391 C1218.675,668.8766 1260.1625,704.9391 1288.85,729.8641 " fill="none" id="MainCode.InSetData.GenerateNode.GenarateANodeWithXY-backto-MainCode.InSetData.Node" style="stroke:#A80036;stroke-width:1.25;"/><polygon fill="#FFFFFF" points="1174.5,630.4891,1176.8815,639.1827,1185.8223,640.3281,1183.4408,631.6345,1174.5,630.4891" style="stroke:#A80036;stroke-width:1.25;"/><text fill="#000000" font-family="sans-serif" font-size="16.25" lengthAdjust="spacing" textLength="35" x="1243.75" y="688.4705">node</text><!--MD5=[b7c18e42304f5731d9e5ad31a7922411]
reverse link MainCode.InSetData.GenerateNode.AbstractGenerateNodes to MainCode.InSetData.GenerateNode.KMeansGenerateNodes--><path codeLine="146" d="M952.6,643.9766 C996.1,671.2516 1051.5125,705.9766 1090.0375,730.1266 " fill="none" id="MainCode.InSetData.GenerateNode.AbstractGenerateNodes-backto-MainCode.InSetData.GenerateNode.KMeansGenerateNodes" style="stroke:#A80036;stroke-width:1.25;"/><polygon fill="none" points="947.6125,651.1766,931.0875,630.4891,956.9125,636.3516,947.6125,651.1766" style="stroke:#A80036;stroke-width:1.25;"/><!--MD5=[00ecf69d0eec2bff072d6b747bd6030a]
reverse link MainCode.InSetData.GenerateNode.AbstractGenerateNodes to MainCode.InSetData.GenerateNode.KNearestNeighborGenerateNodes--><path codeLine="147" d="M810.0375,642.6641 C759.9125,670.1266 695.175,705.5891 650.3875,730.1266 " fill="none" id="MainCode.InSetData.GenerateNode.AbstractGenerateNodes-backto-MainCode.InSetData.GenerateNode.KNearestNeighborGenerateNodes" style="stroke:#A80036;stroke-width:1.25;"/><polygon fill="none" points="806.1375,634.8266,832.2625,630.4891,814.55,650.1766,806.1375,634.8266" style="stroke:#A80036;stroke-width:1.25;"/><!--MD5=[62c579503cf9db25335a2aafecad1765]
reverse link MainCode.InSetData.GenerateNode.AbstractGenerateNodes to MainCode.InSetData.GenerateNode.MeanShiftGenerateNode--><path codeLine="148" d="M885,655.5266 C885,680.4391 885,709.0391 885,729.8641 " fill="none" id="MainCode.InSetData.GenerateNode.AbstractGenerateNodes-backto-MainCode.InSetData.GenerateNode.MeanShiftGenerateNode" style="stroke:#A80036;stroke-width:1.25;"/><polygon fill="none" points="876.25,655.4891,885,630.4891,893.75,655.4891,876.25,655.4891" style="stroke:#A80036;stroke-width:1.25;"/><!--MD5=[2485a16c46eb78e020edceeaa9d72d98]
reverse link javafx.scene.shape.Circle to MainCode.InSetData.Node--><path codeLine="149" d="M212.875,636.2516 C230.9125,645.1141 250.8875,653.9391 270,660.3516 C341.9,684.4516 362.2,683.8766 437.5,692.8516 C619.1875,714.5016 1082.2,687.1516 1260,730.3516 C1267.8875,732.2641 1276,735.2016 1283.65,738.4641 " fill="none" id="javafx.scene.shape.Circle-backto-MainCode.InSetData.Node" style="stroke:#A80036;stroke-width:1.25;"/><polygon fill="none" points="208.7625,643.9641,190.5125,624.7641,216.75,628.4016,208.7625,643.9641" style="stroke:#A80036;stroke-width:1.25;"/><!--MD5=[175d3b6db32426d4b9b03b6615bcfb46]
reverse link javafx.application.Application to MainCode.Main--><path codeLine="150" d="M1186.25,194.4016 C1186.25,237.3766 1186.25,295.8016 1186.25,330.2766 " fill="none" id="javafx.application.Application-backto-MainCode.Main" style="stroke:#A80036;stroke-width:1.25;"/><polygon fill="none" points="1177.5,194.4016,1186.25,169.4016,1195,194.4016,1177.5,194.4016" style="stroke:#A80036;stroke-width:1.25;"/><text fill="#888888" font-family="sans-serif" font-size="12.5" lengthAdjust="spacing" textLength="0" x="1863.75" y="890.8276"/><text fill="#888888" font-family="sans-serif" font-size="12.5" lengthAdjust="spacing" textLength="0" x="1863.75" y="906.5503"/><text fill="#888888" font-family="sans-serif" font-size="12.5" lengthAdjust="spacing" textLength="490" x="1373.75" y="922.2729">PlantUML diagram generated by SketchIt! (https://bitbucket.org/pmesmeur/sketch.it)</text><text fill="#888888" font-family="sans-serif" font-size="12.5" lengthAdjust="spacing" textLength="492.5" x="1371.25" y="937.9956">For more information about this tool, please contact philippe.mesmeur@gmail.com</text><!--MD5=[b523f64e9cf247fa6fbd7f7d522c4821]
@startuml

title __VER4's Class Diagram__\n

  namespace MainCode {
    namespace ClusteringAlgorithm {
      abstract class MainCode.ClusteringAlgorithm.AbstractClustering {
      }
    }
  }
  

  namespace MainCode {
    namespace ClusteringAlgorithm {
      class MainCode.ClusteringAlgorithm.KMAndMSGeneral {
      }
    }
  }
  

  namespace MainCode {
    namespace ClusteringAlgorithm {
      class MainCode.ClusteringAlgorithm.KMeans {
      }
    }
  }
  

  namespace MainCode {
    namespace ClusteringAlgorithm {
      class MainCode.ClusteringAlgorithm.KNearestNeighbor {
      }
    }
  }
  

  namespace MainCode {
    namespace ClusteringAlgorithm {
      class MainCode.ClusteringAlgorithm.MeanShift {
      }
    }
  }
  

  namespace MainCode {
    class MainCode.Controller {
    }
  }
  

  namespace MainCode {
    class MainCode.HelpfullFunction {
    }
  }
  

  namespace MainCode {
    namespace InSetData {
      namespace GenerateNode {
        abstract class MainCode.InSetData.GenerateNode.AbstractGenerateNodes {
        }
      }
    }
  }
  

  namespace MainCode {
    namespace InSetData {
      namespace GenerateNode {
        class MainCode.InSetData.GenerateNode.GenarateANodeWithXY {
        }
      }
    }
  }
  

  namespace MainCode {
    namespace InSetData {
      namespace GenerateNode {
        class MainCode.InSetData.GenerateNode.GenerateCentroids {
        }
      }
    }
  }
  

  namespace MainCode {
    namespace InSetData {
      namespace GenerateNode {
        class MainCode.InSetData.GenerateNode.KMeansGenerateNodes {
        }
      }
    }
  }
  

  namespace MainCode {
    namespace InSetData {
      namespace GenerateNode {
        class MainCode.InSetData.GenerateNode.KNearestNeighborGenerateNodes {
        }
      }
    }
  }
  

  namespace MainCode {
    namespace InSetData {
      namespace GenerateNode {
        class MainCode.InSetData.GenerateNode.MeanShiftGenerateNode {
        }
      }
    }
  }
  

  namespace MainCode {
    namespace InSetData {
      class MainCode.InSetData.ListOfNodes {
      }
    }
  }
  

  namespace MainCode {
    namespace InSetData {
      class MainCode.InSetData.Node {
      }
    }
  }
  

  namespace MainCode {
    class MainCode.Main {
    }
  }
  

  MainCode.ClusteringAlgorithm.KMAndMSGeneral -up-|> MainCode.ClusteringAlgorithm.AbstractClustering
  MainCode.ClusteringAlgorithm.KMeans -up-|> MainCode.ClusteringAlgorithm.KMAndMSGeneral
  MainCode.ClusteringAlgorithm.KNearestNeighbor -up-|> MainCode.ClusteringAlgorithm.AbstractClustering
  MainCode.ClusteringAlgorithm.KNearestNeighbor o- - MainCode.InSetData.Node : centroids
  MainCode.ClusteringAlgorithm.MeanShift -up-|> MainCode.ClusteringAlgorithm.KMAndMSGeneral
  MainCode.Controller .up.|> javafx.fxml.Initializable
  MainCode.Controller o- - MainCode.InSetData.ListOfNodes : listOfNodes
  MainCode.InSetData.GenerateNode.GenarateANodeWithXY o- - MainCode.InSetData.Node : node
  MainCode.InSetData.GenerateNode.KMeansGenerateNodes -up-|> MainCode.InSetData.GenerateNode.AbstractGenerateNodes
  MainCode.InSetData.GenerateNode.KNearestNeighborGenerateNodes -up-|> MainCode.InSetData.GenerateNode.AbstractGenerateNodes
  MainCode.InSetData.GenerateNode.MeanShiftGenerateNode -up-|> MainCode.InSetData.GenerateNode.AbstractGenerateNodes
  MainCode.InSetData.Node -up-|> javafx.scene.shape.Circle
  MainCode.Main -up-|> javafx.application.Application


right footer


PlantUML diagram generated by SketchIt! (https://bitbucket.org/pmesmeur/sketch.it)
For more information about this tool, please contact philippe.mesmeur@gmail.com
endfooter

@enduml

PlantUML version 1.2021.00(Sun Jan 10 17:25:05 ICT 2021)
(GPL source distribution)
Java Runtime: OpenJDK Runtime Environment
JVM: OpenJDK 64-Bit Server VM
Default Encoding: Cp1252
Language: en
Country: US
--></g></svg>